{
copyright = "Copyright (c) 2015, Cadson Demak (info@cadsondemak.com)";
customParameters = (
{
name = vendorID;
value = CDK;
},
{
name = description;
value = "Copyright (c) 2015, Cadson Demak (info@cadsondemak.com)";
},
{
name = license;

glyphs = (
{
glyphname = A;
lastChange = "2015-10-24 10:08:12 +0000";
layers = (
{
layerId = "CD587521-C2B1-4DF5-9394-E26F9987D7DC";
name = "SemiBold Italic";
paths = (
{
closed = 1;
nodes = (
"165 0 LINE",
"253 146 LINE",
"474 146 LINE",
"501 0 LINE",
"657 0 LINE",
"547 644 LINE",
"373 644 LINE",
"-9 0 LINE"
);
},
{
closed = 1;
nodes = (
"432 489 LINE",
"469 265 LINE",
"300 265 LINE"
);
}
);
width = 728;
}
);
leftKerningGroup = A;
note = A;
rightKerningGroup = A;
unicode = 0041;
},
{
glyphname = Aacute;
lastChange = "2015-10-24 10:08:12 +0000";
layers = (
{
layerId = "CD587521-C2B1-4DF5-9394-E26F9987D7DC";
name = "SemiBold Italic";
paths = (
{
closed = 1;
nodes = (
"165 0 LINE",
"253 146 LINE",
"474 146 LINE",
"501 0 LINE",
"657 0 LINE",
"547 644 LINE",
"373 644 LINE",
"-9 0 LINE"
);
},
{
closed = 1;
nodes = (
"432 489 LINE",
"469 265 LINE",
"300 265 LINE"
);
},
{
closed = 1;
nodes = (
"527 688 LINE",
"661 884 LINE",
"529 884 LINE",
"403 688 LINE"
);
}
);
width = 728;
}
);
leftKerningGroup = A;
note = Aacute;
rightKerningGroup = A;
unicode = 00C1;
},
{
glyphname = Abreve;
lastChange = "2015-10-24 10:08:12 +0000";
layers = (
{
layerId = "CD587521-C2B1-4DF5-9394-E26F9987D7DC";
name = "SemiBold Italic";
paths = (
{
closed = 1;
nodes = (
"165 0 LINE",
"253 146 LINE",
"474 146 LINE",
"501 0 LINE",
"657 0 LINE",
"547 644 LINE",
"373 644 LINE",
"-9 0 LINE"
);
},
{
closed = 1;
nodes = (
"432 489 LINE",
"469 265 LINE",
"300 265 LINE"
);
},
{
closed = 1;
nodes = (
"581 688 OFFCURVE",
"656 750 OFFCURVE",
"679 860 CURVE",
"567 860 LINE",
"558 814 OFFCURVE",
"530 778 OFFCURVE",
"481 778 CURVE SMOOTH",
"429 778 OFFCURVE",
"420 809 OFFCURVE",
"431 860 CURVE",
"332 860 LINE",
"309 750 OFFCURVE",
"366 688 OFFCURVE",
"468 688 CURVE SMOOTH"
);
}
);
width = 728;
}
);
leftKerningGroup = A;
note = Abreve;
rightKerningGroup = A;
unicode = 0102;
},
{
glyphname = Abreveacute;
lastChange = "2015-10-24 10:08:12 +0000";
layers = (
{
layerId = "CD587521-C2B1-4DF5-9394-E26F9987D7DC";
name = "SemiBold Italic";
paths = (
{
closed = 1;
nodes = (
"165 0 LINE",
"253 146 LINE",
"474 146 LINE",
"501 0 LINE",
"657 0 LINE",
"547 644 LINE",
"373 644 LINE",
"-9 0 LINE"
);
},
{
closed = 1;
nodes = (
"432 489 LINE",
"469 265 LINE",
"300 265 LINE"
);
},
{
closed = 1;
nodes = (
"580 688 OFFCURVE",
"653 736 OFFCURVE",
"677 852 CURVE",
"581 852 LINE",
"570 800 OFFCURVE",
"535 769 OFFCURVE",
"484 769 CURVE SMOOTH",
"421 769 OFFCURVE",
"409 795 OFFCURVE",
"420 852 CURVE",
"331 852 LINE",
"307 736 OFFCURVE",
"369 688 OFFCURVE",
"470 688 CURVE SMOOTH"
);
},
{
closed = 1;
nodes = (
"548 837 LINE",
"658 986 LINE",
"545 986 LINE",
"447 837 LINE"
);
}
);
width = 728;
}
);
leftKerningGroup = A;
note = Abreveacute;
rightKerningGroup = A;
unicode = 1EAE;
},
{
glyphname = Abrevedotbelow;
lastChange = "2015-10-24 10:08:12 +0000";
layers = (
{
layerId = "CD587521-C2B1-4DF5-9394-E26F9987D7DC";
name = "SemiBold Italic";
paths = (
{
closed = 1;
nodes = (
"165 0 LINE",
"253 146 LINE",
"474 146 LINE",
"501 0 LINE",
"657 0 LINE",
"547 644 LINE",
"373 644 LINE",
"-9 0 LINE"
);
},
{
closed = 1;
nodes = (
"344 -179 LINE",
"367 -70 LINE",
"249 -70 LINE",
"226 -179 LINE"
);
},
{
closed = 1;
nodes = (
"432 489 LINE",
"469 265 LINE",
"300 265 LINE"
);
},
{
closed = 1;
nodes = (
"580 688 OFFCURVE",
"655 750 OFFCURVE",
"678 860 CURVE",
"566 860 LINE",
"557 814 OFFCURVE",
"529 778 OFFCURVE",
"480 778 CURVE SMOOTH",
"428 778 OFFCURVE",
"419 809 OFFCURVE",
"430 860 CURVE",
"331 860 LINE",
"308 750 OFFCURVE",
"365 688 OFFCURVE",
"467 688 CURVE SMOOTH"
);
}
);
width = 728;
}
);
leftKerningGroup = A;
note = Abrevedotbelow;
rightKerningGroup = A;
unicode = 1EB6;
},
{
glyphname = Abrevegrave;
lastChange = "2015-10-24 10:08:11 +0000";
layers = (
{
layerId = "CD587521-C2B1-4DF5-9394-E26F9987D7DC";
name = "SemiBold Italic";
paths = (
{
closed = 1;
nodes = (
"165 0 LINE",
"253 146 LINE",
"474 146 LINE",
"501 0 LINE",
"657 0 LINE",
"547 644 LINE",
"373 644 LINE",
"-9 0 LINE"
);
},
{
closed = 1;
nodes = (
"432 489 LINE",
"469 265 LINE",
"300 265 LINE"
);
},
{
closed = 1;
nodes = (
"580 688 OFFCURVE",
"653 736 OFFCURVE",
"677 852 CURVE",
"581 852 LINE",
"570 800 OFFCURVE",
"535 769 OFFCURVE",
"484 769 CURVE SMOOTH",
"421 769 OFFCURVE",
"409 795 OFFCURVE",
"420 852 CURVE",
"331 852 LINE",
"307 736 OFFCURVE",
"369 688 OFFCURVE",
"470 688 CURVE SMOOTH"
);
},
{
closed = 1;
nodes = (
"556 837 LINE",
"522 986 LINE",
"408 986 LINE",
"454 837 LINE"
);
}
);
width = 728;
}
);
leftKerningGroup = A;
note = Abrevegrave;
rightKerningGroup = A;
unicode = 1EB0;
},
{
glyphname = Abrevehookabove;
lastChange = "2015-10-24 10:08:12 +0000";
layers = (
{
layerId = "CD587521-C2B1-4DF5-9394-E26F9987D7DC";
name = "SemiBold Italic";
paths = (
{
closed = 1;
nodes = (
"165 0 LINE",
"253 146 LINE",
"474 146 LINE",
"501 0 LINE",
"657 0 LINE",
"547 644 LINE",
"373 644 LINE",
"-9 0 LINE"
);
},
{
closed = 1;
nodes = (
"432 489 LINE",
"469 265 LINE",
"300 265 LINE"
);
},
{
closed = 1;
nodes = (
"580 688 OFFCURVE",
"653 736 OFFCURVE",
"677 852 CURVE",
"581 852 LINE",
"570 800 OFFCURVE",
"535 769 OFFCURVE",
"484 769 CURVE SMOOTH",
"421 769 OFFCURVE",
"409 795 OFFCURVE",
"420 852 CURVE",
"331 852 LINE",
"307 736 OFFCURVE",
"369 688 OFFCURVE",
"470 688 CURVE SMOOTH"
);
},
{
closed = 1;
nodes = (
"554 844 LINE",
"560 875 LINE",
"617 887 OFFCURVE",
"644 910 OFFCURVE",
"653 955 CURVE SMOOTH",
"663 1003 OFFCURVE",
"631 1038 OFFCURVE",
"560 1038 CURVE SMOOTH",
"523 1038 OFFCURVE",
"487 1033 OFFCURVE",
"462 1025 CURVE",
"449 963 LINE",
"464 969 OFFCURVE",
"484 974 OFFCURVE",
"503 974 CURVE SMOOTH",
"536 974 OFFCURVE",
"551 967 OFFCURVE",
"546 944 CURVE SMOOTH",
"541 921 OFFCURVE",
"519 907 OFFCURVE",
"461 905 CURVE",
"448 844 LINE"
);
}
);
width = 728;
}
);
leftKerningGroup = A;
note = Abrevehookabove;
rightKerningGroup = A;
unicode = 1EB2;
},
{
glyphname = Abrevetilde;
lastChange = "2015-10-24 10:08:11 +0000";
layers = (
{
layerId = "CD587521-C2B1-4DF5-9394-E26F9987D7DC";
name = "SemiBold Italic";
paths = (
{
closed = 1;
nodes = (
"165 0 LINE",
"253 146 LINE",
"474 146 LINE",
"501 0 LINE",
"657 0 LINE",
"547 644 LINE",
"373 644 LINE",
"-9 0 LINE"
);
},
{
closed = 1;
nodes = (
"432 489 LINE",
"469 265 LINE",
"300 265 LINE"
);
},
{
closed = 1;
nodes = (
"580 688 OFFCURVE",
"653 736 OFFCURVE",
"677 852 CURVE",
"581 852 LINE",
"570 800 OFFCURVE",
"535 769 OFFCURVE",
"484 769 CURVE SMOOTH",
"421 769 OFFCURVE",
"409 795 OFFCURVE",
"420 852 CURVE",
"331 852 LINE",
"307 736 OFFCURVE",
"369 688 OFFCURVE",
"470 688 CURVE SMOOTH"
);
},
{
closed = 1;
nodes = (
"636 870 OFFCURVE",
"671 884 OFFCURVE",
"688 902 CURVE",
"706 994 LINE",
"685 970 OFFCURVE",
"652 955 OFFCURVE",
"613 955 CURVE SMOOTH",
"555 955 OFFCURVE",
"516 996 OFFCURVE",
"453 996 CURVE SMOOTH",
"417 996 OFFCURVE",
"379 982 OFFCURVE",
"357 964 CURVE",
"338 873 LINE",
"366 897 OFFCURVE",
"399 910 OFFCURVE",
"438 910 CURVE SMOOTH",
"490 910 OFFCURVE",
"537 870 OFFCURVE",
"598 870 CURVE SMOOTH"
);
}
);
width = 728;
}
);
leftKerningGroup = A;
note = Abrevetilde;
rightKerningGroup = A;
unicode = 1EB4;
},
{
glyphname = Acaron;
lastChange = "2015-10-24 10:08:13 +0000";
layers = (
{
layerId = "CD587521-C2B1-4DF5-9394-E26F9987D7DC";
name = "SemiBold Italic";
paths = (
{
closed = 1;
nodes = (
"165 0 LINE",
"253 146 LINE",
"474 146 LINE",
"501 0 LINE",
"657 0 LINE",
"547 644 LINE",
"373 644 LINE",
"-9 0 LINE"
);
},
{
closed = 1;
nodes = (
"432 489 LINE",
"469 265 LINE",
"300 265 LINE"
);
},
{
closed = 1;
nodes = (
"518 688 LINE",
"703 875 LINE",
"577 875 LINE",
"480 771 LINE",
"430 875 LINE",
"314 875 LINE",
"418 688 LINE"
);
}
);
width = 728;
}
);
leftKerningGroup = A;
note = Acaron;
rightKerningGroup = A;
unicode = 01CD;
},
{
glyphname = Acircumflex;
lastChange = "2015-10-24 10:08:12 +0000";
layers = (
{
layerId = "CD587521-C2B1-4DF5-9394-E26F9987D7DC";
name = "SemiBold Italic";
paths = (
{
closed = 1;
nodes = (
"165 0 LINE",
"253 146 LINE",
"474 146 LINE",
"501 0 LINE",
"657 0 LINE",
"547 644 LINE",
"373 644 LINE",
"-9 0 LINE"
);
},
{
closed = 1;
nodes = (
"432 489 LINE",
"469 265 LINE",
"300 265 LINE"
);
},
{
closed = 1;
nodes = (
"402 687 LINE",
"496 791 LINE",
"549 687 LINE",
"663 687 LINE",
"558 874 LINE",
"458 874 LINE",
"274 687 LINE"
);
}
);
width = 728;
}
);
leftKerningGroup = A;
note = Acircumflex;
rightKerningGroup = A;
unicode = 00C2;
},
{
glyphname = Acircumflexacute;
lastChange = "2015-10-24 10:08:13 +0000";
layers = (
{
layerId = "CD587521-C2B1-4DF5-9394-E26F9987D7DC";
name = "SemiBold Italic";
paths = (
{
closed = 1;
nodes = (
"165 0 LINE",
"253 146 LINE",
"474 146 LINE",
"501 0 LINE",
"657 0 LINE",
"547 644 LINE",
"373 644 LINE",
"-9 0 LINE"
);
},
{
closed = 1;
nodes = (
"432 489 LINE",
"469 265 LINE",
"300 265 LINE"
);
},
{
closed = 1;
nodes = (
"407 688 LINE",
"489 768 LINE",
"537 688 LINE",
"661 688 LINE",
"557 832 LINE",
"436 832 LINE",
"272 688 LINE"
);
},
{
closed = 1;
nodes = (
"717 809 LINE",
"823 958 LINE",
"703 958 LINE",
"604 809 LINE"
);
}
);
width = 728;
}
);
leftKerningGroup = A;
note = Acircumflexacute;
rightKerningGroup = A;
unicode = 1EA4;
},
{
glyphname = Acircumflexdotbelow;
lastChange = "2015-10-24 10:08:11 +0000";
layers = (
{
layerId = "CD587521-C2B1-4DF5-9394-E26F9987D7DC";
name = "SemiBold Italic";
paths = (
{
closed = 1;
nodes = (
"165 0 LINE",
"253 146 LINE",
"474 146 LINE",
"501 0 LINE",
"657 0 LINE",
"547 644 LINE",
"373 644 LINE",
"-9 0 LINE"
);
},
{
closed = 1;
nodes = (
"344 -179 LINE",
"367 -70 LINE",
"249 -70 LINE",
"226 -179 LINE"
);
},
{
closed = 1;
nodes = (
"432 489 LINE",
"469 265 LINE",
"300 265 LINE"
);
},
{
closed = 1;
nodes = (
"402 688 LINE",
"496 792 LINE",
"549 688 LINE",
"663 688 LINE",
"558 875 LINE",
"458 875 LINE",
"274 688 LINE"
);
}
);
width = 728;
}
);
leftKerningGroup = A;
note = Acircumflexdotbelow;
rightKerningGroup = A;
unicode = 1EAC;
},
{
glyphname = Acircumflexgrave;
lastChange = "2015-10-24 10:08:12 +0000";
layers = (
{
layerId = "CD587521-C2B1-4DF5-9394-E26F9987D7DC";
name = "SemiBold Italic";
paths = (
{
closed = 1;
nodes = (
"165 0 LINE",
"253 146 LINE",
"474 146 LINE",
"501 0 LINE",
"657 0 LINE",
"547 644 LINE",
"373 644 LINE",
"-9 0 LINE"
);
},
{
closed = 1;
nodes = (
"432 489 LINE",
"469 265 LINE",
"300 265 LINE"
);
},
{
closed = 1;
nodes = (
"385 809 LINE",
"347 958 LINE",
"227 958 LINE",
"271 809 LINE"
);
},
{
closed = 1;
nodes = (
"410 688 LINE",
"492 768 LINE",
"540 688 LINE",
"664 688 LINE",
"560 832 LINE",
"439 832 LINE",
"275 688 LINE"
);
}
);
width = 728;
}
);
leftKerningGroup = A;
note = Acircumflexgrave;
rightKerningGroup = A;
unicode = 1EA6;
},
{
glyphname = Acircumflexhookabove;
lastChange = "2015-10-24 10:08:12 +0000";
layers = (
{
layerId = "CD587521-C2B1-4DF5-9394-E26F9987D7DC";
name = "SemiBold Italic";
paths = (
{
closed = 1;
nodes = (
"165 0 LINE",
"253 146 LINE",
"474 146 LINE",
"501 0 LINE",
"657 0 LINE",
"547 644 LINE",
"373 644 LINE",
"-9 0 LINE"
);
},
{
closed = 1;
nodes = (
"432 489 LINE",
"469 265 LINE",
"300 265 LINE"
);
},
{
closed = 1;
nodes = (
"409 688 LINE",
"491 768 LINE",
"539 688 LINE",
"663 688 LINE",
"559 832 LINE",
"438 832 LINE",
"274 688 LINE"
);
},
{
closed = 1;
nodes = (
"719 787 LINE",
"726 820 LINE",
"779 828 OFFCURVE",
"808 857 OFFCURVE",
"817 902 CURVE SMOOTH",
"828 952 OFFCURVE",
"796 985 OFFCURVE",
"720 985 CURVE SMOOTH",
"682 985 OFFCURVE",
"652 980 OFFCURVE",
"627 973 CURVE",
"613 906 LINE",
"629 912 OFFCURVE",
"648 916 OFFCURVE",
"667 916 CURVE SMOOTH",
"695 916 OFFCURVE",
"709 909 OFFCURVE",
"705 891 CURVE SMOOTH",
"701 872 OFFCURVE",
"685 860 OFFCURVE",
"626 858 CURVE",
"611 787 LINE"
);
}
);
width = 728;
}
);
leftKerningGroup = A;
note = Acircumflexhookabove;
rightKerningGroup = A;
unicode = 1EA8;
},
{
glyphname = Acircumflextilde;
lastChange = "2015-10-24 10:08:12 +0000";
layers = (
{
layerId = "CD587521-C2B1-4DF5-9394-E26F9987D7DC";
name = "SemiBold Italic";
paths = (
{
closed = 1;
nodes = (
"165 0 LINE",
"253 146 LINE",
"474 146 LINE",
"501 0 LINE",
"657 0 LINE",
"547 644 LINE",
"373 644 LINE",
"-9 0 LINE"
);
},
{
closed = 1;
nodes = (
"432 489 LINE",
"469 265 LINE",
"300 265 LINE"
);
},
{
closed = 1;
nodes = (
"409 688 LINE",
"491 768 LINE",
"539 688 LINE",
"663 688 LINE",
"559 832 LINE",
"438 832 LINE",
"274 688 LINE"
);
},
{
closed = 1;
nodes = (
"638 847 OFFCURVE",
"672 861 OFFCURVE",
"688 879 CURVE",
"708 971 LINE",
"686 947 OFFCURVE",
"654 932 OFFCURVE",
"615 932 CURVE SMOOTH",
"557 932 OFFCURVE",
"517 973 OFFCURVE",
"454 973 CURVE SMOOTH",
"418 973 OFFCURVE",
"380 959 OFFCURVE",
"359 941 CURVE",
"339 850 LINE",
"367 874 OFFCURVE",
"400 887 OFFCURVE",
"439 887 CURVE SMOOTH",
"491 887 OFFCURVE",
"539 847 OFFCURVE",
"600 847 CURVE SMOOTH"
);
}
);
width = 728;
}
);
leftKerningGroup = A;
note = Acircumflextilde;
rightKerningGroup = A;
unicode = 1EAA;
},
{
glyphname = Adieresis;
lastChange = "2015-10-24 10:08:12 +0000";
layers = (
{
layerId = "CD587521-C2B1-4DF5-9394-E26F9987D7DC";
name = "SemiBold Italic";
paths = (
{
closed = 1;
nodes = (
"165 0 LINE",
"253 146 LINE",
"474 146 LINE",
"501 0 LINE",
"657 0 LINE",
"547 644 LINE",
"373 644 LINE",
"-9 0 LINE"
);
},
{
closed = 1;
nodes = (
"432 489 LINE",
"469 265 LINE",
"300 265 LINE"
);
},
{
closed = 1;
nodes = (
"429 713 LINE",
"453 822 LINE",
"336 822 LINE",
"312 713 LINE"
);
},
{
closed = 1;
nodes = (
"635 713 LINE",
"659 822 LINE",
"541 822 LINE",
"517 713 LINE"
);
}
);
width = 728;
}
);
leftKerningGroup = A;
note = Adieresis;
rightKerningGroup = A;
unicode = 00C4;
},
{
glyphname = Adotbelow;
lastChange = "2015-10-24 10:08:12 +0000";
layers = (
{
layerId = "CD587521-C2B1-4DF5-9394-E26F9987D7DC";
name = "SemiBold Italic";
paths = (
{
closed = 1;
nodes = (
"165 0 LINE",
"253 146 LINE",
"474 146 LINE",
"501 0 LINE",
"657 0 LINE",
"547 644 LINE",
"373 644 LINE",
"-9 0 LINE"
);
},
{
closed = 1;
nodes = (
"344 -179 LINE",
"367 -70 LINE",
"249 -70 LINE",
"226 -179 LINE"
);
},
{
closed = 1;
nodes = (
"432 489 LINE",
"469 265 LINE",
"300 265 LINE"
);
}
);
width = 728;
}
);
leftKerningGroup = A;
note = Adotbelow;
rightKerningGroup = A;
unicode = 1EA0;
},
{
glyphname = Agrave;
lastChange = "2015-10-24 10:08:12 +0000";
layers = (
{
layerId = "CD587521-C2B1-4DF5-9394-E26F9987D7DC";
name = "SemiBold Italic";
paths = (
{
closed = 1;
nodes = (
"165 0 LINE",
"253 146 LINE",
"474 146 LINE",
"501 0 LINE",
"657 0 LINE",
"547 644 LINE",
"373 644 LINE",
"-9 0 LINE"
);
},
{
closed = 1;
nodes = (
"432 489 LINE",
"469 265 LINE",
"300 265 LINE"
);
},
{
closed = 1;
nodes = (
"529 688 LINE",
"487 884 LINE",
"355 884 LINE",
"406 688 LINE"
);
}
);
width = 728;
}
);
leftKerningGroup = A;
note = Agrave;
rightKerningGroup = A;
unicode = 00C0;
},
{
glyphname = Ahookabove;
lastChange = "2015-10-24 10:08:12 +0000";
layers = (
{
layerId = "CD587521-C2B1-4DF5-9394-E26F9987D7DC";
name = "SemiBold Italic";
paths = (
{
closed = 1;
nodes = (
"165 0 LINE",
"253 146 LINE",
"474 146 LINE",
"501 0 LINE",
"657 0 LINE",
"547 644 LINE",
"373 644 LINE",
"-9 0 LINE"
);
},
{
closed = 1;
nodes = (
"432 489 LINE",
"469 265 LINE",
"300 265 LINE"
);
},
{
closed = 1;
nodes = (
"532 688 LINE",
"541 732 LINE",
"603 746 OFFCURVE",
"634 772 OFFCURVE",
"647 829 CURVE SMOOTH",
"659 888 OFFCURVE",
"620 928 OFFCURVE",
"532 928 CURVE SMOOTH",
"489 928 OFFCURVE",
"450 923 OFFCURVE",
"422 914 CURVE",
"406 842 LINE",
"423 847 OFFCURVE",
"449 851 OFFCURVE",
"468 851 CURVE SMOOTH",
"509 851 OFFCURVE",
"531 840 OFFCURVE",
"526 815 CURVE SMOOTH",
"520 788 OFFCURVE",
"499 773 OFFCURVE",
"427 769 CURVE",
"410 688 LINE"
);
}
);
width = 728;
}
);
leftKerningGroup = A;
note = Ahookabove;
rightKerningGroup = A;
unicode = 1EA2;
},
{
glyphname = Amacron;
lastChange = "2015-10-24 10:08:12 +0000";
layers = (
{
layerId = "CD587521-C2B1-4DF5-9394-E26F9987D7DC";
name = "SemiBold Italic";
paths = (
{
closed = 1;
nodes = (
"165 0 LINE",
"253 146 LINE",
"474 146 LINE",
"501 0 LINE",
"657 0 LINE",
"547 644 LINE",
"373 644 LINE",
"-9 0 LINE"
);
},
{
closed = 1;
nodes = (
"432 489 LINE",
"469 265 LINE",
"300 265 LINE"
);
},
{
closed = 1;
nodes = (
"630 704 LINE",
"651 801 LINE",
"334 801 LINE",
"313 704 LINE"
);
}
);
width = 728;
}
);
leftKerningGroup = A;
note = Amacron;
rightKerningGroup = A;
unicode = 0100;
},
{
glyphname = Aogonek;
lastChange = "2015-10-24 10:08:12 +0000";
layers = (
{
layerId = "CD587521-C2B1-4DF5-9394-E26F9987D7DC";
name = "SemiBold Italic";
paths = (
{
closed = 1;
nodes = (
"566 -220 OFFCURVE",
"604 -213 OFFCURVE",
"625 -205 CURVE",
"642 -124 LINE",
"629 -131 OFFCURVE",
"607 -135 OFFCURVE",
"590 -135 CURVE SMOOTH",
"564 -135 OFFCURVE",
"549 -124 OFFCURVE",
"555 -97 CURVE SMOOTH",
"563 -61 OFFCURVE",
"595 -25 OFFCURVE",
"657 0 CURVE",
"547 644 LINE",
"373 644 LINE",
"-9 0 LINE",
"165 0 LINE",
"253 146 LINE",
"476 146 LINE",
"503 0 LINE",
"461 -34 OFFCURVE",
"436 -76 OFFCURVE",
"426 -126 CURVE SMOOTH",
"412 -191 OFFCURVE",
"461 -220 OFFCURVE",
"529 -220 CURVE SMOOTH"
);
},
{
closed = 1;
nodes = (
"432 489 LINE",
"469 265 LINE",
"300 265 LINE"
);
}
);
width = 710;
}
);
leftKerningGroup = A;
note = Aogonek;
rightKerningGroup = A;
unicode = 0104;
},
{
glyphname = Aring;
lastChange = "2015-10-24 10:08:13 +0000";
layers = (
{
layerId = "CD587521-C2B1-4DF5-9394-E26F9987D7DC";
name = "SemiBold Italic";
paths = (
{
closed = 1;
nodes = (
"165 0 LINE",
"253 146 LINE",
"474 146 LINE",
"501 0 LINE",
"657 0 LINE",
"550 625 LINE",
"579 647 OFFCURVE",
"598 680 OFFCURVE",
"606 717 CURVE SMOOTH",
"621 788 OFFCURVE",
"585 843 OFFCURVE",
"501 843 CURVE SMOOTH",
"415 843 OFFCURVE",
"359 788 OFFCURVE",
"344 717 CURVE SMOOTH",
"336 680 OFFCURVE",
"342 648 OFFCURVE",
"362 626 CURVE",
"-9 0 LINE"
);
},
{
closed = 1;
nodes = (
"432 489 LINE",
"469 265 LINE",
"300 265 LINE"
);
},
{
closed = 1;
nodes = (
"422 662 OFFCURVE",
"411 686 OFFCURVE",
"417 717 CURVE SMOOTH",
"424 748 OFFCURVE",
"451 773 OFFCURVE",
"486 773 CURVE SMOOTH",
"530 773 OFFCURVE",
"539 748 OFFCURVE",
"532 717 CURVE SMOOTH",
"526 686 OFFCURVE",
"500 662 OFFCURVE",
"463 662 CURVE SMOOTH"
);
}
);
width = 728;
}
);
leftKerningGroup = A;
note = Aring;
rightKerningGroup = A;
unicode = 00C5;
},
{
glyphname = Aringacute;
lastChange = "2015-10-24 10:08:12 +0000";
layers = (
{
layerId = "CD587521-C2B1-4DF5-9394-E26F9987D7DC";
name = "SemiBold Italic";
paths = (
{
closed = 1;
nodes = (
"165 0 LINE",
"253 146 LINE",
"474 146 LINE",
"501 0 LINE",
"657 0 LINE",
"550 625 LINE",
"579 647 OFFCURVE",
"598 680 OFFCURVE",
"606 717 CURVE SMOOTH",
"621 788 OFFCURVE",
"585 843 OFFCURVE",
"501 843 CURVE SMOOTH",
"415 843 OFFCURVE",
"359 788 OFFCURVE",
"344 717 CURVE SMOOTH",
"336 680 OFFCURVE",
"342 648 OFFCURVE",
"362 626 CURVE",
"-9 0 LINE"
);
},
{
closed = 1;
nodes = (
"432 489 LINE",
"469 265 LINE",
"300 265 LINE"
);
},
{
closed = 1;
nodes = (
"422 662 OFFCURVE",
"411 686 OFFCURVE",
"417 717 CURVE SMOOTH",
"424 748 OFFCURVE",
"451 773 OFFCURVE",
"486 773 CURVE SMOOTH",
"530 773 OFFCURVE",
"539 748 OFFCURVE",
"532 717 CURVE SMOOTH",
"526 686 OFFCURVE",
"500 662 OFFCURVE",
"463 662 CURVE SMOOTH"
);
},
{
closed = 1;
nodes = (
"564 867 LINE",
"698 1053 LINE",
"566 1053 LINE",
"440 867 LINE"
);
}
);
width = 728;
}
);
leftKerningGroup = A;
note = Aringacute;
rightKerningGroup = A;
unicode = 01FA;
},
{
glyphname = Atilde;
lastChange = "2015-10-24 10:08:13 +0000";
layers = (
{
layerId = "CD587521-C2B1-4DF5-9394-E26F9987D7DC";
name = "SemiBold Italic";
paths = (
{
closed = 1;
nodes = (
"165 0 LINE",
"253 146 LINE",
"474 146 LINE",
"501 0 LINE",
"657 0 LINE",
"547 644 LINE",
"373 644 LINE",
"-9 0 LINE"
);
},
{
closed = 1;
nodes = (
"432 489 LINE",
"469 265 LINE",
"300 265 LINE"
);
},
{
closed = 1;
nodes = (
"598 690 OFFCURVE",
"634 704 OFFCURVE",
"651 722 CURVE",
"674 830 LINE",
"652 806 OFFCURVE",
"619 791 OFFCURVE",
"579 791 CURVE SMOOTH",
"520 791 OFFCURVE",
"481 832 OFFCURVE",
"417 832 CURVE SMOOTH",
"380 832 OFFCURVE",
"342 818 OFFCURVE",
"319 800 CURVE",
"296 693 LINE",
"325 717 OFFCURVE",
"359 731 OFFCURVE",
"398 731 CURVE SMOOTH",
"450 731 OFFCURVE",
"498 690 OFFCURVE",
"560 690 CURVE SMOOTH"
);
}
);
width = 728;
}
);
leftKerningGroup = A;
note = Atilde;
rightKerningGroup = A;
unicode = 00C3;
},
{
glyphname = AE;
lastChange = "2015-10-24 10:08:12 +0000";
layers = (
{
layerId = "CD587521-C2B1-4DF5-9394-E26F9987D7DC";
name = "SemiBold Italic";
paths = (
{
closed = 1;
nodes = (
"163 0 LINE",
"251 147 LINE",
"393 147 LINE",
"362 0 LINE",
"783 0 LINE",
"809 124 LINE",
"548 124 LINE",
"577 259 LINE",
"801 259 LINE",
"827 385 LINE",
"603 385 LINE",
"632 520 LINE",
"893 520 LINE",
"919 644 LINE",
"373 644 LINE",
"-9 0 LINE"
);
},
{
closed = 1;
nodes = (
"460 520 LINE",
"472 520 LINE",
"419 272 LINE",
"314 272 LINE"
);
}
);
width = 854;
}
);
leftKerningGroup = A;
note = AE;
rightKerningGroup = E;
unicode = 00C6;
},
{
glyphname = AEacute;
lastChange = "2015-10-24 10:08:12 +0000";
layers = (
{
layerId = "CD587521-C2B1-4DF5-9394-E26F9987D7DC";
name = "SemiBold Italic";
paths = (
{
closed = 1;
nodes = (
"163 0 LINE",
"251 147 LINE",
"393 147 LINE",
"362 0 LINE",
"783 0 LINE",
"809 124 LINE",
"548 124 LINE",
"577 259 LINE",
"801 259 LINE",
"827 385 LINE",
"603 385 LINE",
"632 520 LINE",
"893 520 LINE",
"919 644 LINE",
"373 644 LINE",
"-9 0 LINE"
);
},
{
closed = 1;
nodes = (
"460 520 LINE",
"472 520 LINE",
"419 272 LINE",
"314 272 LINE"
);
},
{
closed = 1;
nodes = (
"648 688 LINE",
"782 884 LINE",
"650 884 LINE",
"524 688 LINE"
);
}
);
width = 854;
}
);
leftKerningGroup = A;
note = AEacute;
rightKerningGroup = E;
unicode = 01FC;
},
{
glyphname = B;
lastChange = "2015-10-24 10:08:13 +0000";
layers = (
{
layerId = "CD587521-C2B1-4DF5-9394-E26F9987D7DC";
name = "SemiBold Italic";
paths = (
{
closed = 1;
nodes = (
"361 0 LINE SMOOTH",
"503 0 OFFCURVE",
"584 66 OFFCURVE",
"610 189 CURVE SMOOTH",
"626 265 OFFCURVE",
"599 308 OFFCURVE",
"545 329 CURVE",
"594 354 OFFCURVE",
"631 400 OFFCURVE",
"646 468 CURVE SMOOTH",
"669 574 OFFCURVE",
"607 644 OFFCURVE",
"479 644 CURVE SMOOTH",
"147 644 LINE",
"11 0 LINE"
);
},
{
closed = 1;
nodes = (
"229 271 LINE",
"370 271 LINE SMOOTH",
"438 271 OFFCURVE",
"458 246 OFFCURVE",
"447 197 CURVE SMOOTH",
"434 136 OFFCURVE",
"408 115 OFFCURVE",
"343 115 CURVE SMOOTH",
"196 115 LINE"
);
},
{
closed = 1;
nodes = (
"284 528 LINE",
"407 528 LINE SMOOTH",
"473 528 OFFCURVE",
"489 503 OFFCURVE",
"479 454 CURVE SMOOTH",
"469 408 OFFCURVE",
"440 382 OFFCURVE",
"384 382 CURVE SMOOTH",
"253 382 LINE"
);
}
);
width = 641;
}
);
note = B;
unicode = 0042;
},
{
glyphname = C;
lastChange = "2015-10-24 10:08:12 +0000";
layers = (
{
layerId = "CD587521-C2B1-4DF5-9394-E26F9987D7DC";
name = "SemiBold Italic";
paths = (
{
closed = 1;
nodes = (
"413 -10 OFFCURVE",
"476 1 OFFCURVE",
"536 20 CURVE",
"566 162 LINE",
"503 138 OFFCURVE",
"439 127 OFFCURVE",
"376 127 CURVE SMOOTH",
"232 127 OFFCURVE",
"193 180 OFFCURVE",
"222 317 CURVE SMOOTH",
"251 454 OFFCURVE",
"329 516 OFFCURVE",
"457 516 CURVE SMOOTH",
"523 516 OFFCURVE",
"580 504 OFFCURVE",
"633 480 CURVE",
"662 621 LINE",
"610 641 OFFCURVE",
"554 654 OFFCURVE",
"475 654 CURVE SMOOTH",
"234 654 OFFCURVE",
"104 532 OFFCURVE",
"58 317 CURVE SMOOTH",
"14 112 OFFCURVE",
"123 -10 OFFCURVE",
"334 -10 CURVE SMOOTH"
);
}
);
width = 603;
}
);
leftKerningGroup = C;
note = C;
rightKerningGroup = C;
unicode = 0043;
},
{
glyphname = Cacute;
lastChange = "2015-10-24 10:08:12 +0000";
layers = (
{
layerId = "CD587521-C2B1-4DF5-9394-E26F9987D7DC";
name = "SemiBold Italic";
paths = (
{
closed = 1;
nodes = (
"413 -10 OFFCURVE",
"476 1 OFFCURVE",
"536 20 CURVE",
"566 162 LINE",
"503 138 OFFCURVE",
"439 127 OFFCURVE",
"376 127 CURVE SMOOTH",
"232 127 OFFCURVE",
"193 180 OFFCURVE",
"222 317 CURVE SMOOTH",
"251 454 OFFCURVE",
"329 516 OFFCURVE",
"457 516 CURVE SMOOTH",
"523 516 OFFCURVE",
"580 504 OFFCURVE",
"633 480 CURVE",
"662 621 LINE",
"610 641 OFFCURVE",
"554 654 OFFCURVE",
"475 654 CURVE SMOOTH",
"234 654 OFFCURVE",
"104 532 OFFCURVE",
"58 317 CURVE SMOOTH",
"14 112 OFFCURVE",
"123 -10 OFFCURVE",
"334 -10 CURVE SMOOTH"
);
},
{
closed = 1;
nodes = (
"529 688 LINE",
"663 884 LINE",
"531 884 LINE",
"405 688 LINE"
);
}
);
width = 603;
}
);
leftKerningGroup = C;
note = Cacute;
rightKerningGroup = C;
unicode = 0106;
},
{
glyphname = Ccaron;
lastChange = "2015-10-24 10:08:11 +0000";
layers = (
{
layerId = "CD587521-C2B1-4DF5-9394-E26F9987D7DC";
name = "SemiBold Italic";
paths = (
{
closed = 1;
nodes = (
"413 -10 OFFCURVE",
"476 1 OFFCURVE",
"536 20 CURVE",
"566 162 LINE",
"503 138 OFFCURVE",
"439 127 OFFCURVE",
"376 127 CURVE SMOOTH",
"232 127 OFFCURVE",
"193 180 OFFCURVE",
"222 317 CURVE SMOOTH",
"251 454 OFFCURVE",
"329 516 OFFCURVE",
"457 516 CURVE SMOOTH",
"523 516 OFFCURVE",
"580 504 OFFCURVE",
"633 480 CURVE",
"662 621 LINE",
"610 641 OFFCURVE",
"554 654 OFFCURVE",
"475 654 CURVE SMOOTH",
"234 654 OFFCURVE",
"104 532 OFFCURVE",
"58 317 CURVE SMOOTH",
"14 112 OFFCURVE",
"123 -10 OFFCURVE",
"334 -10 CURVE SMOOTH"
);
},
{
closed = 1;
nodes = (
"522 687 LINE",
"707 874 LINE",
"581 874 LINE",
"484 770 LINE",
"434 874 LINE",
"318 874 LINE",
"422 687 LINE"
);
}
);
width = 603;
}
);
leftKerningGroup = C;
note = Ccaron;
rightKerningGroup = C;
unicode = 010C;
},
{
glyphname = Ccedilla;
lastChange = "2015-10-24 10:08:12 +0000";
layers = (
{
layerId = "CD587521-C2B1-4DF5-9394-E26F9987D7DC";
name = "SemiBold Italic";
paths = (
{
closed = 1;
nodes = (
"372 -240 OFFCURVE",
"431 -202 OFFCURVE",
"445 -136 CURVE SMOOTH",
"456 -80 OFFCURVE",
"430 -43 OFFCURVE",
"355 -43 CURVE",
"374 -9 LINE",
"435 -6 OFFCURVE",
"486 4 OFFCURVE",
"536 20 CURVE",
"566 162 LINE",
"503 138 OFFCURVE",
"439 127 OFFCURVE",
"376 127 CURVE SMOOTH",
"232 127 OFFCURVE",
"193 180 OFFCURVE",
"222 317 CURVE SMOOTH",
"251 454 OFFCURVE",
"329 516 OFFCURVE",
"457 516 CURVE SMOOTH",
"523 516 OFFCURVE",
"580 504 OFFCURVE",
"633 480 CURVE",
"662 621 LINE",
"610 641 OFFCURVE",
"554 654 OFFCURVE",
"475 654 CURVE SMOOTH",
"234 654 OFFCURVE",
"104 532 OFFCURVE",
"58 317 CURVE SMOOTH",
"18 130 OFFCURVE",
"105 12 OFFCURVE",
"280 -7 CURVE",
"234 -100 LINE",
"288 -100 LINE SMOOTH",
"327 -100 OFFCURVE",
"353 -103 OFFCURVE",
"346 -134 CURVE SMOOTH",
"340 -163 OFFCURVE",
"318 -169 OFFCURVE",
"263 -169 CURVE SMOOTH",
"243 -169 OFFCURVE",
"221 -166 OFFCURVE",
"204 -161 CURVE",
"189 -232 LINE",
"203 -236 OFFCURVE",
"243 -240 OFFCURVE",
"266 -240 CURVE SMOOTH"
);
}
);
width = 603;
}
);
leftKerningGroup = C;
note = Ccedilla;
rightKerningGroup = C;
unicode = 00C7;
},
{
glyphname = Ccircumflex;
lastChange = "2015-10-24 10:08:13 +0000";
layers = (
{
layerId = "CD587521-C2B1-4DF5-9394-E26F9987D7DC";
name = "SemiBold Italic";
paths = (
{
closed = 1;
nodes = (
"413 -10 OFFCURVE",
"476 1 OFFCURVE",
"536 20 CURVE",
"566 162 LINE",
"503 138 OFFCURVE",
"439 127 OFFCURVE",
"376 127 CURVE SMOOTH",
"232 127 OFFCURVE",
"193 180 OFFCURVE",
"222 317 CURVE SMOOTH",
"251 454 OFFCURVE",
"329 516 OFFCURVE",
"457 516 CURVE SMOOTH",
"523 516 OFFCURVE",
"580 504 OFFCURVE",
"633 480 CURVE",
"662 621 LINE",
"610 641 OFFCURVE",
"554 654 OFFCURVE",
"475 654 CURVE SMOOTH",
"234 654 OFFCURVE",
"104 532 OFFCURVE",
"58 317 CURVE SMOOTH",
"14 112 OFFCURVE",
"123 -10 OFFCURVE",
"334 -10 CURVE SMOOTH"
);
},
{
closed = 1;
nodes = (
"384 687 LINE",
"478 791 LINE",
"531 687 LINE",
"645 687 LINE",
"540 874 LINE",
"440 874 LINE",
"256 687 LINE"
);
}
);
width = 603;
}
);
leftKerningGroup = C;
note = Ccircumflex;
rightKerningGroup = C;
unicode = 0108;
},
{
glyphname = Cdotaccent;
lastChange = "2015-10-24 10:08:12 +0000";
layers = (
{
layerId = "CD587521-C2B1-4DF5-9394-E26F9987D7DC";
name = "SemiBold Italic";
paths = (
{
closed = 1;
nodes = (
"413 -10 OFFCURVE",
"476 1 OFFCURVE",
"536 20 CURVE",
"566 162 LINE",
"503 138 OFFCURVE",
"439 127 OFFCURVE",
"376 127 CURVE SMOOTH",
"232 127 OFFCURVE",
"193 180 OFFCURVE",
"222 317 CURVE SMOOTH",
"251 454 OFFCURVE",
"329 516 OFFCURVE",
"457 516 CURVE SMOOTH",
"523 516 OFFCURVE",
"580 504 OFFCURVE",
"633 480 CURVE",
"662 621 LINE",
"610 641 OFFCURVE",
"554 654 OFFCURVE",
"475 654 CURVE SMOOTH",
"234 654 OFFCURVE",
"104 532 OFFCURVE",
"58 317 CURVE SMOOTH",
"14 112 OFFCURVE",
"123 -10 OFFCURVE",
"334 -10 CURVE SMOOTH"
);
},
{
closed = 1;
nodes = (
"527 714 LINE",
"551 823 LINE",
"434 823 LINE",
"410 714 LINE"
);
}
);
width = 603;
}
);
leftKerningGroup = C;
note = Cdotaccent;
rightKerningGroup = C;
unicode = 010A;
},
{
glyphname = D;
lastChange = "2015-10-24 10:08:13 +0000";
layers = (
{
layerId = "CD587521-C2B1-4DF5-9394-E26F9987D7DC";
name = "SemiBold Italic";
paths = (
{
closed = 1;
nodes = (
"303 0 LINE SMOOTH",
"515 0 OFFCURVE",
"613 97 OFFCURVE",
"659 318 CURVE SMOOTH",
"707 550 OFFCURVE",
"604 644 OFFCURVE",
"426 644 CURVE SMOOTH",
"147 644 LINE",
"11 0 LINE"
);
},
{
closed = 1;
nodes = (
"282 520 LINE",
"378 520 LINE SMOOTH",
"512 520 OFFCURVE",
"529 477 OFFCURVE",
"495 318 CURVE SMOOTH",
"461 159 OFFCURVE",
"411 124 OFFCURVE",
"294 124 CURVE SMOOTH",
"198 124 LINE"
);
}
);
width = 663;
}
);
note = D;
rightKerningGroup = D;
unicode = 0044;
},
{
glyphname = Eth;
lastChange = "2015-10-24 10:08:12 +0000";
layers = (
{
layerId = "CD587521-C2B1-4DF5-9394-E26F9987D7DC";
name = "SemiBold Italic";
paths = (
{
closed = 1;
nodes = (
"346 0 LINE SMOOTH",
"558 0 OFFCURVE",
"656 97 OFFCURVE",
"702 318 CURVE SMOOTH",
"750 550 OFFCURVE",
"647 644 OFFCURVE",
"469 644 CURVE SMOOTH",
"190 644 LINE",
"133 374 LINE",
"60 374 LINE",
"35 257 LINE",
"108 257 LINE",
"54 0 LINE"
);
},
{
closed = 1;
nodes = (
"269 257 LINE",
"395 257 LINE",
"420 374 LINE",
"294 374 LINE",
"325 520 LINE",
"421 520 LINE SMOOTH",
"555 520 OFFCURVE",
"572 477 OFFCURVE",
"538 318 CURVE SMOOTH",
"504 159 OFFCURVE",
"454 124 OFFCURVE",
"337 124 CURVE SMOOTH",
"241 124 LINE"
);
}
);
width = 707;
}
);
note = Eth;
rightKerningGroup = D;
unicode = 00D0;
},
{
glyphname = Dcaron;
lastChange = "2015-10-24 10:08:12 +0000";
layers = (
{
layerId = "CD587521-C2B1-4DF5-9394-E26F9987D7DC";
name = "SemiBold Italic";
paths = (
{
closed = 1;
nodes = (
"303 0 LINE SMOOTH",
"515 0 OFFCURVE",
"613 97 OFFCURVE",
"659 318 CURVE SMOOTH",
"707 550 OFFCURVE",
"604 644 OFFCURVE",
"426 644 CURVE SMOOTH",
"147 644 LINE",
"11 0 LINE"
);
},
{
closed = 1;
nodes = (
"282 520 LINE",
"378 520 LINE SMOOTH",
"512 520 OFFCURVE",
"529 477 OFFCURVE",
"495 318 CURVE SMOOTH",
"461 159 OFFCURVE",
"411 124 OFFCURVE",
"294 124 CURVE SMOOTH",
"198 124 LINE"
);
},
{
closed = 1;
nodes = (
"458 698 LINE",
"643 885 LINE",
"517 885 LINE",
"420 781 LINE",
"370 885 LINE",
"254 885 LINE",
"358 698 LINE"
);
}
);
width = 663;
}
);
note = Dcaron;
rightKerningGroup = D;
unicode = 010E;
},
{
glyphname = Dcroat;
lastChange = "2015-10-24 10:08:12 +0000";
layers = (
{
layerId = "CD587521-C2B1-4DF5-9394-E26F9987D7DC";
name = "SemiBold Italic";
paths = (
{
closed = 1;
nodes = (
"336 0 LINE SMOOTH",
"548 0 OFFCURVE",
"646 97 OFFCURVE",
"692 318 CURVE SMOOTH",
"740 550 OFFCURVE",
"637 644 OFFCURVE",
"459 644 CURVE SMOOTH",
"180 644 LINE",
"123 374 LINE",
"50 374 LINE",
"25 257 LINE",
"98 257 LINE",
"44 0 LINE"
);
},
{
closed = 1;
nodes = (
"259 257 LINE",
"385 257 LINE",
"410 374 LINE",
"284 374 LINE",
"315 520 LINE",
"411 520 LINE SMOOTH",
"545 520 OFFCURVE",
"562 477 OFFCURVE",
"528 318 CURVE SMOOTH",
"494 159 OFFCURVE",
"444 124 OFFCURVE",
"327 124 CURVE SMOOTH",
"231 124 LINE"
);
}
);
width = 697;
}
);
note = Dcroat;
rightKerningGroup = D;
unicode = 0110;
},
{
glyphname = Ddotbelow;
lastChange = "2015-10-24 10:08:11 +0000";
layers = (
{
layerId = "CD587521-C2B1-4DF5-9394-E26F9987D7DC";
name = "SemiBold Italic";
paths = (
{
closed = 1;
nodes = (
"303 0 LINE SMOOTH",
"515 0 OFFCURVE",
"613 97 OFFCURVE",
"659 318 CURVE SMOOTH",
"707 550 OFFCURVE",
"604 644 OFFCURVE",
"426 644 CURVE SMOOTH",
"147 644 LINE",
"11 0 LINE"
);
},
{
closed = 1;
nodes = (
"279 -189 LINE",
"302 -80 LINE",
"184 -80 LINE",
"161 -189 LINE"
);
},
{
closed = 1;
nodes = (
"282 520 LINE",
"378 520 LINE SMOOTH",
"512 520 OFFCURVE",
"529 477 OFFCURVE",
"495 318 CURVE SMOOTH",
"461 159 OFFCURVE",
"411 124 OFFCURVE",
"294 124 CURVE SMOOTH",
"198 124 LINE"
);
}
);
width = 663;
}
);
note = Ddotbelow;
rightKerningGroup = D;
unicode = 1E0C;
},
{
glyphname = Dlinebelow;
lastChange = "2015-10-24 10:08:12 +0000";
layers = (
{
layerId = "CD587521-C2B1-4DF5-9394-E26F9987D7DC";
name = "SemiBold Italic";
paths = (
{
closed = 1;
nodes = (
"303 0 LINE SMOOTH",
"515 0 OFFCURVE",
"613 97 OFFCURVE",
"659 318 CURVE SMOOTH",
"707 550 OFFCURVE",
"604 644 OFFCURVE",
"426 644 CURVE SMOOTH",
"147 644 LINE",
"11 0 LINE"
);
},
{
closed = 1;
nodes = (
"382 -180 LINE",
"403 -82 LINE",
"86 -82 LINE",
"65 -180 LINE"
);
},
{
closed = 1;
nodes = (
"282 520 LINE",
"378 520 LINE SMOOTH",
"512 520 OFFCURVE",
"529 477 OFFCURVE",
"495 318 CURVE SMOOTH",
"461 159 OFFCURVE",
"411 124 OFFCURVE",
"294 124 CURVE SMOOTH",
"198 124 LINE"
);
}
);
width = 663;
}
);
note = Dlinebelow;
rightKerningGroup = D;
unicode = 1E0E;
},
{
glyphname = E;
lastChange = "2015-10-24 10:08:12 +0000";
layers = (
{
layerId = "CD587521-C2B1-4DF5-9394-E26F9987D7DC";
name = "SemiBold Italic";
paths = (
{
closed = 1;
nodes = (
"486 0 LINE",
"512 124 LINE",
"198 124 LINE",
"227 259 LINE",
"504 259 LINE",
"530 385 LINE",
"253 385 LINE",
"282 520 LINE",
"596 520 LINE",
"622 644 LINE",
"147 644 LINE",
"11 0 LINE"
);
}
);
width = 552;
}
);
leftKerningGroup = E;
note = E;
rightKerningGroup = E;
unicode = 0045;
},
{
glyphname = Eacute;
lastChange = "2015-10-24 10:08:12 +0000";
layers = (
{
layerId = "CD587521-C2B1-4DF5-9394-E26F9987D7DC";
name = "SemiBold Italic";
paths = (
{
closed = 1;
nodes = (
"486 0 LINE",
"512 124 LINE",
"198 124 LINE",
"227 259 LINE",
"504 259 LINE",
"530 385 LINE",
"253 385 LINE",
"282 520 LINE",
"596 520 LINE",
"622 644 LINE",
"147 644 LINE",
"11 0 LINE"
);
},
{
closed = 1;
nodes = (
"441 688 LINE",
"575 884 LINE",
"443 884 LINE",
"317 688 LINE"
);
}
);
width = 552;
}
);
leftKerningGroup = E;
note = Eacute;
rightKerningGroup = E;
unicode = 00C9;
},
{
glyphname = Ebreve;
lastChange = "2015-10-24 10:08:12 +0000";
layers = (
{
layerId = "CD587521-C2B1-4DF5-9394-E26F9987D7DC";
name = "SemiBold Italic";
paths = (
{
closed = 1;
nodes = (
"486 0 LINE",
"512 124 LINE",
"198 124 LINE",
"227 259 LINE",
"504 259 LINE",
"530 385 LINE",
"253 385 LINE",
"282 520 LINE",
"596 520 LINE",
"622 644 LINE",
"147 644 LINE",
"11 0 LINE"
);
},
{
closed = 1;
nodes = (
"511 688 OFFCURVE",
"586 750 OFFCURVE",
"609 860 CURVE",
"497 860 LINE",
"488 814 OFFCURVE",
"460 778 OFFCURVE",
"411 778 CURVE SMOOTH",
"359 778 OFFCURVE",
"350 809 OFFCURVE",
"361 860 CURVE",
"262 860 LINE",
"239 750 OFFCURVE",
"296 688 OFFCURVE",
"398 688 CURVE SMOOTH"
);
}
);
width = 557;
}
);
leftKerningGroup = E;
note = Ebreve;
rightKerningGroup = E;
unicode = 0114;
},
{
glyphname = Ecaron;
lastChange = "2015-10-24 10:08:12 +0000";
layers = (
{
layerId = "CD587521-C2B1-4DF5-9394-E26F9987D7DC";
name = "SemiBold Italic";
paths = (
{
closed = 1;
nodes = (
"486 0 LINE",
"512 124 LINE",
"198 124 LINE",
"227 259 LINE",
"504 259 LINE",
"530 385 LINE",
"253 385 LINE",
"282 520 LINE",
"596 520 LINE",
"622 644 LINE",
"147 644 LINE",
"11 0 LINE"
);
},
{
closed = 1;
nodes = (
"451 687 LINE",
"636 874 LINE",
"510 874 LINE",
"413 770 LINE",
"363 874 LINE",
"247 874 LINE",
"351 687 LINE"
);
}
);
width = 557;
}
);
leftKerningGroup = E;
note = Ecaron;
rightKerningGroup = E;
unicode = 011A;
},
{
glyphname = Ecircumflex;
lastChange = "2015-10-24 10:08:12 +0000";
layers = (
{
layerId = "CD587521-C2B1-4DF5-9394-E26F9987D7DC";
name = "SemiBold Italic";
paths = (
{
closed = 1;
nodes = (
"487 0 LINE",
"513 124 LINE",
"199 124 LINE",
"228 259 LINE",
"505 259 LINE",
"531 385 LINE",
"254 385 LINE",
"283 520 LINE",
"597 520 LINE",
"623 644 LINE",
"148 644 LINE",
"12 0 LINE"
);
},
{
closed = 1;
nodes = (
"328 687 LINE",
"422 791 LINE",
"475 687 LINE",
"589 687 LINE",
"484 874 LINE",
"384 874 LINE",
"200 687 LINE"
);
}
);
width = 558;
}
);
leftKerningGroup = E;
note = Ecircumflex;
rightKerningGroup = E;
unicode = 00CA;
},
{
glyphname = Ecircumflexacute;
lastChange = "2015-10-24 10:08:12 +0000";
layers = (
{
layerId = "CD587521-C2B1-4DF5-9394-E26F9987D7DC";
name = "SemiBold Italic";
paths = (
{
closed = 1;
nodes = (
"486 0 LINE",
"512 124 LINE",
"198 124 LINE",
"227 259 LINE",
"504 259 LINE",
"530 385 LINE",
"253 385 LINE",
"282 520 LINE",
"596 520 LINE",
"622 644 LINE",
"147 644 LINE",
"11 0 LINE"
);
},
{
closed = 1;
nodes = (
"325 688 LINE",
"407 768 LINE",
"455 688 LINE",
"579 688 LINE",
"475 832 LINE",
"354 832 LINE",
"190 688 LINE"
);
},
{
closed = 1;
nodes = (
"635 809 LINE",
"741 958 LINE",
"621 958 LINE",
"522 809 LINE"
);
}
);
width = 549;
}
);
leftKerningGroup = E;
note = Ecircumflexacute;
rightKerningGroup = E;
unicode = 1EBE;
},
{
glyphname = Ecircumflexdotbelow;
lastChange = "2015-10-24 10:08:11 +0000";
layers = (
{
layerId = "CD587521-C2B1-4DF5-9394-E26F9987D7DC";
name = "SemiBold Italic";
paths = (
{
closed = 1;
nodes = (
"489 0 LINE",
"515 124 LINE",
"201 124 LINE",
"230 259 LINE",
"507 259 LINE",
"533 385 LINE",
"256 385 LINE",
"285 520 LINE",
"599 520 LINE",
"625 644 LINE",
"150 644 LINE",
"14 0 LINE"
);
},
{
closed = 1;
nodes = (
"266 -179 LINE",
"289 -70 LINE",
"171 -70 LINE",
"148 -179 LINE"
);
},
{
closed = 1;
nodes = (
"323 688 LINE",
"417 792 LINE",
"470 688 LINE",
"584 688 LINE",
"479 875 LINE",
"379 875 LINE",
"195 688 LINE"
);
}
);
width = 560;
}
);
leftKerningGroup = E;
note = Ecircumflexdotbelow;
rightKerningGroup = E;
unicode = 1EC6;
},
{
glyphname = Ecircumflexgrave;
lastChange = "2015-10-24 10:08:12 +0000";
layers = (
{
layerId = "CD587521-C2B1-4DF5-9394-E26F9987D7DC";
name = "SemiBold Italic";
paths = (
{
closed = 1;
nodes = (
"486 0 LINE",
"512 124 LINE",
"198 124 LINE",
"227 259 LINE",
"504 259 LINE",
"530 385 LINE",
"253 385 LINE",
"282 520 LINE",
"596 520 LINE",
"622 644 LINE",
"147 644 LINE",
"11 0 LINE"
);
},
{
closed = 1;
nodes = (
"307 809 LINE",
"269 958 LINE",
"149 958 LINE",
"193 809 LINE"
);
},
{
closed = 1;
nodes = (
"332 688 LINE",
"414 768 LINE",
"462 688 LINE",
"586 688 LINE",
"482 832 LINE",
"361 832 LINE",
"197 688 LINE"
);
}
);
width = 552;
}
);
leftKerningGroup = E;
note = Ecircumflexgrave;
rightKerningGroup = E;
unicode = 1EC0;
},
{
glyphname = Ecircumflexhookabove;
lastChange = "2015-10-24 10:08:12 +0000";
layers = (
{
layerId = "CD587521-C2B1-4DF5-9394-E26F9987D7DC";
name = "SemiBold Italic";
paths = (
{
closed = 1;
nodes = (
"486 0 LINE",
"512 124 LINE",
"198 124 LINE",
"227 259 LINE",
"504 259 LINE",
"530 385 LINE",
"253 385 LINE",
"282 520 LINE",
"596 520 LINE",
"622 644 LINE",
"147 644 LINE",
"11 0 LINE"
);
},
{
closed = 1;
nodes = (
"329 688 LINE",
"411 768 LINE",
"459 688 LINE",
"583 688 LINE",
"479 832 LINE",
"358 832 LINE",
"194 688 LINE"
);
},
{
closed = 1;
nodes = (
"639 787 LINE",
"646 820 LINE",
"699 828 OFFCURVE",
"728 857 OFFCURVE",
"737 902 CURVE SMOOTH",
"748 952 OFFCURVE",
"716 985 OFFCURVE",
"640 985 CURVE SMOOTH",
"602 985 OFFCURVE",
"572 980 OFFCURVE",
"547 973 CURVE",
"533 906 LINE",
"549 912 OFFCURVE",
"568 916 OFFCURVE",
"587 916 CURVE SMOOTH",
"615 916 OFFCURVE",
"629 909 OFFCURVE",
"625 891 CURVE SMOOTH",
"621 872 OFFCURVE",
"605 860 OFFCURVE",
"546 858 CURVE",
"531 787 LINE"
);
}
);
width = 549;
}
);
leftKerningGroup = E;
note = Ecircumflexhookabove;
rightKerningGroup = E;
unicode = 1EC2;
},
{
glyphname = Ecircumflextilde;
lastChange = "2015-10-24 10:08:12 +0000";
layers = (
{
layerId = "CD587521-C2B1-4DF5-9394-E26F9987D7DC";
name = "SemiBold Italic";
paths = (
{
closed = 1;
nodes = (
"486 0 LINE",
"512 124 LINE",
"198 124 LINE",
"227 259 LINE",
"504 259 LINE",
"530 385 LINE",
"253 385 LINE",
"282 520 LINE",
"596 520 LINE",
"622 644 LINE",
"147 644 LINE",
"11 0 LINE"
);
},
{
closed = 1;
nodes = (
"334 688 LINE",
"416 768 LINE",
"464 688 LINE",
"588 688 LINE",
"484 832 LINE",
"363 832 LINE",
"199 688 LINE"
);
},
{
closed = 1;
nodes = (
"563 847 OFFCURVE",
"597 861 OFFCURVE",
"613 879 CURVE",
"633 971 LINE",
"611 947 OFFCURVE",
"579 932 OFFCURVE",
"540 932 CURVE SMOOTH",
"482 932 OFFCURVE",
"442 973 OFFCURVE",
"379 973 CURVE SMOOTH",
"343 973 OFFCURVE",
"305 959 OFFCURVE",
"284 941 CURVE",
"264 850 LINE",
"292 874 OFFCURVE",
"325 887 OFFCURVE",
"364 887 CURVE SMOOTH",
"416 887 OFFCURVE",
"464 847 OFFCURVE",
"525 847 CURVE SMOOTH"
);
}
);
width = 557;
}
);
leftKerningGroup = E;
note = Ecircumflextilde;
rightKerningGroup = E;
unicode = 1EC4;
},
{
glyphname = Edieresis;
lastChange = "2015-10-24 10:08:12 +0000";
layers = (
{
layerId = "CD587521-C2B1-4DF5-9394-E26F9987D7DC";
name = "SemiBold Italic";
paths = (
{
closed = 1;
nodes = (
"486 0 LINE",
"512 124 LINE",
"198 124 LINE",
"227 259 LINE",
"504 259 LINE",
"530 385 LINE",
"253 385 LINE",
"282 520 LINE",
"596 520 LINE",
"622 644 LINE",
"147 644 LINE",
"11 0 LINE"
);
},
{
closed = 1;
nodes = (
"358 714 LINE",
"382 823 LINE",
"265 823 LINE",
"241 714 LINE"
);
},
{
closed = 1;
nodes = (
"564 714 LINE",
"588 823 LINE",
"470 823 LINE",
"446 714 LINE"
);
}
);
width = 557;
}
);
leftKerningGroup = E;
note = Edieresis;
rightKerningGroup = E;
unicode = 00CB;
},
{
glyphname = Edotaccent;
lastChange = "2015-10-24 10:08:12 +0000";
layers = (
{
layerId = "CD587521-C2B1-4DF5-9394-E26F9987D7DC";
name = "SemiBold Italic";
paths = (
{
closed = 1;
nodes = (
"486 0 LINE",
"512 124 LINE",
"198 124 LINE",
"227 259 LINE",
"504 259 LINE",
"530 385 LINE",
"253 385 LINE",
"282 520 LINE",
"596 520 LINE",
"622 644 LINE",
"147 644 LINE",
"11 0 LINE"
);
},
{
closed = 1;
nodes = (
"456 714 LINE",
"480 823 LINE",
"363 823 LINE",
"339 714 LINE"
);
}
);
width = 557;
}
);
leftKerningGroup = E;
note = Edotaccent;
rightKerningGroup = E;
unicode = 0116;
},
{
glyphname = Edotbelow;
lastChange = "2015-10-24 10:08:13 +0000";
layers = (
{
layerId = "CD587521-C2B1-4DF5-9394-E26F9987D7DC";
name = "SemiBold Italic";
paths = (
{
closed = 1;
nodes = (
"486 0 LINE",
"512 124 LINE",
"198 124 LINE",
"227 259 LINE",
"504 259 LINE",
"530 385 LINE",
"253 385 LINE",
"282 520 LINE",
"596 520 LINE",
"622 644 LINE",
"147 644 LINE",
"11 0 LINE"
);
},
{
closed = 1;
nodes = (
"262 -179 LINE",
"285 -70 LINE",
"167 -70 LINE",
"144 -179 LINE"
);
}
);
width = 557;
}
);
leftKerningGroup = E;
note = Edotbelow;
rightKerningGroup = E;
unicode = 1EB8;
},
{
glyphname = Egrave;
lastChange = "2015-10-24 10:08:11 +0000";
layers = (
{
layerId = "CD587521-C2B1-4DF5-9394-E26F9987D7DC";
name = "SemiBold Italic";
paths = (
{
closed = 1;
nodes = (
"486 0 LINE",
"512 124 LINE",
"198 124 LINE",
"227 259 LINE",
"504 259 LINE",
"530 385 LINE",
"253 385 LINE",
"282 520 LINE",
"596 520 LINE",
"622 644 LINE",
"147 644 LINE",
"11 0 LINE"
);
},
{
closed = 1;
nodes = (
"472 688 LINE",
"430 884 LINE",
"298 884 LINE",
"349 688 LINE"
);
}
);
width = 557;
}
);
leftKerningGroup = E;
note = Egrave;
rightKerningGroup = E;
unicode = 00C8;
},
{
glyphname = Ehookabove;
lastChange = "2015-10-24 10:08:12 +0000";
layers = (
{
layerId = "CD587521-C2B1-4DF5-9394-E26F9987D7DC";
name = "SemiBold Italic";
paths = (
{
closed = 1;
nodes = (
"486 0 LINE",
"512 124 LINE",
"198 124 LINE",
"227 259 LINE",
"504 259 LINE",
"530 385 LINE",
"253 385 LINE",
"282 520 LINE",
"596 520 LINE",
"622 644 LINE",
"147 644 LINE",
"11 0 LINE"
);
},
{
closed = 1;
nodes = (
"453 688 LINE",
"462 732 LINE",
"524 746 OFFCURVE",
"555 772 OFFCURVE",
"568 829 CURVE SMOOTH",
"580 888 OFFCURVE",
"541 928 OFFCURVE",
"453 928 CURVE SMOOTH",
"410 928 OFFCURVE",
"371 923 OFFCURVE",
"343 914 CURVE",
"327 842 LINE",
"344 847 OFFCURVE",
"370 851 OFFCURVE",
"389 851 CURVE SMOOTH",
"430 851 OFFCURVE",
"452 840 OFFCURVE",
"447 815 CURVE SMOOTH",
"441 788 OFFCURVE",
"420 773 OFFCURVE",
"348 769 CURVE",
"331 688 LINE"
);
}
);
width = 557;
}
);
leftKerningGroup = E;
note = Ehookabove;
rightKerningGroup = E;
unicode = 1EBA;
},
{
glyphname = Emacron;
lastChange = "2015-10-24 10:08:11 +0000";
layers = (
{
layerId = "CD587521-C2B1-4DF5-9394-E26F9987D7DC";
name = "SemiBold Italic";
paths = (
{
closed = 1;
nodes = (
"486 0 LINE",
"512 124 LINE",
"198 124 LINE",
"227 259 LINE",
"504 259 LINE",
"530 385 LINE",
"253 385 LINE",
"282 520 LINE",
"596 520 LINE",
"622 644 LINE",
"147 644 LINE",
"11 0 LINE"
);
},
{
closed = 1;
nodes = (
"551 723 LINE",
"572 820 LINE",
"255 820 LINE",
"234 723 LINE"
);
}
);
width = 557;
}
);
leftKerningGroup = E;
note = Emacron;
rightKerningGroup = E;
unicode = 0112;
},
{
glyphname = Eogonek;
lastChange = "2015-10-24 10:08:11 +0000";
layers = (
{
layerId = "CD587521-C2B1-4DF5-9394-E26F9987D7DC";
name = "SemiBold Italic";
paths = (
{
closed = 1;
nodes = (
"375 -220 OFFCURVE",
"413 -213 OFFCURVE",
"434 -205 CURVE",
"451 -124 LINE",
"438 -131 OFFCURVE",
"416 -135 OFFCURVE",
"399 -135 CURVE SMOOTH",
"373 -135 OFFCURVE",
"358 -124 OFFCURVE",
"364 -97 CURVE SMOOTH",
"372 -61 OFFCURVE",
"404 -28 OFFCURVE",
"447 0 CURVE",
"486 0 LINE",
"512 124 LINE",
"198 124 LINE",
"227 259 LINE",
"504 259 LINE",
"530 385 LINE",
"253 385 LINE",
"282 520 LINE",
"596 520 LINE",
"622 644 LINE",
"147 644 LINE",
"11 0 LINE",
"334 0 LINE",
"283 -30 OFFCURVE",
"245 -76 OFFCURVE",
"235 -126 CURVE SMOOTH",
"221 -191 OFFCURVE",
"270 -220 OFFCURVE",
"338 -220 CURVE SMOOTH"
);
}
);
width = 557;
}
);
leftKerningGroup = E;
note = Eogonek;
rightKerningGroup = E;
unicode = 0118;
},
{
glyphname = Etilde;
lastChange = "2015-10-24 10:08:12 +0000";
layers = (
{
layerId = "CD587521-C2B1-4DF5-9394-E26F9987D7DC";
name = "SemiBold Italic";
paths = (
{
closed = 1;
nodes = (
"486 0 LINE",
"512 124 LINE",
"198 124 LINE",
"227 259 LINE",
"504 259 LINE",
"530 385 LINE",
"253 385 LINE",
"282 520 LINE",
"596 520 LINE",
"622 644 LINE",
"147 644 LINE",
"11 0 LINE"
);
},
{
closed = 1;
nodes = (
"527 698 OFFCURVE",
"563 712 OFFCURVE",
"580 730 CURVE",
"603 838 LINE",
"581 814 OFFCURVE",
"548 799 OFFCURVE",
"508 799 CURVE SMOOTH",
"449 799 OFFCURVE",
"410 840 OFFCURVE",
"346 840 CURVE SMOOTH",
"309 840 OFFCURVE",
"271 826 OFFCURVE",
"248 808 CURVE",
"225 701 LINE",
"254 725 OFFCURVE",
"288 739 OFFCURVE",
"327 739 CURVE SMOOTH",
"379 739 OFFCURVE",
"427 698 OFFCURVE",
"489 698 CURVE SMOOTH"
);
}
);
width = 557;
}
);
leftKerningGroup = E;
note = Etilde;
rightKerningGroup = E;
unicode = 1EBC;
},
{
glyphname = F;
lastChange = "2015-10-24 10:08:12 +0000";
layers = (
{
layerId = "CD587521-C2B1-4DF5-9394-E26F9987D7DC";
name = "SemiBold Italic";
paths = (
{
closed = 1;
nodes = (
"172 0 LINE",
"227 259 LINE",
"497 259 LINE",
"523 385 LINE",
"253 385 LINE",
"282 520 LINE",
"589 520 LINE",
"615 644 LINE",
"147 644 LINE",
"11 0 LINE"
);
}
);
width = 530;
}
);
note = F;
unicode = 0046;
},
{
glyphname = G;
lastChange = "2015-10-24 10:08:12 +0000";
layers = (
{
layerId = "CD587521-C2B1-4DF5-9394-E26F9987D7DC";
name = "SemiBold Italic";
paths = (
{
closed = 1;
nodes = (
"448 -10 OFFCURVE",
"533 17 OFFCURVE",
"585 47 CURVE",
"653 366 LINE",
"379 366 LINE",
"358 265 LINE",
"497 265 LINE",
"471 143 LINE",
"443 133 OFFCURVE",
"398 127 OFFCURVE",
"359 127 CURVE SMOOTH",
"230 127 OFFCURVE",
"192 179 OFFCURVE",
"221 313 CURVE SMOOTH",
"251 452 OFFCURVE",
"330 516 OFFCURVE",
"467 516 CURVE SMOOTH",
"532 516 OFFCURVE",
"590 509 OFFCURVE",
"642 488 CURVE",
"672 626 LINE",
"619 645 OFFCURVE",
"560 654 OFFCURVE",
"481 654 CURVE SMOOTH",
"242 654 OFFCURVE",
"103 528 OFFCURVE",
"57 313 CURVE SMOOTH",
"13 108 OFFCURVE",
"119 -10 OFFCURVE",
"329 -10 CURVE SMOOTH"
);
}
);
width = 647;
}
);
leftKerningGroup = G;
note = G;
unicode = 0047;
},
{
glyphname = Gbreve;
lastChange = "2015-10-24 10:08:11 +0000";
layers = (
{
layerId = "CD587521-C2B1-4DF5-9394-E26F9987D7DC";
name = "SemiBold Italic";
paths = (
{
closed = 1;
nodes = (
"448 -10 OFFCURVE",
"533 17 OFFCURVE",
"585 47 CURVE",
"653 366 LINE",
"379 366 LINE",
"358 265 LINE",
"497 265 LINE",
"471 143 LINE",
"443 133 OFFCURVE",
"398 127 OFFCURVE",
"359 127 CURVE SMOOTH",
"230 127 OFFCURVE",
"192 179 OFFCURVE",
"221 313 CURVE SMOOTH",
"251 452 OFFCURVE",
"330 516 OFFCURVE",
"467 516 CURVE SMOOTH",
"532 516 OFFCURVE",
"590 509 OFFCURVE",
"642 488 CURVE",
"672 626 LINE",
"619 645 OFFCURVE",
"560 654 OFFCURVE",
"481 654 CURVE SMOOTH",
"242 654 OFFCURVE",
"103 528 OFFCURVE",
"57 313 CURVE SMOOTH",
"13 108 OFFCURVE",
"119 -10 OFFCURVE",
"329 -10 CURVE SMOOTH"
);
},
{
closed = 1;
nodes = (
"590 688 OFFCURVE",
"665 750 OFFCURVE",
"688 860 CURVE",
"576 860 LINE",
"567 814 OFFCURVE",
"539 778 OFFCURVE",
"490 778 CURVE SMOOTH",
"438 778 OFFCURVE",
"429 809 OFFCURVE",
"440 860 CURVE",
"341 860 LINE",
"318 750 OFFCURVE",
"375 688 OFFCURVE",
"477 688 CURVE SMOOTH"
);
}
);
width = 647;
}
);
leftKerningGroup = G;
note = Gbreve;
unicode = 011E;
},
{
glyphname = Gcaron;
lastChange = "2015-10-24 10:08:12 +0000";
layers = (
{
layerId = "CD587521-C2B1-4DF5-9394-E26F9987D7DC";
name = "SemiBold Italic";
paths = (
{
closed = 1;
nodes = (
"448 -10 OFFCURVE",
"533 17 OFFCURVE",
"585 47 CURVE",
"653 366 LINE",
"379 366 LINE",
"358 265 LINE",
"497 265 LINE",
"471 143 LINE",
"443 133 OFFCURVE",
"398 127 OFFCURVE",
"359 127 CURVE SMOOTH",
"230 127 OFFCURVE",
"192 179 OFFCURVE",
"221 313 CURVE SMOOTH",
"251 452 OFFCURVE",
"330 516 OFFCURVE",
"467 516 CURVE SMOOTH",
"532 516 OFFCURVE",
"590 509 OFFCURVE",
"642 488 CURVE",
"672 626 LINE",
"619 645 OFFCURVE",
"560 654 OFFCURVE",
"481 654 CURVE SMOOTH",
"242 654 OFFCURVE",
"103 528 OFFCURVE",
"57 313 CURVE SMOOTH",
"13 108 OFFCURVE",
"119 -10 OFFCURVE",
"329 -10 CURVE SMOOTH"
);
},
{
closed = 1;
nodes = (
"524 688 LINE",
"709 875 LINE",
"583 875 LINE",
"486 771 LINE",
"436 875 LINE",
"320 875 LINE",
"424 688 LINE"
);
}
);
width = 647;
}
);
leftKerningGroup = G;
note = Gcaron;
unicode = 01E6;
},
{
glyphname = Gcircumflex;
lastChange = "2015-10-24 10:08:11 +0000";
layers = (
{
layerId = "CD587521-C2B1-4DF5-9394-E26F9987D7DC";
name = "SemiBold Italic";
paths = (
{
closed = 1;
nodes = (
"448 -10 OFFCURVE",
"533 17 OFFCURVE",
"585 47 CURVE",
"653 366 LINE",
"379 366 LINE",
"358 265 LINE",
"497 265 LINE",
"471 143 LINE",
"443 133 OFFCURVE",
"398 127 OFFCURVE",
"359 127 CURVE SMOOTH",
"230 127 OFFCURVE",
"192 179 OFFCURVE",
"221 313 CURVE SMOOTH",
"251 452 OFFCURVE",
"330 516 OFFCURVE",
"467 516 CURVE SMOOTH",
"532 516 OFFCURVE",
"590 509 OFFCURVE",
"642 488 CURVE",
"672 626 LINE",
"619 645 OFFCURVE",
"560 654 OFFCURVE",
"481 654 CURVE SMOOTH",
"242 654 OFFCURVE",
"103 528 OFFCURVE",
"57 313 CURVE SMOOTH",
"13 108 OFFCURVE",
"119 -10 OFFCURVE",
"329 -10 CURVE SMOOTH"
);
},
{
closed = 1;
nodes = (
"400 687 LINE",
"494 791 LINE",
"547 687 LINE",
"661 687 LINE",
"556 874 LINE",
"456 874 LINE",
"272 687 LINE"
);
}
);
width = 647;
}
);
leftKerningGroup = G;
note = Gcircumflex;
unicode = 011C;
},
{
glyphname = Gcommaaccent;
lastChange = "2015-10-24 10:08:12 +0000";
layers = (
{
layerId = "CD587521-C2B1-4DF5-9394-E26F9987D7DC";
name = "SemiBold Italic";
paths = (
{
closed = 1;
nodes = (
"448 -10 OFFCURVE",
"533 17 OFFCURVE",
"585 47 CURVE",
"653 366 LINE",
"379 366 LINE",
"358 265 LINE",
"497 265 LINE",
"471 143 LINE",
"443 133 OFFCURVE",
"398 127 OFFCURVE",
"359 127 CURVE SMOOTH",
"230 127 OFFCURVE",
"192 179 OFFCURVE",
"221 313 CURVE SMOOTH",
"251 452 OFFCURVE",
"330 516 OFFCURVE",
"467 516 CURVE SMOOTH",
"532 516 OFFCURVE",
"590 509 OFFCURVE",
"642 488 CURVE",
"672 626 LINE",
"619 645 OFFCURVE",
"560 654 OFFCURVE",
"481 654 CURVE SMOOTH",
"242 654 OFFCURVE",
"103 528 OFFCURVE",
"57 313 CURVE SMOOTH",
"13 108 OFFCURVE",
"119 -10 OFFCURVE",
"329 -10 CURVE SMOOTH"
);
},
{
closed = 1;
nodes = (
"301 -250 LINE",
"400 -37 LINE",
"271 -37 LINE",
"193 -250 LINE"
);
}
);
width = 647;
}
);
leftKerningGroup = G;
note = Gcommaaccent;
unicode = 0122;
},
{
glyphname = Gdotaccent;
lastChange = "2015-10-24 10:08:12 +0000";
layers = (
{
layerId = "CD587521-C2B1-4DF5-9394-E26F9987D7DC";
name = "SemiBold Italic";
paths = (
{
closed = 1;
nodes = (
"448 -10 OFFCURVE",
"533 17 OFFCURVE",
"585 47 CURVE",
"653 366 LINE",
"379 366 LINE",
"358 265 LINE",
"497 265 LINE",
"471 143 LINE",
"443 133 OFFCURVE",
"398 127 OFFCURVE",
"359 127 CURVE SMOOTH",
"230 127 OFFCURVE",
"192 179 OFFCURVE",
"221 313 CURVE SMOOTH",
"251 452 OFFCURVE",
"330 516 OFFCURVE",
"467 516 CURVE SMOOTH",
"532 516 OFFCURVE",
"590 509 OFFCURVE",
"642 488 CURVE",
"672 626 LINE",
"619 645 OFFCURVE",
"560 654 OFFCURVE",
"481 654 CURVE SMOOTH",
"242 654 OFFCURVE",
"103 528 OFFCURVE",
"57 313 CURVE SMOOTH",
"13 108 OFFCURVE",
"119 -10 OFFCURVE",
"329 -10 CURVE SMOOTH"
);
},
{
closed = 1;
nodes = (
"548 714 LINE",
"572 823 LINE",
"455 823 LINE",
"431 714 LINE"
);
}
);
width = 647;
}
);
leftKerningGroup = G;
note = Gdotaccent;
unicode = 0120;
},
{
glyphname = Gmacron;
lastChange = "2015-10-24 10:08:12 +0000";
layers = (
{
layerId = "CD587521-C2B1-4DF5-9394-E26F9987D7DC";
name = "SemiBold Italic";
paths = (
{
closed = 1;
nodes = (
"448 -10 OFFCURVE",
"533 17 OFFCURVE",
"585 47 CURVE",
"653 366 LINE",
"379 366 LINE",
"358 265 LINE",
"497 265 LINE",
"471 143 LINE",
"443 133 OFFCURVE",
"398 127 OFFCURVE",
"359 127 CURVE SMOOTH",
"230 127 OFFCURVE",
"192 179 OFFCURVE",
"221 313 CURVE SMOOTH",
"251 452 OFFCURVE",
"330 516 OFFCURVE",
"467 516 CURVE SMOOTH",
"532 516 OFFCURVE",
"590 509 OFFCURVE",
"642 488 CURVE",
"672 626 LINE",
"619 645 OFFCURVE",
"560 654 OFFCURVE",
"481 654 CURVE SMOOTH",
"242 654 OFFCURVE",
"103 528 OFFCURVE",
"57 313 CURVE SMOOTH",
"13 108 OFFCURVE",
"119 -10 OFFCURVE",
"329 -10 CURVE SMOOTH"
);
},
{
closed = 1;
nodes = (
"644 717 LINE",
"665 814 LINE",
"348 814 LINE",
"327 717 LINE"
);
}
);
width = 647;
}
);
leftKerningGroup = G;
note = Gmacron;
unicode = 1E20;
},
{
glyphname = H;
lastChange = "2015-10-24 10:08:12 +0000";
layers = (
{
layerId = "CD587521-C2B1-4DF5-9394-E26F9987D7DC";
name = "SemiBold Italic";
paths = (
{
closed = 1;
nodes = (
"172 0 LINE",
"226 255 LINE",
"478 255 LINE",
"424 0 LINE",
"585 0 LINE",
"721 644 LINE",
"560 644 LINE",
"506 389 LINE",
"254 389 LINE",
"308 644 LINE",
"147 644 LINE",
"11 0 LINE"
);
}
);
width = 676;
}
);
note = H;
unicode = 0048;
},
{
glyphname = Hbar;
lastChange = "2015-10-24 10:08:12 +0000";
layers = (
{
layerId = "CD587521-C2B1-4DF5-9394-E26F9987D7DC";
name = "SemiBold Italic";
paths = (
{
closed = 1;
nodes = (
"172 0 LINE",
"226 255 LINE",
"478 255 LINE",
"424 0 LINE",
"585 0 LINE",
"681 454 LINE",
"722 454 LINE",
"746 569 LINE",
"705 569 LINE",
"721 644 LINE",
"560 644 LINE",
"544 569 LINE",
"292 569 LINE",
"308 644 LINE",
"147 644 LINE",
"131 569 LINE",
"90 569 LINE",
"66 454 LINE",
"107 454 LINE",
"11 0 LINE"
);
},
{
closed = 1;
nodes = (
"268 454 LINE",
"520 454 LINE",
"506 389 LINE",
"254 389 LINE"
);
}
);
width = 677;
}
);
note = Hbar;
unicode = 0126;
},
{
glyphname = Hbrevebelow;
lastChange = "2015-10-24 10:08:11 +0000";
layers = (
{
layerId = "CD587521-C2B1-4DF5-9394-E26F9987D7DC";
name = "SemiBold Italic";
paths = (
{
closed = 1;
nodes = (
"172 0 LINE",
"226 255 LINE",
"478 255 LINE",
"424 0 LINE",
"585 0 LINE",
"721 644 LINE",
"560 644 LINE",
"506 389 LINE",
"254 389 LINE",
"308 644 LINE",
"147 644 LINE",
"11 0 LINE"
);
},
{
closed = 1;
nodes = (
"361 -227 OFFCURVE",
"436 -165 OFFCURVE",
"460 -55 CURVE",
"348 -55 LINE",
"338 -101 OFFCURVE",
"311 -137 OFFCURVE",
"262 -137 CURVE SMOOTH",
"214 -137 OFFCURVE",
"198 -113 OFFCURVE",
"213 -55 CURVE",
"113 -55 LINE",
"89 -165 OFFCURVE",
"146 -227 OFFCURVE",
"249 -227 CURVE SMOOTH"
);
}
);
width = 676;
}
);
note = Hbrevebelow;
unicode = 1E2A;
},
{
glyphname = Hcircumflex;
lastChange = "2015-10-24 10:08:13 +0000";
layers = (
{
layerId = "CD587521-C2B1-4DF5-9394-E26F9987D7DC";
name = "SemiBold Italic";
paths = (
{
closed = 1;
nodes = (
"172 0 LINE",
"226 255 LINE",
"478 255 LINE",
"424 0 LINE",
"585 0 LINE",
"721 644 LINE",
"560 644 LINE",
"506 389 LINE",
"254 389 LINE",
"308 644 LINE",
"147 644 LINE",
"11 0 LINE"
);
},
{
closed = 1;
nodes = (
"376 687 LINE",
"470 791 LINE",
"523 687 LINE",
"637 687 LINE",
"532 874 LINE",
"432 874 LINE",
"248 687 LINE"
);
}
);
width = 676;
}
);
note = Hcircumflex;
unicode = 0124;
},
{
glyphname = Hdotbelow;
lastChange = "2015-10-24 10:08:12 +0000";
layers = (
{
layerId = "CD587521-C2B1-4DF5-9394-E26F9987D7DC";
name = "SemiBold Italic";
paths = (
{
closed = 1;
nodes = (
"172 0 LINE",
"226 255 LINE",
"478 255 LINE",
"424 0 LINE",
"585 0 LINE",
"721 644 LINE",
"560 644 LINE",
"506 389 LINE",
"254 389 LINE",
"308 644 LINE",
"147 644 LINE",
"11 0 LINE"
);
},
{
closed = 1;
nodes = (
"317 -189 LINE",
"340 -80 LINE",
"222 -80 LINE",
"199 -189 LINE"
);
}
);
width = 676;
}
);
note = Hdotbelow;
unicode = 1E24;
},
{
glyphname = I;
lastChange = "2015-10-24 10:08:11 +0000";
layers = (
{
layerId = "CD587521-C2B1-4DF5-9394-E26F9987D7DC";
name = "SemiBold Italic";
paths = (
{
closed = 1;
nodes = (
"172 0 LINE",
"308 644 LINE",
"147 644 LINE",
"11 0 LINE"
);
}
);
width = 263;
}
);
note = I;
unicode = 0049;
},
{
glyphname = IJ;
lastChange = "2015-10-24 10:08:12 +0000";
layers = (
{
layerId = "CD587521-C2B1-4DF5-9394-E26F9987D7DC";
name = "SemiBold Italic";
paths = (
{
closed = 1;
nodes = (
"539 -10 OFFCURVE",
"622 64 OFFCURVE",
"651 199 CURVE SMOOTH",
"745 644 LINE",
"584 644 LINE",
"496 229 LINE SMOOTH",
"481 156 OFFCURVE",
"455 127 OFFCURVE",
"366 127 CURVE SMOOTH",
"325 127 OFFCURVE",
"285 134 OFFCURVE",
"256 148 CURVE",
"227 13 LINE",
"267 -3 OFFCURVE",
"315 -10 OFFCURVE",
"370 -10 CURVE SMOOTH"
);
},
{
closed = 1;
nodes = (
"172 0 LINE",
"308 644 LINE",
"147 644 LINE",
"11 0 LINE"
);
}
);
width = 696;
}
);
note = IJ;
unicode = 0132;
},
{
glyphname = Iacute;
lastChange = "2015-10-24 10:08:12 +0000";
layers = (
{
layerId = "CD587521-C2B1-4DF5-9394-E26F9987D7DC";
name = "SemiBold Italic";
paths = (
{
closed = 1;
nodes = (
"172 0 LINE",
"308 644 LINE",
"147 644 LINE",
"11 0 LINE"
);
},
{
closed = 1;
nodes = (
"297 688 LINE",
"431 884 LINE",
"299 884 LINE",
"173 688 LINE"
);
}
);
width = 264;
}
);
note = Iacute;
unicode = 00CD;
},
{
glyphname = Ibreve;
lastChange = "2015-10-24 10:08:13 +0000";
layers = (
{
layerId = "CD587521-C2B1-4DF5-9394-E26F9987D7DC";
name = "SemiBold Italic";
paths = (
{
closed = 1;
nodes = (
"172 0 LINE",
"308 644 LINE",
"147 644 LINE",
"11 0 LINE"
);
},
{
closed = 1;
nodes = (
"353 705 OFFCURVE",
"428 767 OFFCURVE",
"451 877 CURVE",
"339 877 LINE",
"330 831 OFFCURVE",
"302 795 OFFCURVE",
"253 795 CURVE SMOOTH",
"201 795 OFFCURVE",
"192 826 OFFCURVE",
"203 877 CURVE",
"104 877 LINE",
"81 767 OFFCURVE",
"138 705 OFFCURVE",
"240 705 CURVE SMOOTH"
);
}
);
width = 264;
}
);
note = Ibreve;
unicode = 012C;
},
{
glyphname = Icaron;
lastChange = "2015-10-24 10:08:13 +0000";
layers = (
{
layerId = "CD587521-C2B1-4DF5-9394-E26F9987D7DC";
name = "SemiBold Italic";
paths = (
{
closed = 1;
nodes = (
"172 0 LINE",
"308 644 LINE",
"147 644 LINE",
"11 0 LINE"
);
},
{
closed = 1;
nodes = (
"286 688 LINE",
"471 875 LINE",
"345 875 LINE",
"248 771 LINE",
"198 875 LINE",
"82 875 LINE",
"186 688 LINE"
);
}
);
width = 264;
}
);
note = Icaron;
unicode = 01CF;
},
{
glyphname = Icircumflex;
lastChange = "2015-10-24 10:08:11 +0000";
layers = (
{
layerId = "CD587521-C2B1-4DF5-9394-E26F9987D7DC";
name = "SemiBold Italic";
paths = (
{
closed = 1;
nodes = (
"172 0 LINE",
"308 644 LINE",
"147 644 LINE",
"11 0 LINE"
);
},
{
closed = 1;
nodes = (
"170 687 LINE",
"264 791 LINE",
"317 687 LINE",
"431 687 LINE",
"326 874 LINE",
"226 874 LINE",
"42 687 LINE"
);
}
);
width = 264;
}
);
note = Icircumflex;
unicode = 00CE;
},
{
glyphname = Idieresis;
lastChange = "2015-10-24 10:08:12 +0000";
layers = (
{
layerId = "CD587521-C2B1-4DF5-9394-E26F9987D7DC";
name = "SemiBold Italic";
paths = (
{
closed = 1;
nodes = (
"172 0 LINE",
"308 644 LINE",
"147 644 LINE",
"11 0 LINE"
);
},
{
closed = 1;
nodes = (
"200 720 LINE",
"224 829 LINE",
"107 829 LINE",
"83 720 LINE"
);
},
{
closed = 1;
nodes = (
"406 720 LINE",
"430 829 LINE",
"312 829 LINE",
"288 720 LINE"
);
}
);
width = 263;
}
);
note = Idieresis;
unicode = 00CF;
},
{
glyphname = Idotaccent;
lastChange = "2015-10-24 10:08:12 +0000";
layers = (
{
layerId = "CD587521-C2B1-4DF5-9394-E26F9987D7DC";
name = "SemiBold Italic";
paths = (
{
closed = 1;
nodes = (
"172 0 LINE",
"308 644 LINE",
"147 644 LINE",
"11 0 LINE"
);
},
{
closed = 1;
nodes = (
"302 720 LINE",
"326 829 LINE",
"209 829 LINE",
"185 720 LINE"
);
}
);
width = 263;
}
);
note = Idotaccent;
unicode = 0130;
},
{
glyphname = Idotbelow;
lastChange = "2015-10-24 10:08:13 +0000";
layers = (
{
layerId = "CD587521-C2B1-4DF5-9394-E26F9987D7DC";
name = "SemiBold Italic";
paths = (
{
closed = 1;
nodes = (
"172 0 LINE",
"308 644 LINE",
"147 644 LINE",
"11 0 LINE"
);
},
{
closed = 1;
nodes = (
"112 -179 LINE",
"135 -70 LINE",
"17 -70 LINE",
"-6 -179 LINE"
);
}
);
width = 263;
}
);
note = Idotbelow;
unicode = 1ECA;
},
{
glyphname = Igrave;
lastChange = "2015-10-24 10:08:11 +0000";
layers = (
{
layerId = "CD587521-C2B1-4DF5-9394-E26F9987D7DC";
name = "SemiBold Italic";
paths = (
{
closed = 1;
nodes = (
"172 0 LINE",
"308 644 LINE",
"147 644 LINE",
"11 0 LINE"
);
},
{
closed = 1;
nodes = (
"300 688 LINE",
"258 884 LINE",
"126 884 LINE",
"177 688 LINE"
);
}
);
width = 263;
}
);
note = Igrave;
unicode = 00CC;
},
{
glyphname = Ihookabove;
lastChange = "2015-10-24 10:08:12 +0000";
layers = (
{
layerId = "CD587521-C2B1-4DF5-9394-E26F9987D7DC";
name = "SemiBold Italic";
paths = (
{
closed = 1;
nodes = (
"172 0 LINE",
"308 644 LINE",
"147 644 LINE",
"11 0 LINE"
);
},
{
closed = 1;
nodes = (
"295 688 LINE",
"304 732 LINE",
"366 746 OFFCURVE",
"397 772 OFFCURVE",
"410 829 CURVE SMOOTH",
"422 888 OFFCURVE",
"383 928 OFFCURVE",
"295 928 CURVE SMOOTH",
"252 928 OFFCURVE",
"213 923 OFFCURVE",
"185 914 CURVE",
"169 842 LINE",
"186 847 OFFCURVE",
"212 851 OFFCURVE",
"231 851 CURVE SMOOTH",
"272 851 OFFCURVE",
"294 840 OFFCURVE",
"289 815 CURVE SMOOTH",
"283 788 OFFCURVE",
"262 773 OFFCURVE",
"190 769 CURVE",
"173 688 LINE"
);
}
);
width = 264;
}
);
note = Ihookabove;
unicode = 1EC8;
},
{
glyphname = Imacron;
lastChange = "2015-10-24 10:08:12 +0000";
layers = (
{
layerId = "CD587521-C2B1-4DF5-9394-E26F9987D7DC";
name = "SemiBold Italic";
paths = (
{
closed = 1;
nodes = (
"172 0 LINE",
"308 644 LINE",
"147 644 LINE",
"11 0 LINE"
);
},
{
closed = 1;
nodes = (
"404 723 LINE",
"425 820 LINE",
"107 820 LINE",
"86 723 LINE"
);
}
);
width = 264;
}
);
note = Imacron;
unicode = 012A;
},
{
glyphname = Iogonek;
lastChange = "2015-10-24 10:08:12 +0000";
layers = (
{
layerId = "CD587521-C2B1-4DF5-9394-E26F9987D7DC";
name = "SemiBold Italic";
paths = (
{
closed = 1;
nodes = (
"78 -220 OFFCURVE",
"116 -213 OFFCURVE",
"137 -205 CURVE",
"154 -124 LINE",
"141 -131 OFFCURVE",
"119 -135 OFFCURVE",
"102 -135 CURVE SMOOTH",
"76 -135 OFFCURVE",
"61 -124 OFFCURVE",
"67 -97 CURVE SMOOTH",
"75 -61 OFFCURVE",
"107 -28 OFFCURVE",
"150 0 CURVE",
"172 0 LINE",
"308 644 LINE",
"147 644 LINE",
"11 0 LINE",
"37 0 LINE",
"-14 -30 OFFCURVE",
"-52 -76 OFFCURVE",
"-62 -126 CURVE SMOOTH",
"-76 -191 OFFCURVE",
"-27 -220 OFFCURVE",
"41 -220 CURVE SMOOTH"
);
}
);
width = 264;
}
);
note = Iogonek;
unicode = 012E;
},
{
glyphname = Itilde;
lastChange = "2015-10-24 10:08:11 +0000";
layers = (
{
layerId = "CD587521-C2B1-4DF5-9394-E26F9987D7DC";
name = "SemiBold Italic";
paths = (
{
closed = 1;
nodes = (
"172 0 LINE",
"308 644 LINE",
"147 644 LINE",
"11 0 LINE"
);
},
{
closed = 1;
nodes = (
"369 705 OFFCURVE",
"405 719 OFFCURVE",
"422 737 CURVE",
"445 845 LINE",
"423 821 OFFCURVE",
"390 806 OFFCURVE",
"350 806 CURVE SMOOTH",
"291 806 OFFCURVE",
"252 847 OFFCURVE",
"188 847 CURVE SMOOTH",
"151 847 OFFCURVE",
"113 833 OFFCURVE",
"90 815 CURVE",
"67 708 LINE",
"96 732 OFFCURVE",
"130 746 OFFCURVE",
"169 746 CURVE SMOOTH",
"221 746 OFFCURVE",
"269 705 OFFCURVE",
"331 705 CURVE SMOOTH"
);
}
);
width = 264;
}
);
note = Itilde;
unicode = 0128;
},
{
glyphname = J;
lastChange = "2015-10-24 10:08:12 +0000";
layers = (
{
layerId = "CD587521-C2B1-4DF5-9394-E26F9987D7DC";
name = "SemiBold Italic";
paths = (
{
closed = 1;
nodes = (
"285 -10 OFFCURVE",
"368 64 OFFCURVE",
"397 199 CURVE SMOOTH",
"491 644 LINE",
"330 644 LINE",
"242 229 LINE SMOOTH",
"227 156 OFFCURVE",
"201 127 OFFCURVE",
"112 127 CURVE SMOOTH",
"71 127 OFFCURVE",
"31 134 OFFCURVE",
"2 148 CURVE",
"-27 13 LINE",
"13 -3 OFFCURVE",
"61 -10 OFFCURVE",
"116 -10 CURVE SMOOTH"
);
}
);
width = 441;
}
);
note = J;
unicode = 004A;
},
{
glyphname = Jcircumflex;
lastChange = "2015-10-24 10:08:11 +0000";
layers = (
{
layerId = "CD587521-C2B1-4DF5-9394-E26F9987D7DC";
name = "SemiBold Italic";
paths = (
{
closed = 1;
nodes = (
"285 -10 OFFCURVE",
"368 64 OFFCURVE",
"397 199 CURVE SMOOTH",
"491 644 LINE",
"330 644 LINE",
"242 229 LINE SMOOTH",
"227 156 OFFCURVE",
"201 127 OFFCURVE",
"112 127 CURVE SMOOTH",
"71 127 OFFCURVE",
"31 134 OFFCURVE",
"2 148 CURVE",
"-27 13 LINE",
"13 -3 OFFCURVE",
"61 -10 OFFCURVE",
"116 -10 CURVE SMOOTH"
);
},
{
closed = 1;
nodes = (
"348 687 LINE",
"442 791 LINE",
"495 687 LINE",
"609 687 LINE",
"504 874 LINE",
"404 874 LINE",
"220 687 LINE"
);
}
);
width = 441;
}
);
note = Jcircumflex;
unicode = 0134;
},
{
glyphname = K;
lastChange = "2015-10-24 10:08:13 +0000";
layers = (
{
layerId = "CD587521-C2B1-4DF5-9394-E26F9987D7DC";
name = "SemiBold Italic";
paths = (
{
closed = 1;
nodes = (
"172 0 LINE",
"213 195 LINE",
"307 278 LINE",
"420 0 LINE",
"592 0 LINE",
"428 381 LINE",
"714 644 LINE",
"530 644 LINE",
"255 394 LINE",
"308 644 LINE",
"147 644 LINE",
"11 0 LINE"
);
}
);
width = 663;
}
);
leftKerningGroup = K;
note = K;
rightKerningGroup = K;
unicode = 004B;
},
{
glyphname = Kcommaaccent;
lastChange = "2015-10-24 10:08:12 +0000";
layers = (
{
layerId = "CD587521-C2B1-4DF5-9394-E26F9987D7DC";
name = "SemiBold Italic";
paths = (
{
closed = 1;
nodes = (
"172 0 LINE",
"213 195 LINE",
"307 278 LINE",
"420 0 LINE",
"592 0 LINE",
"428 381 LINE",
"714 644 LINE",
"530 644 LINE",
"255 394 LINE",
"308 644 LINE",
"147 644 LINE",
"11 0 LINE"
);
},
{
closed = 1;
nodes = (
"254 -250 LINE",
"353 -37 LINE",
"224 -37 LINE",
"146 -250 LINE"
);
}
);
width = 663;
}
);
leftKerningGroup = K;
note = Kcommaaccent;
rightKerningGroup = K;
unicode = 0136;
},
{
glyphname = L;
lastChange = "2015-10-24 10:08:12 +0000";
layers = (
{
layerId = "CD587521-C2B1-4DF5-9394-E26F9987D7DC";
name = "SemiBold Italic";
paths = (
{
closed = 1;
nodes = (
"476 0 LINE",
"502 124 LINE",
"198 124 LINE",
"308 644 LINE",
"147 644 LINE",
"11 0 LINE"
);
}
);
width = 527;
}
);
note = L;
rightKerningGroup = L;
unicode = 004C;
},
{
glyphname = Lacute;
lastChange = "2015-10-24 10:08:12 +0000";
layers = (
{
layerId = "CD587521-C2B1-4DF5-9394-E26F9987D7DC";
name = "SemiBold Italic";
paths = (
{
closed = 1;
nodes = (
"476 0 LINE",
"502 124 LINE",
"198 124 LINE",
"308 644 LINE",
"147 644 LINE",
"11 0 LINE"
);
},
{
closed = 1;
nodes = (
"298 688 LINE",
"432 884 LINE",
"300 884 LINE",
"174 688 LINE"
);
}
);
width = 527;
}
);
note = Lacute;
rightKerningGroup = L;
unicode = 0139;
},
{
glyphname = Lcaron;
lastChange = "2015-10-24 10:08:12 +0000";
layers = (
{
layerId = "CD587521-C2B1-4DF5-9394-E26F9987D7DC";
name = "SemiBold Italic";
paths = (
{
closed = 1;
nodes = (
"476 0 LINE",
"502 124 LINE",
"198 124 LINE",
"308 644 LINE",
"147 644 LINE",
"11 0 LINE"
);
},
{
closed = 1;
nodes = (
"500 595 LINE",
"599 808 LINE",
"470 808 LINE",
"392 595 LINE"
);
}
);
width = 527;
}
);
note = Lcaron;
rightKerningGroup = L;
unicode = 013D;
},
{
glyphname = Lcommaaccent;
lastChange = "2015-10-24 10:08:13 +0000";
layers = (
{
layerId = "CD587521-C2B1-4DF5-9394-E26F9987D7DC";
name = "SemiBold Italic";
paths = (
{
closed = 1;
nodes = (
"476 0 LINE",
"502 124 LINE",
"198 124 LINE",
"308 644 LINE",
"147 644 LINE",
"11 0 LINE"
);
},
{
closed = 1;
nodes = (
"217 -250 LINE",
"316 -37 LINE",
"187 -37 LINE",
"109 -250 LINE"
);
}
);
width = 527;
}
);
note = Lcommaaccent;
rightKerningGroup = L;
unicode = 013B;
},
{
glyphname = Ldot;
lastChange = "2015-10-24 10:08:12 +0000";
layers = (
{
layerId = "CD587521-C2B1-4DF5-9394-E26F9987D7DC";
name = "SemiBold Italic";
paths = (
{
closed = 1;
nodes = (
"476 0 LINE",
"502 124 LINE",
"198 124 LINE",
"308 644 LINE",
"147 644 LINE",
"11 0 LINE"
);
},
{
closed = 1;
nodes = (
"473 284 LINE",
"497 393 LINE",
"379 393 LINE",
"355 284 LINE"
);
}
);
width = 527;
}
);
note = Ldot;
rightKerningGroup = L;
unicode = 013F;
},
{
glyphname = Ldotbelow;
lastChange = "2015-10-24 10:08:12 +0000";
layers = (
{
layerId = "CD587521-C2B1-4DF5-9394-E26F9987D7DC";
name = "SemiBold Italic";
paths = (
{
closed = 1;
nodes = (
"476 0 LINE",
"502 124 LINE",
"198 124 LINE",
"308 644 LINE",
"147 644 LINE",
"11 0 LINE"
);
},
{
closed = 1;
nodes = (
"257 -179 LINE",
"280 -70 LINE",
"162 -70 LINE",
"139 -179 LINE"
);
}
);
width = 527;
}
);
note = Ldotbelow;
rightKerningGroup = L;
unicode = 1E36;
},
{
glyphname = Ldotbelowmacron;
lastChange = "2015-10-24 10:08:12 +0000";
layers = (
{
layerId = "CD587521-C2B1-4DF5-9394-E26F9987D7DC";
name = "SemiBold Italic";
paths = (
{
closed = 1;
nodes = (
"484 0 LINE",
"510 124 LINE",
"206 124 LINE",
"316 644 LINE",
"155 644 LINE",
"19 0 LINE"
);
},
{
closed = 1;
nodes = (
"265 -179 LINE",
"288 -70 LINE",
"170 -70 LINE",
"147 -179 LINE"
);
},
{
closed = 1;
nodes = (
"419 717 LINE",
"440 814 LINE",
"123 814 LINE",
"102 717 LINE"
);
}
);
width = 535;
}
);
note = Ldotbelowmacron;
rightKerningGroup = L;
unicode = 1E38;
},
{
glyphname = Llinebelow;
lastChange = "2015-10-24 10:08:12 +0000";
layers = (
{
layerId = "CD587521-C2B1-4DF5-9394-E26F9987D7DC";
name = "SemiBold Italic";
paths = (
{
closed = 1;
nodes = (
"476 0 LINE",
"502 124 LINE",
"198 124 LINE",
"308 644 LINE",
"147 644 LINE",
"11 0 LINE"
);
},
{
closed = 1;
nodes = (
"361 -168 LINE",
"382 -70 LINE",
"65 -70 LINE",
"44 -168 LINE"
);
}
);
width = 527;
}
);
note = Llinebelow;
rightKerningGroup = L;
unicode = 1E3A;
},
{
glyphname = Lslash;
lastChange = "2015-10-24 10:08:12 +0000";
layers = (
{
layerId = "CD587521-C2B1-4DF5-9394-E26F9987D7DC";
name = "SemiBold Italic";
paths = (
{
closed = 1;
nodes = (
"476 0 LINE",
"502 124 LINE",
"198 124 LINE",
"239 320 LINE",
"355 366 LINE",
"380 481 LINE",
"263 434 LINE",
"308 644 LINE",
"147 644 LINE",
"87 364 LINE",
"3 330 LINE",
"-22 215 LINE",
"63 249 LINE",
"11 0 LINE"
);
}
);
width = 527;
}
);
note = Lslash;
rightKerningGroup = L;
unicode = 0141;
},
{
glyphname = M;
lastChange = "2015-10-24 10:08:12 +0000";
layers = (
{
layerId = "CD587521-C2B1-4DF5-9394-E26F9987D7DC";
name = "SemiBold Italic";
paths = (
{
closed = 1;
nodes = (
"172 0 LINE",
"250 370 LINE",
"323 110 LINE",
"412 110 LINE",
"594 370 LINE",
"516 0 LINE",
"677 0 LINE",
"813 644 LINE",
"649 644 LINE",
"400 287 LINE",
"300 644 LINE",
"147 644 LINE",
"11 0 LINE"
);
}
);
width = 768;
}
);
note = M;
unicode = 004D;
},
{
glyphname = Mdotbelow;
lastChange = "2015-10-24 10:08:12 +0000";
layers = (
{
layerId = "CD587521-C2B1-4DF5-9394-E26F9987D7DC";
name = "SemiBold Italic";
paths = (
{
closed = 1;
nodes = (
"172 0 LINE",
"250 370 LINE",
"323 110 LINE",
"412 110 LINE",
"594 370 LINE",
"516 0 LINE",
"677 0 LINE",
"813 644 LINE",
"649 644 LINE",
"400 287 LINE",
"300 644 LINE",
"147 644 LINE",
"11 0 LINE"
);
},
{
closed = 1;
nodes = (
"372 -179 LINE",
"395 -70 LINE",
"277 -70 LINE",
"254 -179 LINE"
);
}
);
width = 768;
}
);
note = Mdotbelow;
unicode = 1E42;
},
{
glyphname = N;
lastChange = "2015-10-24 10:08:12 +0000";
layers = (
{
layerId = "CD587521-C2B1-4DF5-9394-E26F9987D7DC";
name = "SemiBold Italic";
paths = (
{
closed = 1;
nodes = (
"172 0 LINE",
"253 384 LINE",
"446 0 LINE",
"585 0 LINE",
"721 644 LINE",
"559 644 LINE",
"478 259 LINE",
"285 644 LINE",
"147 644 LINE",
"11 0 LINE"
);
}
);
width = 676;
}
);
note = N;
unicode = 004E;
},
{
glyphname = Nacute;
lastChange = "2015-10-24 10:08:12 +0000";
layers = (
{
layerId = "CD587521-C2B1-4DF5-9394-E26F9987D7DC";
name = "SemiBold Italic";
paths = (
{
closed = 1;
nodes = (
"172 0 LINE",
"253 384 LINE",
"446 0 LINE",
"585 0 LINE",
"721 644 LINE",
"559 644 LINE",
"478 259 LINE",
"285 644 LINE",
"147 644 LINE",
"11 0 LINE"
);
},
{
closed = 1;
nodes = (
"489 688 LINE",
"623 884 LINE",
"491 884 LINE",
"365 688 LINE"
);
}
);
width = 676;
}
);
note = Nacute;
unicode = 0143;
},
{
glyphname = Ncaron;
lastChange = "2015-10-24 10:08:12 +0000";
layers = (
{
layerId = "CD587521-C2B1-4DF5-9394-E26F9987D7DC";
name = "SemiBold Italic";
paths = (
{
closed = 1;
nodes = (
"172 0 LINE",
"253 384 LINE",
"446 0 LINE",
"585 0 LINE",
"721 644 LINE",
"559 644 LINE",
"478 259 LINE",
"285 644 LINE",
"147 644 LINE",
"11 0 LINE"
);
},
{
closed = 1;
nodes = (
"493 687 LINE",
"678 874 LINE",
"552 874 LINE",
"455 770 LINE",
"405 874 LINE",
"289 874 LINE",
"393 687 LINE"
);
}
);
width = 676;
}
);
note = Ncaron;
unicode = 0147;
},
{
glyphname = Ncommaaccent;
lastChange = "2015-10-24 10:08:12 +0000";
layers = (
{
layerId = "CD587521-C2B1-4DF5-9394-E26F9987D7DC";
name = "SemiBold Italic";
paths = (
{
closed = 1;
nodes = (
"172 0 LINE",
"253 384 LINE",
"446 0 LINE",
"585 0 LINE",
"721 644 LINE",
"559 644 LINE",
"478 259 LINE",
"285 644 LINE",
"147 644 LINE",
"11 0 LINE"
);
},
{
closed = 1;
nodes = (
"265 -250 LINE",
"364 -37 LINE",
"235 -37 LINE",
"157 -250 LINE"
);
}
);
width = 676;
}
);
note = Ncommaaccent;
unicode = 0145;
},
{
glyphname = Ndotaccent;
lastChange = "2015-10-24 10:08:12 +0000";
layers = (
{
layerId = "CD587521-C2B1-4DF5-9394-E26F9987D7DC";
name = "SemiBold Italic";
paths = (
{
closed = 1;
nodes = (
"172 0 LINE",
"253 384 LINE",
"446 0 LINE",
"585 0 LINE",
"721 644 LINE",
"559 644 LINE",
"478 259 LINE",
"285 644 LINE",
"147 644 LINE",
"11 0 LINE"
);
},
{
closed = 1;
nodes = (
"509 714 LINE",
"533 823 LINE",
"416 823 LINE",
"392 714 LINE"
);
}
);
width = 676;
}
);
note = Ndotaccent;
unicode = 1E44;
},
{
glyphname = Ndotbelow;
lastChange = "2015-10-24 10:08:12 +0000";
layers = (
{
layerId = "CD587521-C2B1-4DF5-9394-E26F9987D7DC";
name = "SemiBold Italic";
paths = (
{
closed = 1;
nodes = (
"172 0 LINE",
"253 384 LINE",
"446 0 LINE",
"585 0 LINE",
"721 644 LINE",
"559 644 LINE",
"478 259 LINE",
"285 644 LINE",
"147 644 LINE",
"11 0 LINE"
);
},
{
closed = 1;
nodes = (
"320 -179 LINE",
"343 -70 LINE",
"225 -70 LINE",
"202 -179 LINE"
);
}
);
width = 676;
}
);
note = Ndotbelow;
unicode = 1E46;
},
{
glyphname = Eng;
lastChange = "2015-10-24 10:08:11 +0000";
layers = (
{
layerId = "CD587521-C2B1-4DF5-9394-E26F9987D7DC";
name = "SemiBold Italic";
paths = (
{
closed = 1;
nodes = (
"480 -234 OFFCURVE",
"549 -167 OFFCURVE",
"570 -69 CURVE SMOOTH",
"721 644 LINE",
"559 644 LINE",
"478 259 LINE",
"285 644 LINE",
"147 644 LINE",
"11 0 LINE",
"172 0 LINE",
"253 384 LINE",
"429 32 LINE",
"411 -55 LINE SMOOTH",
"402 -97 OFFCURVE",
"377 -117 OFFCURVE",
"328 -117 CURVE SMOOTH",
"310 -117 OFFCURVE",
"289 -114 OFFCURVE",
"270 -107 CURVE",
"247 -214 LINE",
"277 -228 OFFCURVE",
"314 -234 OFFCURVE",
"361 -234 CURVE SMOOTH"
);
}
);
width = 676;
}
);
note = Eng;
unicode = 014A;
},
{
glyphname = Nlinebelow;
lastChange = "2015-10-24 10:08:13 +0000";
layers = (
{
layerId = "CD587521-C2B1-4DF5-9394-E26F9987D7DC";
name = "SemiBold Italic";
paths = (
{
closed = 1;
nodes = (
"172 0 LINE",
"253 384 LINE",
"446 0 LINE",
"585 0 LINE",
"721 644 LINE",
"559 644 LINE",
"478 259 LINE",
"285 644 LINE",
"147 644 LINE",
"11 0 LINE"
);
},
{
closed = 1;
nodes = (
"425 -166 LINE",
"446 -68 LINE",
"129 -68 LINE",
"108 -166 LINE"
);
}
);
width = 676;
}
);
note = Nlinebelow;
unicode = 1E48;
},
{
glyphname = Ntilde;
lastChange = "2015-10-24 10:08:12 +0000";
layers = (
{
layerId = "CD587521-C2B1-4DF5-9394-E26F9987D7DC";
name = "SemiBold Italic";
paths = (
{
closed = 1;
nodes = (
"172 0 LINE",
"253 384 LINE",
"446 0 LINE",
"585 0 LINE",
"721 644 LINE",
"559 644 LINE",
"478 259 LINE",
"285 644 LINE",
"147 644 LINE",
"11 0 LINE"
);
},
{
closed = 1;
nodes = (
"583 698 OFFCURVE",
"619 712 OFFCURVE",
"636 730 CURVE",
"659 838 LINE",
"637 814 OFFCURVE",
"604 799 OFFCURVE",
"564 799 CURVE SMOOTH",
"505 799 OFFCURVE",
"466 840 OFFCURVE",
"402 840 CURVE SMOOTH",
"365 840 OFFCURVE",
"327 826 OFFCURVE",
"304 808 CURVE",
"281 701 LINE",
"310 725 OFFCURVE",
"344 739 OFFCURVE",
"383 739 CURVE SMOOTH",
"435 739 OFFCURVE",
"483 698 OFFCURVE",
"545 698 CURVE SMOOTH"
);
}
);
width = 676;
}
);
note = Ntilde;
unicode = 00D1;
},
{
glyphname = O;
lastChange = "2015-10-24 10:08:12 +0000";
layers = (
{
layerId = "CD587521-C2B1-4DF5-9394-E26F9987D7DC";
name = "SemiBold Italic";
paths = (
{
closed = 1;
nodes = (
"528 -10 OFFCURVE",
"652 93 OFFCURVE",
"700 319 CURVE SMOOTH",
"749 550 OFFCURVE",
"643 654 OFFCURVE",
"451 654 CURVE SMOOTH",
"231 654 OFFCURVE",
"109 557 OFFCURVE",
"58 319 CURVE SMOOTH",
"10 97 OFFCURVE",
"117 -10 OFFCURVE",
"309 -10 CURVE SMOOTH"
);
},
{
closed = 1;
nodes = (
"217 127 OFFCURVE",
"194 180 OFFCURVE",
"222 319 CURVE SMOOTH",
"253 463 OFFCURVE",
"312 516 OFFCURVE",
"421 516 CURVE SMOOTH",
"539 516 OFFCURVE",
"567 469 OFFCURVE",
"535 319 CURVE SMOOTH",
"507 187 OFFCURVE",
"446 127 OFFCURVE",
"338 127 CURVE SMOOTH"
);
}
);
width = 704;
}
);
leftKerningGroup = O;
note = O;
rightKerningGroup = O;
unicode = 004F;
},
{
glyphname = Oacute;
lastChange = "2015-10-24 10:08:12 +0000";
layers = (
{
layerId = "CD587521-C2B1-4DF5-9394-E26F9987D7DC";
name = "SemiBold Italic";
paths = (
{
closed = 1;
nodes = (
"528 -10 OFFCURVE",
"652 93 OFFCURVE",
"700 319 CURVE SMOOTH",
"749 550 OFFCURVE",
"643 654 OFFCURVE",
"451 654 CURVE SMOOTH",
"231 654 OFFCURVE",
"109 557 OFFCURVE",
"58 319 CURVE SMOOTH",
"10 97 OFFCURVE",
"117 -10 OFFCURVE",
"309 -10 CURVE SMOOTH"
);
},
{
closed = 1;
nodes = (
"217 127 OFFCURVE",
"194 180 OFFCURVE",
"222 319 CURVE SMOOTH",
"253 463 OFFCURVE",
"312 516 OFFCURVE",
"421 516 CURVE SMOOTH",
"539 516 OFFCURVE",
"567 469 OFFCURVE",
"535 319 CURVE SMOOTH",
"507 187 OFFCURVE",
"446 127 OFFCURVE",
"338 127 CURVE SMOOTH"
);
},
{
closed = 1;
nodes = (
"509 688 LINE",
"643 884 LINE",
"511 884 LINE",
"385 688 LINE"
);
}
);
width = 704;
}
);
leftKerningGroup = O;
note = Oacute;
rightKerningGroup = O;
unicode = 00D3;
},
{
glyphname = Obreve;
lastChange = "2015-10-24 10:08:12 +0000";
layers = (
{
layerId = "CD587521-C2B1-4DF5-9394-E26F9987D7DC";
name = "SemiBold Italic";
paths = (
{
closed = 1;
nodes = (
"528 -10 OFFCURVE",
"652 93 OFFCURVE",
"700 319 CURVE SMOOTH",
"749 550 OFFCURVE",
"643 654 OFFCURVE",
"451 654 CURVE SMOOTH",
"231 654 OFFCURVE",
"109 557 OFFCURVE",
"58 319 CURVE SMOOTH",
"10 97 OFFCURVE",
"117 -10 OFFCURVE",
"309 -10 CURVE SMOOTH"
);
},
{
closed = 1;
nodes = (
"217 127 OFFCURVE",
"194 180 OFFCURVE",
"222 319 CURVE SMOOTH",
"253 463 OFFCURVE",
"312 516 OFFCURVE",
"421 516 CURVE SMOOTH",
"539 516 OFFCURVE",
"567 469 OFFCURVE",
"535 319 CURVE SMOOTH",
"507 187 OFFCURVE",
"446 127 OFFCURVE",
"338 127 CURVE SMOOTH"
);
},
{
closed = 1;
nodes = (
"569 688 OFFCURVE",
"644 750 OFFCURVE",
"667 860 CURVE",
"555 860 LINE",
"546 814 OFFCURVE",
"518 778 OFFCURVE",
"469 778 CURVE SMOOTH",
"417 778 OFFCURVE",
"408 809 OFFCURVE",
"419 860 CURVE",
"320 860 LINE",
"297 750 OFFCURVE",
"354 688 OFFCURVE",
"456 688 CURVE SMOOTH"
);
}
);
width = 704;
}
);
leftKerningGroup = O;
note = Obreve;
rightKerningGroup = O;
unicode = 014E;
},
{
glyphname = Ocaron;
lastChange = "2015-10-24 10:08:12 +0000";
layers = (
{
layerId = "CD587521-C2B1-4DF5-9394-E26F9987D7DC";
name = "SemiBold Italic";
paths = (
{
closed = 1;
nodes = (
"528 -10 OFFCURVE",
"652 93 OFFCURVE",
"700 319 CURVE SMOOTH",
"749 550 OFFCURVE",
"643 654 OFFCURVE",
"451 654 CURVE SMOOTH",
"231 654 OFFCURVE",
"109 557 OFFCURVE",
"58 319 CURVE SMOOTH",
"10 97 OFFCURVE",
"117 -10 OFFCURVE",
"309 -10 CURVE SMOOTH"
);
},
{
closed = 1;
nodes = (
"217 127 OFFCURVE",
"194 180 OFFCURVE",
"222 319 CURVE SMOOTH",
"253 463 OFFCURVE",
"312 516 OFFCURVE",
"421 516 CURVE SMOOTH",
"539 516 OFFCURVE",
"567 469 OFFCURVE",
"535 319 CURVE SMOOTH",
"507 187 OFFCURVE",
"446 127 OFFCURVE",
"338 127 CURVE SMOOTH"
);
},
{
closed = 1;
nodes = (
"506 688 LINE",
"691 875 LINE",
"565 875 LINE",
"468 771 LINE",
"418 875 LINE",
"302 875 LINE",
"406 688 LINE"
);
}
);
width = 704;
}
);
leftKerningGroup = O;
note = Ocaron;
rightKerningGroup = O;
unicode = 01D1;
},
{
glyphname = Ocircumflex;
lastChange = "2015-10-24 10:08:13 +0000";
layers = (
{
layerId = "CD587521-C2B1-4DF5-9394-E26F9987D7DC";
name = "SemiBold Italic";
paths = (
{
closed = 1;
nodes = (
"528 -10 OFFCURVE",
"652 93 OFFCURVE",
"700 319 CURVE SMOOTH",
"749 550 OFFCURVE",
"643 654 OFFCURVE",
"451 654 CURVE SMOOTH",
"231 654 OFFCURVE",
"109 557 OFFCURVE",
"58 319 CURVE SMOOTH",
"10 97 OFFCURVE",
"117 -10 OFFCURVE",
"309 -10 CURVE SMOOTH"
);
},
{
closed = 1;
nodes = (
"217 127 OFFCURVE",
"194 180 OFFCURVE",
"222 319 CURVE SMOOTH",
"253 463 OFFCURVE",
"312 516 OFFCURVE",
"421 516 CURVE SMOOTH",
"539 516 OFFCURVE",
"567 469 OFFCURVE",
"535 319 CURVE SMOOTH",
"507 187 OFFCURVE",
"446 127 OFFCURVE",
"338 127 CURVE SMOOTH"
);
},
{
closed = 1;
nodes = (
"391 687 LINE",
"485 791 LINE",
"538 687 LINE",
"652 687 LINE",
"547 874 LINE",
"447 874 LINE",
"263 687 LINE"
);
}
);
width = 704;
}
);
leftKerningGroup = O;
note = Ocircumflex;
rightKerningGroup = O;
unicode = 00D4;
},
{
glyphname = Ocircumflexacute;
lastChange = "2015-10-24 10:08:12 +0000";
layers = (
{
layerId = "CD587521-C2B1-4DF5-9394-E26F9987D7DC";
name = "SemiBold Italic";
paths = (
{
closed = 1;
nodes = (
"528 -10 OFFCURVE",
"652 93 OFFCURVE",
"700 319 CURVE SMOOTH",
"749 550 OFFCURVE",
"643 654 OFFCURVE",
"451 654 CURVE SMOOTH",
"231 654 OFFCURVE",
"109 557 OFFCURVE",
"58 319 CURVE SMOOTH",
"10 97 OFFCURVE",
"117 -10 OFFCURVE",
"309 -10 CURVE SMOOTH"
);
},
{
closed = 1;
nodes = (
"217 127 OFFCURVE",
"194 180 OFFCURVE",
"222 319 CURVE SMOOTH",
"253 463 OFFCURVE",
"312 516 OFFCURVE",
"421 516 CURVE SMOOTH",
"539 516 OFFCURVE",
"567 469 OFFCURVE",
"535 319 CURVE SMOOTH",
"507 187 OFFCURVE",
"446 127 OFFCURVE",
"338 127 CURVE SMOOTH"
);
},
{
closed = 1;
nodes = (
"397 688 LINE",
"479 768 LINE",
"527 688 LINE",
"651 688 LINE",
"547 832 LINE",
"426 832 LINE",
"262 688 LINE"
);
},
{
closed = 1;
nodes = (
"707 809 LINE",
"813 958 LINE",
"693 958 LINE",
"594 809 LINE"
);
}
);
width = 704;
}
);
leftKerningGroup = O;
note = Ocircumflexacute;
rightKerningGroup = O;
unicode = 1ED0;
},
{
glyphname = Ocircumflexdotbelow;
lastChange = "2015-10-24 10:08:11 +0000";
layers = (
{
layerId = "CD587521-C2B1-4DF5-9394-E26F9987D7DC";
name = "SemiBold Italic";
paths = (
{
closed = 1;
nodes = (
"528 -10 OFFCURVE",
"652 93 OFFCURVE",
"700 319 CURVE SMOOTH",
"749 550 OFFCURVE",
"643 654 OFFCURVE",
"451 654 CURVE SMOOTH",
"231 654 OFFCURVE",
"109 557 OFFCURVE",
"58 319 CURVE SMOOTH",
"10 97 OFFCURVE",
"117 -10 OFFCURVE",
"309 -10 CURVE SMOOTH"
);
},
{
closed = 1;
nodes = (
"332 -179 LINE",
"355 -70 LINE",
"237 -70 LINE",
"214 -179 LINE"
);
},
{
closed = 1;
nodes = (
"217 127 OFFCURVE",
"194 180 OFFCURVE",
"222 319 CURVE SMOOTH",
"253 463 OFFCURVE",
"312 516 OFFCURVE",
"421 516 CURVE SMOOTH",
"539 516 OFFCURVE",
"567 469 OFFCURVE",
"535 319 CURVE SMOOTH",
"507 187 OFFCURVE",
"446 127 OFFCURVE",
"338 127 CURVE SMOOTH"
);
},
{
closed = 1;
nodes = (
"391 689 LINE",
"485 793 LINE",
"538 689 LINE",
"652 689 LINE",
"547 876 LINE",
"447 876 LINE",
"263 689 LINE"
);
}
);
width = 704;
}
);
leftKerningGroup = O;
note = Ocircumflexdotbelow;
rightKerningGroup = O;
unicode = 1ED8;
},
{
glyphname = Ocircumflexgrave;
lastChange = "2015-10-24 10:08:12 +0000";
layers = (
{
layerId = "CD587521-C2B1-4DF5-9394-E26F9987D7DC";
name = "SemiBold Italic";
paths = (
{
closed = 1;
nodes = (
"528 -10 OFFCURVE",
"652 93 OFFCURVE",
"700 319 CURVE SMOOTH",
"749 550 OFFCURVE",
"643 654 OFFCURVE",
"451 654 CURVE SMOOTH",
"231 654 OFFCURVE",
"109 557 OFFCURVE",
"58 319 CURVE SMOOTH",
"10 97 OFFCURVE",
"117 -10 OFFCURVE",
"309 -10 CURVE SMOOTH"
);
},
{
closed = 1;
nodes = (
"217 127 OFFCURVE",
"194 180 OFFCURVE",
"222 319 CURVE SMOOTH",
"253 463 OFFCURVE",
"312 516 OFFCURVE",
"421 516 CURVE SMOOTH",
"539 516 OFFCURVE",
"567 469 OFFCURVE",
"535 319 CURVE SMOOTH",
"507 187 OFFCURVE",
"446 127 OFFCURVE",
"338 127 CURVE SMOOTH"
);
},
{
closed = 1;
nodes = (
"372 809 LINE",
"334 958 LINE",
"214 958 LINE",
"258 809 LINE"
);
},
{
closed = 1;
nodes = (
"397 688 LINE",
"479 768 LINE",
"527 688 LINE",
"651 688 LINE",
"547 832 LINE",
"426 832 LINE",
"262 688 LINE"
);
}
);
width = 704;
}
);
leftKerningGroup = O;
note = Ocircumflexgrave;
rightKerningGroup = O;
unicode = 1ED2;
},
{
glyphname = Ocircumflexhookabove;
lastChange = "2015-10-24 10:08:11 +0000";
layers = (
{
layerId = "CD587521-C2B1-4DF5-9394-E26F9987D7DC";
name = "SemiBold Italic";
paths = (
{
closed = 1;
nodes = (
"528 -10 OFFCURVE",
"652 93 OFFCURVE",
"700 319 CURVE SMOOTH",
"749 550 OFFCURVE",
"643 654 OFFCURVE",
"451 654 CURVE SMOOTH",
"231 654 OFFCURVE",
"109 557 OFFCURVE",
"58 319 CURVE SMOOTH",
"10 97 OFFCURVE",
"117 -10 OFFCURVE",
"309 -10 CURVE SMOOTH"
);
},
{
closed = 1;
nodes = (
"217 127 OFFCURVE",
"194 180 OFFCURVE",
"222 319 CURVE SMOOTH",
"253 463 OFFCURVE",
"312 516 OFFCURVE",
"421 516 CURVE SMOOTH",
"539 516 OFFCURVE",
"567 469 OFFCURVE",
"535 319 CURVE SMOOTH",
"507 187 OFFCURVE",
"446 127 OFFCURVE",
"338 127 CURVE SMOOTH"
);
},
{
closed = 1;
nodes = (
"397 688 LINE",
"479 768 LINE",
"527 688 LINE",
"651 688 LINE",
"547 832 LINE",
"426 832 LINE",
"262 688 LINE"
);
},
{
closed = 1;
nodes = (
"707 787 LINE",
"714 820 LINE",
"767 828 OFFCURVE",
"796 857 OFFCURVE",
"805 902 CURVE SMOOTH",
"816 952 OFFCURVE",
"784 985 OFFCURVE",
"708 985 CURVE SMOOTH",
"670 985 OFFCURVE",
"640 980 OFFCURVE",
"615 973 CURVE",
"601 906 LINE",
"617 912 OFFCURVE",
"636 916 OFFCURVE",
"655 916 CURVE SMOOTH",
"683 916 OFFCURVE",
"697 909 OFFCURVE",
"693 891 CURVE SMOOTH",
"689 872 OFFCURVE",
"673 860 OFFCURVE",
"614 858 CURVE",
"599 787 LINE"
);
}
);
width = 704;
}
);
leftKerningGroup = O;
note = Ocircumflexhookabove;
rightKerningGroup = O;
unicode = 1ED4;
},
{
glyphname = Ocircumflextilde;
lastChange = "2015-10-24 10:08:11 +0000";
layers = (
{
layerId = "CD587521-C2B1-4DF5-9394-E26F9987D7DC";
name = "SemiBold Italic";
paths = (
{
closed = 1;
nodes = (
"528 -10 OFFCURVE",
"652 93 OFFCURVE",
"700 319 CURVE SMOOTH",
"749 550 OFFCURVE",
"643 654 OFFCURVE",
"451 654 CURVE SMOOTH",
"231 654 OFFCURVE",
"109 557 OFFCURVE",
"58 319 CURVE SMOOTH",
"10 97 OFFCURVE",
"117 -10 OFFCURVE",
"309 -10 CURVE SMOOTH"
);
},
{
closed = 1;
nodes = (
"217 127 OFFCURVE",
"194 180 OFFCURVE",
"222 319 CURVE SMOOTH",
"253 463 OFFCURVE",
"312 516 OFFCURVE",
"421 516 CURVE SMOOTH",
"539 516 OFFCURVE",
"567 469 OFFCURVE",
"535 319 CURVE SMOOTH",
"507 187 OFFCURVE",
"446 127 OFFCURVE",
"338 127 CURVE SMOOTH"
);
},
{
closed = 1;
nodes = (
"568 688 OFFCURVE",
"641 736 OFFCURVE",
"665 852 CURVE",
"569 852 LINE",
"558 800 OFFCURVE",
"523 769 OFFCURVE",
"472 769 CURVE SMOOTH",
"409 769 OFFCURVE",
"397 795 OFFCURVE",
"408 852 CURVE",
"319 852 LINE",
"295 736 OFFCURVE",
"357 688 OFFCURVE",
"458 688 CURVE SMOOTH"
);
},
{
closed = 1;
nodes = (
"624 870 OFFCURVE",
"659 884 OFFCURVE",
"676 902 CURVE",
"694 994 LINE",
"673 970 OFFCURVE",
"640 955 OFFCURVE",
"601 955 CURVE SMOOTH",
"543 955 OFFCURVE",
"504 996 OFFCURVE",
"441 996 CURVE SMOOTH",
"405 996 OFFCURVE",
"367 982 OFFCURVE",
"345 964 CURVE",
"326 873 LINE",
"354 897 OFFCURVE",
"387 910 OFFCURVE",
"426 910 CURVE SMOOTH",
"478 910 OFFCURVE",
"525 870 OFFCURVE",
"586 870 CURVE SMOOTH"
);
}
);
width = 704;
}
);
leftKerningGroup = O;
note = Ocircumflextilde;
rightKerningGroup = O;
unicode = 1ED6;
},
{
glyphname = Odieresis;
lastChange = "2015-10-24 10:08:12 +0000";
layers = (
{
layerId = "CD587521-C2B1-4DF5-9394-E26F9987D7DC";
name = "SemiBold Italic";
paths = (
{
closed = 1;
nodes = (
"528 -10 OFFCURVE",
"652 93 OFFCURVE",
"700 319 CURVE SMOOTH",
"749 550 OFFCURVE",
"643 654 OFFCURVE",
"451 654 CURVE SMOOTH",
"231 654 OFFCURVE",
"109 557 OFFCURVE",
"58 319 CURVE SMOOTH",
"10 97 OFFCURVE",
"117 -10 OFFCURVE",
"309 -10 CURVE SMOOTH"
);
},
{
closed = 1;
nodes = (
"217 127 OFFCURVE",
"194 180 OFFCURVE",
"222 319 CURVE SMOOTH",
"253 463 OFFCURVE",
"312 516 OFFCURVE",
"421 516 CURVE SMOOTH",
"539 516 OFFCURVE",
"567 469 OFFCURVE",
"535 319 CURVE SMOOTH",
"507 187 OFFCURVE",
"446 127 OFFCURVE",
"338 127 CURVE SMOOTH"
);
},
{
closed = 1;
nodes = (
"418 714 LINE",
"442 823 LINE",
"325 823 LINE",
"301 714 LINE"
);
},
{
closed = 1;
nodes = (
"624 714 LINE",
"648 823 LINE",
"530 823 LINE",
"506 714 LINE"
);
}
);
width = 704;
}
);
leftKerningGroup = O;
note = Odieresis;
rightKerningGroup = O;
unicode = 00D6;
},
{
glyphname = Odotbelow;
lastChange = "2015-10-24 10:08:12 +0000";
layers = (
{
layerId = "CD587521-C2B1-4DF5-9394-E26F9987D7DC";
name = "SemiBold Italic";
paths = (
{
closed = 1;
nodes = (
"528 -10 OFFCURVE",
"652 93 OFFCURVE",
"700 319 CURVE SMOOTH",
"749 550 OFFCURVE",
"643 654 OFFCURVE",
"451 654 CURVE SMOOTH",
"231 654 OFFCURVE",
"109 557 OFFCURVE",
"58 319 CURVE SMOOTH",
"10 97 OFFCURVE",
"117 -10 OFFCURVE",
"309 -10 CURVE SMOOTH"
);
},
{
closed = 1;
nodes = (
"333 -179 LINE",
"356 -70 LINE",
"238 -70 LINE",
"215 -179 LINE"
);
},
{
closed = 1;
nodes = (
"217 127 OFFCURVE",
"194 180 OFFCURVE",
"222 319 CURVE SMOOTH",
"253 463 OFFCURVE",
"312 516 OFFCURVE",
"421 516 CURVE SMOOTH",
"539 516 OFFCURVE",
"567 469 OFFCURVE",
"535 319 CURVE SMOOTH",
"507 187 OFFCURVE",
"446 127 OFFCURVE",
"338 127 CURVE SMOOTH"
);
}
);
width = 704;
}
);
leftKerningGroup = O;
note = Odotbelow;
rightKerningGroup = O;
unicode = 1ECC;
},
{
glyphname = Ograve;
lastChange = "2015-10-24 10:08:12 +0000";
layers = (
{
layerId = "CD587521-C2B1-4DF5-9394-E26F9987D7DC";
name = "SemiBold Italic";
paths = (
{
closed = 1;
nodes = (
"528 -10 OFFCURVE",
"652 93 OFFCURVE",
"700 319 CURVE SMOOTH",
"749 550 OFFCURVE",
"643 654 OFFCURVE",
"451 654 CURVE SMOOTH",
"231 654 OFFCURVE",
"109 557 OFFCURVE",
"58 319 CURVE SMOOTH",
"10 97 OFFCURVE",
"117 -10 OFFCURVE",
"309 -10 CURVE SMOOTH"
);
},
{
closed = 1;
nodes = (
"217 127 OFFCURVE",
"194 180 OFFCURVE",
"222 319 CURVE SMOOTH",
"253 463 OFFCURVE",
"312 516 OFFCURVE",
"421 516 CURVE SMOOTH",
"539 516 OFFCURVE",
"567 469 OFFCURVE",
"535 319 CURVE SMOOTH",
"507 187 OFFCURVE",
"446 127 OFFCURVE",
"338 127 CURVE SMOOTH"
);
},
{
closed = 1;
nodes = (
"525 688 LINE",
"483 884 LINE",
"351 884 LINE",
"402 688 LINE"
);
}
);
width = 704;
}
);
leftKerningGroup = O;
note = Ograve;
rightKerningGroup = O;
unicode = 00D2;
},
{
glyphname = Ohookabove;
lastChange = "2015-10-24 10:08:12 +0000";
layers = (
{
layerId = "CD587521-C2B1-4DF5-9394-E26F9987D7DC";
name = "SemiBold Italic";
paths = (
{
closed = 1;
nodes = (
"528 -10 OFFCURVE",
"652 93 OFFCURVE",
"700 319 CURVE SMOOTH",
"749 550 OFFCURVE",
"643 654 OFFCURVE",
"451 654 CURVE SMOOTH",
"231 654 OFFCURVE",
"109 557 OFFCURVE",
"58 319 CURVE SMOOTH",
"10 97 OFFCURVE",
"117 -10 OFFCURVE",
"309 -10 CURVE SMOOTH"
);
},
{
closed = 1;
nodes = (
"217 127 OFFCURVE",
"194 180 OFFCURVE",
"222 319 CURVE SMOOTH",
"253 463 OFFCURVE",
"312 516 OFFCURVE",
"421 516 CURVE SMOOTH",
"539 516 OFFCURVE",
"567 469 OFFCURVE",
"535 319 CURVE SMOOTH",
"507 187 OFFCURVE",
"446 127 OFFCURVE",
"338 127 CURVE SMOOTH"
);
},
{
closed = 1;
nodes = (
"517 688 LINE",
"526 732 LINE",
"588 746 OFFCURVE",
"619 772 OFFCURVE",
"632 829 CURVE SMOOTH",
"644 888 OFFCURVE",
"605 928 OFFCURVE",
"517 928 CURVE SMOOTH",
"474 928 OFFCURVE",
"435 923 OFFCURVE",
"407 914 CURVE",
"391 842 LINE",
"408 847 OFFCURVE",
"434 851 OFFCURVE",
"453 851 CURVE SMOOTH",
"494 851 OFFCURVE",
"516 840 OFFCURVE",
"511 815 CURVE SMOOTH",
"505 788 OFFCURVE",
"484 773 OFFCURVE",
"412 769 CURVE",
"395 688 LINE"
);
}
);
width = 704;
}
);
leftKerningGroup = O;
note = Ohookabove;
rightKerningGroup = O;
unicode = 1ECE;
},
{
glyphname = Ohorn;
lastChange = "2015-10-24 10:08:11 +0000";
layers = (
{
layerId = "CD587521-C2B1-4DF5-9394-E26F9987D7DC";
name = "SemiBold Italic";
paths = (
{
closed = 1;
nodes = (
"528 -10 OFFCURVE",
"652 93 OFFCURVE",
"700 319 CURVE SMOOTH",
"714 385 OFFCURVE",
"715 440 OFFCURVE",
"705 486 CURVE",
"801 505 OFFCURVE",
"859 559 OFFCURVE",
"887 688 CURVE",
"772 688 LINE",
"756 612 OFFCURVE",
"727 585 OFFCURVE",
"655 585 CURVE",
"610 631 OFFCURVE",
"539 654 OFFCURVE",
"451 654 CURVE SMOOTH",
"231 654 OFFCURVE",
"109 557 OFFCURVE",
"58 319 CURVE SMOOTH",
"10 97 OFFCURVE",
"117 -10 OFFCURVE",
"309 -10 CURVE SMOOTH"
);
},
{
closed = 1;
nodes = (
"217 127 OFFCURVE",
"194 180 OFFCURVE",
"222 319 CURVE SMOOTH",
"253 463 OFFCURVE",
"312 516 OFFCURVE",
"421 516 CURVE SMOOTH",
"539 516 OFFCURVE",
"567 469 OFFCURVE",
"535 319 CURVE SMOOTH",
"507 187 OFFCURVE",
"446 127 OFFCURVE",
"338 127 CURVE SMOOTH"
);
}
);
width = 785;
}
);
leftKerningGroup = O;
note = Ohorn;
rightKerningGroup = O;
unicode = 01A0;
},
{
glyphname = Ohornacute;
lastChange = "2015-10-24 10:08:12 +0000";
layers = (
{
layerId = "CD587521-C2B1-4DF5-9394-E26F9987D7DC";
name = "SemiBold Italic";
paths = (
{
closed = 1;
nodes = (
"528 -10 OFFCURVE",
"652 93 OFFCURVE",
"700 319 CURVE SMOOTH",
"714 385 OFFCURVE",
"715 440 OFFCURVE",
"705 486 CURVE",
"801 505 OFFCURVE",
"859 559 OFFCURVE",
"887 688 CURVE",
"772 688 LINE",
"756 612 OFFCURVE",
"727 585 OFFCURVE",
"655 585 CURVE",
"610 631 OFFCURVE",
"539 654 OFFCURVE",
"451 654 CURVE SMOOTH",
"231 654 OFFCURVE",
"109 557 OFFCURVE",
"58 319 CURVE SMOOTH",
"10 97 OFFCURVE",
"117 -10 OFFCURVE",
"309 -10 CURVE SMOOTH"
);
},
{
closed = 1;
nodes = (
"217 127 OFFCURVE",
"194 180 OFFCURVE",
"222 319 CURVE SMOOTH",
"253 463 OFFCURVE",
"312 516 OFFCURVE",
"421 516 CURVE SMOOTH",
"539 516 OFFCURVE",
"567 469 OFFCURVE",
"535 319 CURVE SMOOTH",
"507 187 OFFCURVE",
"446 127 OFFCURVE",
"338 127 CURVE SMOOTH"
);
},
{
closed = 1;
nodes = (
"521 688 LINE",
"655 884 LINE",
"523 884 LINE",
"397 688 LINE"
);
}
);
width = 785;
}
);
leftKerningGroup = O;
note = Ohornacute;
rightKerningGroup = O;
unicode = 1EDA;
},
{
glyphname = Ohorndotbelow;
lastChange = "2015-10-24 10:08:12 +0000";
layers = (
{
layerId = "CD587521-C2B1-4DF5-9394-E26F9987D7DC";
name = "SemiBold Italic";
paths = (
{
closed = 1;
nodes = (
"528 -10 OFFCURVE",
"652 93 OFFCURVE",
"700 319 CURVE SMOOTH",
"714 385 OFFCURVE",
"715 440 OFFCURVE",
"705 486 CURVE",
"801 505 OFFCURVE",
"859 559 OFFCURVE",
"887 688 CURVE",
"772 688 LINE",
"756 612 OFFCURVE",
"727 585 OFFCURVE",
"655 585 CURVE",
"610 631 OFFCURVE",
"539 654 OFFCURVE",
"451 654 CURVE SMOOTH",
"231 654 OFFCURVE",
"109 557 OFFCURVE",
"58 319 CURVE SMOOTH",
"10 97 OFFCURVE",
"117 -10 OFFCURVE",
"309 -10 CURVE SMOOTH"
);
},
{
closed = 1;
nodes = (
"334 -179 LINE",
"357 -70 LINE",
"239 -70 LINE",
"216 -179 LINE"
);
},
{
closed = 1;
nodes = (
"217 127 OFFCURVE",
"194 180 OFFCURVE",
"222 319 CURVE SMOOTH",
"253 463 OFFCURVE",
"312 516 OFFCURVE",
"421 516 CURVE SMOOTH",
"539 516 OFFCURVE",
"567 469 OFFCURVE",
"535 319 CURVE SMOOTH",
"507 187 OFFCURVE",
"446 127 OFFCURVE",
"338 127 CURVE SMOOTH"
);
}
);
width = 785;
}
);
leftKerningGroup = O;
note = Ohorndotbelow;
rightKerningGroup = O;
unicode = 1EE2;
},
{
glyphname = Ohorngrave;
lastChange = "2015-10-24 10:08:13 +0000";
layers = (
{
layerId = "CD587521-C2B1-4DF5-9394-E26F9987D7DC";
name = "SemiBold Italic";
paths = (
{
closed = 1;
nodes = (
"528 -10 OFFCURVE",
"652 93 OFFCURVE",
"700 319 CURVE SMOOTH",
"714 385 OFFCURVE",
"715 440 OFFCURVE",
"705 486 CURVE",
"801 505 OFFCURVE",
"859 559 OFFCURVE",
"887 688 CURVE",
"772 688 LINE",
"756 612 OFFCURVE",
"727 585 OFFCURVE",
"655 585 CURVE",
"610 631 OFFCURVE",
"539 654 OFFCURVE",
"451 654 CURVE SMOOTH",
"231 654 OFFCURVE",
"109 557 OFFCURVE",
"58 319 CURVE SMOOTH",
"10 97 OFFCURVE",
"117 -10 OFFCURVE",
"309 -10 CURVE SMOOTH"
);
},
{
closed = 1;
nodes = (
"217 127 OFFCURVE",
"194 180 OFFCURVE",
"222 319 CURVE SMOOTH",
"253 463 OFFCURVE",
"312 516 OFFCURVE",
"421 516 CURVE SMOOTH",
"539 516 OFFCURVE",
"567 469 OFFCURVE",
"535 319 CURVE SMOOTH",
"507 187 OFFCURVE",
"446 127 OFFCURVE",
"338 127 CURVE SMOOTH"
);
},
{
closed = 1;
nodes = (
"536 688 LINE",
"494 884 LINE",
"362 884 LINE",
"413 688 LINE"
);
}
);
width = 785;
}
);
leftKerningGroup = O;
note = Ohorngrave;
rightKerningGroup = O;
unicode = 1EDC;
},
{
glyphname = Ohornhookabove;
lastChange = "2015-10-24 10:08:11 +0000";
layers = (
{
layerId = "CD587521-C2B1-4DF5-9394-E26F9987D7DC";
name = "SemiBold Italic";
paths = (
{
closed = 1;
nodes = (
"528 -10 OFFCURVE",
"652 93 OFFCURVE",
"700 319 CURVE SMOOTH",
"714 385 OFFCURVE",
"715 440 OFFCURVE",
"705 486 CURVE",
"801 505 OFFCURVE",
"859 559 OFFCURVE",
"887 688 CURVE",
"772 688 LINE",
"756 612 OFFCURVE",
"727 585 OFFCURVE",
"655 585 CURVE",
"610 631 OFFCURVE",
"539 654 OFFCURVE",
"451 654 CURVE SMOOTH",
"231 654 OFFCURVE",
"109 557 OFFCURVE",
"58 319 CURVE SMOOTH",
"10 97 OFFCURVE",
"117 -10 OFFCURVE",
"309 -10 CURVE SMOOTH"
);
},
{
closed = 1;
nodes = (
"217 127 OFFCURVE",
"194 180 OFFCURVE",
"222 319 CURVE SMOOTH",
"253 463 OFFCURVE",
"312 516 OFFCURVE",
"421 516 CURVE SMOOTH",
"539 516 OFFCURVE",
"567 469 OFFCURVE",
"535 319 CURVE SMOOTH",
"507 187 OFFCURVE",
"446 127 OFFCURVE",
"338 127 CURVE SMOOTH"
);
},
{
closed = 1;
nodes = (
"520 688 LINE",
"529 732 LINE",
"591 746 OFFCURVE",
"622 772 OFFCURVE",
"635 829 CURVE SMOOTH",
"647 888 OFFCURVE",
"608 928 OFFCURVE",
"520 928 CURVE SMOOTH",
"477 928 OFFCURVE",
"438 923 OFFCURVE",
"410 914 CURVE",
"394 842 LINE",
"411 847 OFFCURVE",
"437 851 OFFCURVE",
"456 851 CURVE SMOOTH",
"497 851 OFFCURVE",
"519 840 OFFCURVE",
"514 815 CURVE SMOOTH",
"508 788 OFFCURVE",
"487 773 OFFCURVE",
"415 769 CURVE",
"398 688 LINE"
);
}
);
width = 785;
}
);
leftKerningGroup = O;
note = Ohornhookabove;
rightKerningGroup = O;
unicode = 1EDE;
},
{
glyphname = Ohorntilde;
lastChange = "2015-10-24 10:08:12 +0000";
layers = (
{
layerId = "CD587521-C2B1-4DF5-9394-E26F9987D7DC";
name = "SemiBold Italic";
paths = (
{
closed = 1;
nodes = (
"528 -10 OFFCURVE",
"652 93 OFFCURVE",
"700 319 CURVE SMOOTH",
"714 385 OFFCURVE",
"715 440 OFFCURVE",
"705 486 CURVE",
"801 505 OFFCURVE",
"859 559 OFFCURVE",
"887 688 CURVE",
"772 688 LINE",
"756 612 OFFCURVE",
"727 585 OFFCURVE",
"655 585 CURVE",
"610 631 OFFCURVE",
"539 654 OFFCURVE",
"451 654 CURVE SMOOTH",
"231 654 OFFCURVE",
"109 557 OFFCURVE",
"58 319 CURVE SMOOTH",
"10 97 OFFCURVE",
"117 -10 OFFCURVE",
"309 -10 CURVE SMOOTH"
);
},
{
closed = 1;
nodes = (
"217 127 OFFCURVE",
"194 180 OFFCURVE",
"222 319 CURVE SMOOTH",
"253 463 OFFCURVE",
"312 516 OFFCURVE",
"421 516 CURVE SMOOTH",
"539 516 OFFCURVE",
"567 469 OFFCURVE",
"535 319 CURVE SMOOTH",
"507 187 OFFCURVE",
"446 127 OFFCURVE",
"338 127 CURVE SMOOTH"
);
},
{
closed = 1;
nodes = (
"594 694 OFFCURVE",
"630 708 OFFCURVE",
"647 726 CURVE",
"670 834 LINE",
"648 810 OFFCURVE",
"615 795 OFFCURVE",
"575 795 CURVE SMOOTH",
"516 795 OFFCURVE",
"477 836 OFFCURVE",
"413 836 CURVE SMOOTH",
"376 836 OFFCURVE",
"338 822 OFFCURVE",
"315 804 CURVE",
"292 697 LINE",
"321 721 OFFCURVE",
"355 735 OFFCURVE",
"394 735 CURVE SMOOTH",
"446 735 OFFCURVE",
"494 694 OFFCURVE",
"556 694 CURVE SMOOTH"
);
}
);
width = 785;
}
);
leftKerningGroup = O;
note = Ohorntilde;
rightKerningGroup = O;
unicode = 1EE0;
},
{
glyphname = Ohungarumlaut;
lastChange = "2015-10-24 10:08:12 +0000";
layers = (
{
layerId = "CD587521-C2B1-4DF5-9394-E26F9987D7DC";
name = "SemiBold Italic";
paths = (
{
closed = 1;
nodes = (
"528 -10 OFFCURVE",
"652 93 OFFCURVE",
"700 319 CURVE SMOOTH",
"749 550 OFFCURVE",
"643 654 OFFCURVE",
"451 654 CURVE SMOOTH",
"231 654 OFFCURVE",
"109 557 OFFCURVE",
"58 319 CURVE SMOOTH",
"10 97 OFFCURVE",
"117 -10 OFFCURVE",
"309 -10 CURVE SMOOTH"
);
},
{
closed = 1;
nodes = (
"217 127 OFFCURVE",
"194 180 OFFCURVE",
"222 319 CURVE SMOOTH",
"253 463 OFFCURVE",
"312 516 OFFCURVE",
"421 516 CURVE SMOOTH",
"539 516 OFFCURVE",
"567 469 OFFCURVE",
"535 319 CURVE SMOOTH",
"507 187 OFFCURVE",
"446 127 OFFCURVE",
"338 127 CURVE SMOOTH"
);
},
{
closed = 1;
nodes = (
"378 688 LINE",
"512 868 LINE",
"374 868 LINE",
"254 688 LINE"
);
},
{
closed = 1;
nodes = (
"608 688 LINE",
"743 868 LINE",
"604 868 LINE",
"484 688 LINE"
);
}
);
width = 704;
}
);
leftKerningGroup = O;
note = Ohungarumlaut;
rightKerningGroup = O;
unicode = 0150;
},
{
glyphname = Omacron;
lastChange = "2015-10-24 10:08:12 +0000";
layers = (
{
layerId = "CD587521-C2B1-4DF5-9394-E26F9987D7DC";
name = "SemiBold Italic";
paths = (
{
closed = 1;
nodes = (
"528 -10 OFFCURVE",
"652 93 OFFCURVE",
"700 319 CURVE SMOOTH",
"749 550 OFFCURVE",
"643 654 OFFCURVE",
"451 654 CURVE SMOOTH",
"231 654 OFFCURVE",
"109 557 OFFCURVE",
"58 319 CURVE SMOOTH",
"10 97 OFFCURVE",
"117 -10 OFFCURVE",
"309 -10 CURVE SMOOTH"
);
},
{
closed = 1;
nodes = (
"217 127 OFFCURVE",
"194 180 OFFCURVE",
"222 319 CURVE SMOOTH",
"253 463 OFFCURVE",
"312 516 OFFCURVE",
"421 516 CURVE SMOOTH",
"539 516 OFFCURVE",
"567 469 OFFCURVE",
"535 319 CURVE SMOOTH",
"507 187 OFFCURVE",
"446 127 OFFCURVE",
"338 127 CURVE SMOOTH"
);
},
{
closed = 1;
nodes = (
"621 724 LINE",
"642 821 LINE",
"325 821 LINE",
"304 724 LINE"
);
}
);
width = 704;
}
);
leftKerningGroup = O;
note = Omacron;
rightKerningGroup = O;
unicode = 014C;
},
{
glyphname = Oslash;
lastChange = "2015-10-24 10:08:12 +0000";
layers = (
{
layerId = "CD587521-C2B1-4DF5-9394-E26F9987D7DC";
name = "SemiBold Italic";
paths = (
{
closed = 1;
nodes = (
"193 -53 LINE",
"223 -2 LINE",
"249 -7 OFFCURVE",
"278 -10 OFFCURVE",
"309 -10 CURVE SMOOTH",
"528 -10 OFFCURVE",
"652 93 OFFCURVE",
"700 319 CURVE SMOOTH",
"734 480 OFFCURVE",
"693 579 OFFCURVE",
"600 624 CURVE",
"641 693 LINE",
"552 693 LINE",
"525 648 LINE",
"502 652 OFFCURVE",
"477 654 OFFCURVE",
"451 654 CURVE SMOOTH",
"231 654 OFFCURVE",
"109 557 OFFCURVE",
"58 319 CURVE SMOOTH",
"25 169 OFFCURVE",
"63 72 OFFCURVE",
"150 24 CURVE",
"104 -53 LINE"
);
},
{
closed = 1;
nodes = (
"206 189 OFFCURVE",
"206 240 OFFCURVE",
"222 319 CURVE SMOOTH",
"253 463 OFFCURVE",
"312 516 OFFCURVE",
"421 516 CURVE SMOOTH",
"429 516 OFFCURVE",
"437 515 OFFCURVE",
"445 515 CURVE",
"232 160 LINE"
);
},
{
closed = 1;
nodes = (
"325 127 OFFCURVE",
"313 127 OFFCURVE",
"302 129 CURVE",
"520 491 LINE",
"552 464 OFFCURVE",
"554 410 OFFCURVE",
"535 319 CURVE SMOOTH",
"507 187 OFFCURVE",
"446 127 OFFCURVE",
"338 127 CURVE SMOOTH"
);
}
);
width = 704;
}
);
leftKerningGroup = O;
note = Oslash;
rightKerningGroup = O;
unicode = 00D8;
},
{
glyphname = Oslashacute;
lastChange = "2015-10-24 10:08:12 +0000";
layers = (
{
layerId = "CD587521-C2B1-4DF5-9394-E26F9987D7DC";
name = "SemiBold Italic";
paths = (
{
closed = 1;
nodes = (
"193 -53 LINE",
"223 -2 LINE",
"249 -7 OFFCURVE",
"278 -10 OFFCURVE",
"309 -10 CURVE SMOOTH",
"528 -10 OFFCURVE",
"652 93 OFFCURVE",
"700 319 CURVE SMOOTH",
"734 480 OFFCURVE",
"693 579 OFFCURVE",
"600 624 CURVE",
"641 693 LINE",
"552 693 LINE",
"525 648 LINE",
"502 652 OFFCURVE",
"477 654 OFFCURVE",
"451 654 CURVE SMOOTH",
"231 654 OFFCURVE",
"109 557 OFFCURVE",
"58 319 CURVE SMOOTH",
"25 169 OFFCURVE",
"63 72 OFFCURVE",
"150 24 CURVE",
"104 -53 LINE"
);
},
{
closed = 1;
nodes = (
"206 189 OFFCURVE",
"206 240 OFFCURVE",
"222 319 CURVE SMOOTH",
"253 463 OFFCURVE",
"312 516 OFFCURVE",
"421 516 CURVE SMOOTH",
"429 516 OFFCURVE",
"437 515 OFFCURVE",
"445 515 CURVE",
"232 160 LINE"
);
},
{
closed = 1;
nodes = (
"325 127 OFFCURVE",
"313 127 OFFCURVE",
"302 129 CURVE",
"520 491 LINE",
"552 464 OFFCURVE",
"554 410 OFFCURVE",
"535 319 CURVE SMOOTH",
"507 187 OFFCURVE",
"446 127 OFFCURVE",
"338 127 CURVE SMOOTH"
);
},
{
closed = 1;
nodes = (
"487 688 LINE",
"621 884 LINE",
"489 884 LINE",
"363 688 LINE"
);
}
);
width = 704;
}
);
leftKerningGroup = O;
note = Oslashacute;
rightKerningGroup = O;
unicode = 01FE;
},
{
glyphname = Otilde;
lastChange = "2015-10-24 10:08:13 +0000";
layers = (
{
layerId = "CD587521-C2B1-4DF5-9394-E26F9987D7DC";
name = "SemiBold Italic";
paths = (
{
closed = 1;
nodes = (
"528 -10 OFFCURVE",
"652 93 OFFCURVE",
"700 319 CURVE SMOOTH",
"749 550 OFFCURVE",
"643 654 OFFCURVE",
"451 654 CURVE SMOOTH",
"231 654 OFFCURVE",
"109 557 OFFCURVE",
"58 319 CURVE SMOOTH",
"10 97 OFFCURVE",
"117 -10 OFFCURVE",
"309 -10 CURVE SMOOTH"
);
},
{
closed = 1;
nodes = (
"217 127 OFFCURVE",
"194 180 OFFCURVE",
"222 319 CURVE SMOOTH",
"253 463 OFFCURVE",
"312 516 OFFCURVE",
"421 516 CURVE SMOOTH",
"539 516 OFFCURVE",
"567 469 OFFCURVE",
"535 319 CURVE SMOOTH",
"507 187 OFFCURVE",
"446 127 OFFCURVE",
"338 127 CURVE SMOOTH"
);
},
{
closed = 1;
nodes = (
"592 710 OFFCURVE",
"628 724 OFFCURVE",
"645 742 CURVE",
"668 850 LINE",
"646 826 OFFCURVE",
"613 811 OFFCURVE",
"573 811 CURVE SMOOTH",
"514 811 OFFCURVE",
"475 852 OFFCURVE",
"411 852 CURVE SMOOTH",
"374 852 OFFCURVE",
"336 838 OFFCURVE",
"313 820 CURVE",
"290 713 LINE",
"319 737 OFFCURVE",
"353 751 OFFCURVE",
"392 751 CURVE SMOOTH",
"444 751 OFFCURVE",
"492 710 OFFCURVE",
"554 710 CURVE SMOOTH"
);
}
);
width = 704;
}
);
leftKerningGroup = O;
note = Otilde;
rightKerningGroup = O;
unicode = 00D5;
},
{
glyphname = OE;
lastChange = "2015-10-24 10:08:12 +0000";
layers = (
{
layerId = "CD587521-C2B1-4DF5-9394-E26F9987D7DC";
name = "SemiBold Italic";
paths = (
{
closed = 1;
nodes = (
"371 -10 OFFCURVE",
"433 3 OFFCURVE",
"474 23 CURVE",
"469 0 LINE",
"944 0 LINE",
"970 124 LINE",
"656 124 LINE",
"685 259 LINE",
"962 259 LINE",
"988 385 LINE",
"711 385 LINE",
"740 520 LINE",
"1054 520 LINE",
"1080 644 LINE",
"605 644 LINE",
"600 618 LINE",
"559 641 OFFCURVE",
"510 654 OFFCURVE",
"451 654 CURVE SMOOTH",
"231 654 OFFCURVE",
"109 557 OFFCURVE",
"58 319 CURVE SMOOTH",
"10 97 OFFCURVE",
"117 -10 OFFCURVE",
"309 -10 CURVE SMOOTH"
);
},
{
closed = 1;
nodes = (
"217 127 OFFCURVE",
"194 180 OFFCURVE",
"222 319 CURVE SMOOTH",
"253 463 OFFCURVE",
"312 516 OFFCURVE",
"421 516 CURVE SMOOTH",
"539 516 OFFCURVE",
"567 469 OFFCURVE",
"535 319 CURVE SMOOTH",
"507 187 OFFCURVE",
"446 127 OFFCURVE",
"338 127 CURVE SMOOTH"
);
}
);
width = 1015;
}
);
leftKerningGroup = O;
note = OE;
rightKerningGroup = E;
unicode = 0152;
},
{
glyphname = P;
lastChange = "2015-10-24 10:08:11 +0000";
layers = (
{
layerId = "CD587521-C2B1-4DF5-9394-E26F9987D7DC";
name = "SemiBold Italic";
paths = (
{
closed = 1;
nodes = (
"172 0 LINE",
"212 189 LINE",
"369 189 LINE SMOOTH",
"523 189 OFFCURVE",
"614 275 OFFCURVE",
"641 414 CURVE SMOOTH",
"666 541 OFFCURVE",
"604 644 OFFCURVE",
"455 644 CURVE SMOOTH",
"147 644 LINE",
"11 0 LINE"
);
},
{
closed = 1;
nodes = (
"282 520 LINE",
"403 520 LINE SMOOTH",
"476 520 OFFCURVE",
"493 489 OFFCURVE",
"478 415 CURVE SMOOTH",
"466 354 OFFCURVE",
"433 313 OFFCURVE",
"354 313 CURVE SMOOTH",
"238 313 LINE"
);
}
);
width = 606;
}
);
note = P;
unicode = 0050;
},
{
glyphname = Thorn;
lastChange = "2015-10-24 10:08:12 +0000";
layers = (
{
layerId = "CD587521-C2B1-4DF5-9394-E26F9987D7DC";
name = "SemiBold Italic";
paths = (
{
closed = 1;
nodes = (
"172 0 LINE",
"192 95 LINE",
"344 95 LINE SMOOTH",
"498 95 OFFCURVE",
"593 187 OFFCURVE",
"622 320 CURVE SMOOTH",
"649 450 OFFCURVE",
"585 547 OFFCURVE",
"444 547 CURVE SMOOTH",
"288 547 LINE",
"308 644 LINE",
"147 644 LINE",
"11 0 LINE"
);
},
{
closed = 1;
nodes = (
"261 423 LINE",
"382 423 LINE SMOOTH",
"459 423 OFFCURVE",
"472 386 OFFCURVE",
"458 320 CURVE SMOOTH",
"445 259 OFFCURVE",
"410 219 OFFCURVE",
"334 219 CURVE SMOOTH",
"218 219 LINE"
);
}
);
width = 625;
}
);
note = Thorn;
unicode = 00DE;
},
{
glyphname = Q;
lastChange = "2015-10-24 10:08:13 +0000";
layers = (
{
layerId = "CD587521-C2B1-4DF5-9394-E26F9987D7DC";
name = "SemiBold Italic";
paths = (
{
closed = 1;
nodes = (
"407 -172 OFFCURVE",
"447 -168 OFFCURVE",
"468 -162 CURVE",
"491 -53 LINE",
"470 -58 OFFCURVE",
"447 -61 OFFCURVE",
"427 -61 CURVE SMOOTH",
"388 -61 OFFCURVE",
"376 -50 OFFCURVE",
"387 -5 CURVE",
"558 18 OFFCURVE",
"658 121 OFFCURVE",
"700 319 CURVE SMOOTH",
"749 550 OFFCURVE",
"643 654 OFFCURVE",
"451 654 CURVE SMOOTH",
"231 654 OFFCURVE",
"109 557 OFFCURVE",
"58 319 CURVE SMOOTH",
"15 123 OFFCURVE",
"94 17 OFFCURVE",
"244 -5 CURVE",
"222 -117 OFFCURVE",
"262 -172 OFFCURVE",
"385 -172 CURVE SMOOTH"
);
},
{
closed = 1;
nodes = (
"217 127 OFFCURVE",
"194 180 OFFCURVE",
"222 319 CURVE SMOOTH",
"253 463 OFFCURVE",
"312 516 OFFCURVE",
"421 516 CURVE SMOOTH",
"539 516 OFFCURVE",
"567 469 OFFCURVE",
"535 319 CURVE SMOOTH",
"507 187 OFFCURVE",
"446 127 OFFCURVE",
"338 127 CURVE SMOOTH"
);
}
);
width = 704;
}
);
leftKerningGroup = O;
note = Q;
rightKerningGroup = O;
unicode = 0051;
},
{
glyphname = R;
lastChange = "2015-10-24 10:08:12 +0000";
layers = (
{
layerId = "CD587521-C2B1-4DF5-9394-E26F9987D7DC";
name = "SemiBold Italic";
paths = (
{
closed = 1;
nodes = (
"172 0 LINE",
"215 204 LINE",
"289 204 LINE SMOOTH",
"324 204 OFFCURVE",
"336 195 OFFCURVE",
"343 164 CURVE SMOOTH",
"381 0 LINE",
"549 0 LINE",
"509 174 LINE SMOOTH",
"502 206 OFFCURVE",
"496 221 OFFCURVE",
"482 236 CURVE",
"564 268 OFFCURVE",
"626 336 OFFCURVE",
"644 423 CURVE SMOOTH",
"673 557 OFFCURVE",
"596 644 OFFCURVE",
"469 644 CURVE SMOOTH",
"147 644 LINE",
"11 0 LINE"
);
},
{
closed = 1;
nodes = (
"282 520 LINE",
"408 520 LINE SMOOTH",
"485 520 OFFCURVE",
"494 487 OFFCURVE",
"480 423 CURVE SMOOTH",
"467 359 OFFCURVE",
"423 328 OFFCURVE",
"360 328 CURVE SMOOTH",
"241 328 LINE"
);
}
);
width = 626;
}
);
note = R;
rightKerningGroup = R;
unicode = 0052;
},
{
glyphname = Racute;
lastChange = "2015-10-24 10:08:13 +0000";
layers = (
{
layerId = "CD587521-C2B1-4DF5-9394-E26F9987D7DC";
name = "SemiBold Italic";
paths = (
{
closed = 1;
nodes = (
"172 0 LINE",
"215 204 LINE",
"289 204 LINE SMOOTH",
"324 204 OFFCURVE",
"336 195 OFFCURVE",
"343 164 CURVE SMOOTH",
"381 0 LINE",
"549 0 LINE",
"509 174 LINE SMOOTH",
"502 206 OFFCURVE",
"496 221 OFFCURVE",
"482 236 CURVE",
"564 268 OFFCURVE",
"626 336 OFFCURVE",
"644 423 CURVE SMOOTH",
"673 557 OFFCURVE",
"596 644 OFFCURVE",
"469 644 CURVE SMOOTH",
"147 644 LINE",
"11 0 LINE"
);
},
{
closed = 1;
nodes = (
"282 520 LINE",
"408 520 LINE SMOOTH",
"485 520 OFFCURVE",
"494 487 OFFCURVE",
"480 423 CURVE SMOOTH",
"467 359 OFFCURVE",
"423 328 OFFCURVE",
"360 328 CURVE SMOOTH",
"241 328 LINE"
);
},
{
closed = 1;
nodes = (
"437 688 LINE",
"571 884 LINE",
"439 884 LINE",
"313 688 LINE"
);
}
);
width = 626;
}
);
note = Racute;
rightKerningGroup = R;
unicode = 0154;
},
{
glyphname = Rcaron;
lastChange = "2015-10-24 10:08:12 +0000";
layers = (
{
layerId = "CD587521-C2B1-4DF5-9394-E26F9987D7DC";
name = "SemiBold Italic";
paths = (
{
closed = 1;
nodes = (
"172 0 LINE",
"215 204 LINE",
"289 204 LINE SMOOTH",
"324 204 OFFCURVE",
"336 195 OFFCURVE",
"343 164 CURVE SMOOTH",
"381 0 LINE",
"549 0 LINE",
"509 174 LINE SMOOTH",
"502 206 OFFCURVE",
"496 221 OFFCURVE",
"482 236 CURVE",
"564 268 OFFCURVE",
"626 336 OFFCURVE",
"644 423 CURVE SMOOTH",
"673 557 OFFCURVE",
"596 644 OFFCURVE",
"469 644 CURVE SMOOTH",
"147 644 LINE",
"11 0 LINE"
);
},
{
closed = 1;
nodes = (
"282 520 LINE",
"408 520 LINE SMOOTH",
"485 520 OFFCURVE",
"494 487 OFFCURVE",
"480 423 CURVE SMOOTH",
"467 359 OFFCURVE",
"423 328 OFFCURVE",
"360 328 CURVE SMOOTH",
"241 328 LINE"
);
},
{
closed = 1;
nodes = (
"438 688 LINE",
"623 875 LINE",
"497 875 LINE",
"400 771 LINE",
"350 875 LINE",
"234 875 LINE",
"338 688 LINE"
);
}
);
width = 626;
}
);
note = Rcaron;
rightKerningGroup = R;
unicode = 0158;
},
{
glyphname = Rcommaaccent;
lastChange = "2015-10-24 10:08:11 +0000";
layers = (
{
layerId = "CD587521-C2B1-4DF5-9394-E26F9987D7DC";
name = "SemiBold Italic";
paths = (
{
closed = 1;
nodes = (
"172 0 LINE",
"215 204 LINE",
"289 204 LINE SMOOTH",
"324 204 OFFCURVE",
"336 195 OFFCURVE",
"343 164 CURVE SMOOTH",
"381 0 LINE",
"549 0 LINE",
"509 174 LINE SMOOTH",
"502 206 OFFCURVE",
"496 221 OFFCURVE",
"482 236 CURVE",
"564 268 OFFCURVE",
"626 336 OFFCURVE",
"644 423 CURVE SMOOTH",
"673 557 OFFCURVE",
"596 644 OFFCURVE",
"469 644 CURVE SMOOTH",
"147 644 LINE",
"11 0 LINE"
);
},
{
closed = 1;
nodes = (
"222 -250 LINE",
"321 -37 LINE",
"192 -37 LINE",
"114 -250 LINE"
);
},
{
closed = 1;
nodes = (
"282 520 LINE",
"408 520 LINE SMOOTH",
"485 520 OFFCURVE",
"494 487 OFFCURVE",
"480 423 CURVE SMOOTH",
"467 359 OFFCURVE",
"423 328 OFFCURVE",
"360 328 CURVE SMOOTH",
"241 328 LINE"
);
}
);
width = 626;
}
);
note = Rcommaaccent;
rightKerningGroup = R;
unicode = 0156;
},
{
glyphname = Rdotbelow;
lastChange = "2015-10-24 10:08:12 +0000";
layers = (
{
layerId = "CD587521-C2B1-4DF5-9394-E26F9987D7DC";
name = "SemiBold Italic";
paths = (
{
closed = 1;
nodes = (
"172 0 LINE",
"215 204 LINE",
"289 204 LINE SMOOTH",
"324 204 OFFCURVE",
"336 195 OFFCURVE",
"343 164 CURVE SMOOTH",
"381 0 LINE",
"549 0 LINE",
"509 174 LINE SMOOTH",
"502 206 OFFCURVE",
"496 221 OFFCURVE",
"482 236 CURVE",
"564 268 OFFCURVE",
"626 336 OFFCURVE",
"644 423 CURVE SMOOTH",
"673 557 OFFCURVE",
"596 644 OFFCURVE",
"469 644 CURVE SMOOTH",
"147 644 LINE",
"11 0 LINE"
);
},
{
closed = 1;
nodes = (
"285 -179 LINE",
"308 -70 LINE",
"190 -70 LINE",
"167 -179 LINE"
);
},
{
closed = 1;
nodes = (
"282 520 LINE",
"408 520 LINE SMOOTH",
"485 520 OFFCURVE",
"494 487 OFFCURVE",
"480 423 CURVE SMOOTH",
"467 359 OFFCURVE",
"423 328 OFFCURVE",
"360 328 CURVE SMOOTH",
"241 328 LINE"
);
}
);
width = 626;
}
);
note = Rdotbelow;
rightKerningGroup = R;
unicode = 1E5A;
},
{
glyphname = Rdotbelowmacron;
lastChange = "2015-10-24 10:08:12 +0000";
layers = (
{
layerId = "CD587521-C2B1-4DF5-9394-E26F9987D7DC";
name = "SemiBold Italic";
paths = (
{
closed = 1;
nodes = (
"172 0 LINE",
"215 204 LINE",
"289 204 LINE SMOOTH",
"324 204 OFFCURVE",
"336 195 OFFCURVE",
"343 164 CURVE SMOOTH",
"381 0 LINE",
"549 0 LINE",
"509 174 LINE SMOOTH",
"502 206 OFFCURVE",
"496 221 OFFCURVE",
"482 236 CURVE",
"564 268 OFFCURVE",
"626 336 OFFCURVE",
"644 423 CURVE SMOOTH",
"673 557 OFFCURVE",
"596 644 OFFCURVE",
"469 644 CURVE SMOOTH",
"147 644 LINE",
"11 0 LINE"
);
},
{
closed = 1;
nodes = (
"277 -179 LINE",
"300 -70 LINE",
"182 -70 LINE",
"159 -179 LINE"
);
},
{
closed = 1;
nodes = (
"282 520 LINE",
"408 520 LINE SMOOTH",
"485 520 OFFCURVE",
"494 487 OFFCURVE",
"480 423 CURVE SMOOTH",
"467 359 OFFCURVE",
"423 328 OFFCURVE",
"360 328 CURVE SMOOTH",
"241 328 LINE"
);
},
{
closed = 1;
nodes = (
"548 717 LINE",
"569 814 LINE",
"252 814 LINE",
"231 717 LINE"
);
}
);
width = 626;
}
);
note = Rdotbelowmacron;
rightKerningGroup = R;
unicode = 1E5C;
},
{
glyphname = Rlinebelow;
lastChange = "2015-10-24 10:08:12 +0000";
layers = (
{
layerId = "CD587521-C2B1-4DF5-9394-E26F9987D7DC";
name = "SemiBold Italic";
paths = (
{
closed = 1;
nodes = (
"172 0 LINE",
"215 204 LINE",
"289 204 LINE SMOOTH",
"324 204 OFFCURVE",
"336 195 OFFCURVE",
"343 164 CURVE SMOOTH",
"381 0 LINE",
"549 0 LINE",
"509 174 LINE SMOOTH",
"502 206 OFFCURVE",
"496 221 OFFCURVE",
"482 236 CURVE",
"564 268 OFFCURVE",
"626 336 OFFCURVE",
"644 423 CURVE SMOOTH",
"673 557 OFFCURVE",
"596 644 OFFCURVE",
"469 644 CURVE SMOOTH",
"147 644 LINE",
"11 0 LINE"
);
},
{
closed = 1;
nodes = (
"381 -166 LINE",
"402 -68 LINE",
"85 -68 LINE",
"64 -166 LINE"
);
},
{
closed = 1;
nodes = (
"282 520 LINE",
"408 520 LINE SMOOTH",
"485 520 OFFCURVE",
"494 487 OFFCURVE",
"480 423 CURVE SMOOTH",
"467 359 OFFCURVE",
"423 328 OFFCURVE",
"360 328 CURVE SMOOTH",
"241 328 LINE"
);
}
);
width = 626;
}
);
note = Rlinebelow;
rightKerningGroup = R;
unicode = 1E5E;
},
{
glyphname = S;
lastChange = "2015-10-24 10:08:12 +0000";
layers = (
{
layerId = "CD587521-C2B1-4DF5-9394-E26F9987D7DC";
name = "SemiBold Italic";
paths = (
{
closed = 1;
nodes = (
"394 -10 OFFCURVE",
"498 66 OFFCURVE",
"522 180 CURVE SMOOTH",
"542 276 OFFCURVE",
"519 342 OFFCURVE",
"370 385 CURVE SMOOTH",
"273 412 OFFCURVE",
"244 423 OFFCURVE",
"253 465 CURVE SMOOTH",
"264 513 OFFCURVE",
"314 521 OFFCURVE",
"386 521 CURVE SMOOTH",
"440 521 OFFCURVE",
"497 511 OFFCURVE",
"550 488 CURVE",
"580 626 LINE",
"539 641 OFFCURVE",
"465 654 OFFCURVE",
"391 654 CURVE SMOOTH",
"219 654 OFFCURVE",
"115 587 OFFCURVE",
"89 464 CURVE SMOOTH",
"67 362 OFFCURVE",
"103 313 OFFCURVE",
"227 274 CURVE SMOOTH",
"331 242 OFFCURVE",
"367 230 OFFCURVE",
"357 180 CURVE SMOOTH",
"346 130 OFFCURVE",
"305 121 OFFCURVE",
"225 121 CURVE SMOOTH",
"161 121 OFFCURVE",
"89 138 OFFCURVE",
"35 164 CURVE",
"6 27 LINE",
"54 3 OFFCURVE",
"128 -10 OFFCURVE",
"213 -10 CURVE SMOOTH"
);
}
);
width = 555;
}
);
leftKerningGroup = S;
note = S;
rightKerningGroup = S;
unicode = 0053;
},
{
glyphname = Sacute;
lastChange = "2015-10-24 10:08:13 +0000";
layers = (
{
layerId = "CD587521-C2B1-4DF5-9394-E26F9987D7DC";
name = "SemiBold Italic";
paths = (
{
closed = 1;
nodes = (
"394 -10 OFFCURVE",
"498 66 OFFCURVE",
"522 180 CURVE SMOOTH",
"542 276 OFFCURVE",
"519 342 OFFCURVE",
"370 385 CURVE SMOOTH",
"273 412 OFFCURVE",
"244 423 OFFCURVE",
"253 465 CURVE SMOOTH",
"264 513 OFFCURVE",
"314 521 OFFCURVE",
"386 521 CURVE SMOOTH",
"440 521 OFFCURVE",
"497 511 OFFCURVE",
"550 488 CURVE",
"580 626 LINE",
"539 641 OFFCURVE",
"465 654 OFFCURVE",
"391 654 CURVE SMOOTH",
"219 654 OFFCURVE",
"115 587 OFFCURVE",
"89 464 CURVE SMOOTH",
"67 362 OFFCURVE",
"103 313 OFFCURVE",
"227 274 CURVE SMOOTH",
"331 242 OFFCURVE",
"367 230 OFFCURVE",
"357 180 CURVE SMOOTH",
"346 130 OFFCURVE",
"305 121 OFFCURVE",
"225 121 CURVE SMOOTH",
"161 121 OFFCURVE",
"89 138 OFFCURVE",
"35 164 CURVE",
"6 27 LINE",
"54 3 OFFCURVE",
"128 -10 OFFCURVE",
"213 -10 CURVE SMOOTH"
);
},
{
closed = 1;
nodes = (
"432 689 LINE",
"566 885 LINE",
"434 885 LINE",
"308 689 LINE"
);
}
);
width = 555;
}
);
leftKerningGroup = S;
note = Sacute;
rightKerningGroup = S;
unicode = 015A;
},
{
glyphname = Scaron;
lastChange = "2015-10-24 10:08:13 +0000";
layers = (
{
layerId = "CD587521-C2B1-4DF5-9394-E26F9987D7DC";
name = "SemiBold Italic";
paths = (
{
closed = 1;
nodes = (
"394 -10 OFFCURVE",
"498 66 OFFCURVE",
"522 180 CURVE SMOOTH",
"542 276 OFFCURVE",
"519 342 OFFCURVE",
"370 385 CURVE SMOOTH",
"273 412 OFFCURVE",
"244 423 OFFCURVE",
"253 465 CURVE SMOOTH",
"264 513 OFFCURVE",
"314 521 OFFCURVE",
"386 521 CURVE SMOOTH",
"440 521 OFFCURVE",
"497 511 OFFCURVE",
"550 488 CURVE",
"580 626 LINE",
"539 641 OFFCURVE",
"465 654 OFFCURVE",
"391 654 CURVE SMOOTH",
"219 654 OFFCURVE",
"115 587 OFFCURVE",
"89 464 CURVE SMOOTH",
"67 362 OFFCURVE",
"103 313 OFFCURVE",
"227 274 CURVE SMOOTH",
"331 242 OFFCURVE",
"367 230 OFFCURVE",
"357 180 CURVE SMOOTH",
"346 130 OFFCURVE",
"305 121 OFFCURVE",
"225 121 CURVE SMOOTH",
"161 121 OFFCURVE",
"89 138 OFFCURVE",
"35 164 CURVE",
"6 27 LINE",
"54 3 OFFCURVE",
"128 -10 OFFCURVE",
"213 -10 CURVE SMOOTH"
);
},
{
closed = 1;
nodes = (
"431 688 LINE",
"616 875 LINE",
"490 875 LINE",
"393 771 LINE",
"343 875 LINE",
"227 875 LINE",
"331 688 LINE"
);
}
);
width = 555;
}
);
leftKerningGroup = S;
note = Scaron;
rightKerningGroup = S;
unicode = 0160;
},
{
glyphname = Scedilla;
lastChange = "2015-10-24 10:08:12 +0000";
layers = (
{
layerId = "CD587521-C2B1-4DF5-9394-E26F9987D7DC";
name = "SemiBold Italic";
paths = (
{
closed = 1;
nodes = (
"268 -240 OFFCURVE",
"327 -202 OFFCURVE",
"341 -136 CURVE SMOOTH",
"352 -80 OFFCURVE",
"326 -43 OFFCURVE",
"251 -43 CURVE",
"272 -7 LINE",
"417 8 OFFCURVE",
"500 79 OFFCURVE",
"522 180 CURVE SMOOTH",
"542 276 OFFCURVE",
"519 342 OFFCURVE",
"370 385 CURVE SMOOTH",
"273 412 OFFCURVE",
"244 423 OFFCURVE",
"253 465 CURVE SMOOTH",
"264 513 OFFCURVE",
"314 521 OFFCURVE",
"386 521 CURVE SMOOTH",
"440 521 OFFCURVE",
"497 511 OFFCURVE",
"550 488 CURVE",
"580 626 LINE",
"539 641 OFFCURVE",
"465 654 OFFCURVE",
"391 654 CURVE SMOOTH",
"219 654 OFFCURVE",
"115 587 OFFCURVE",
"89 464 CURVE SMOOTH",
"67 362 OFFCURVE",
"103 313 OFFCURVE",
"227 274 CURVE SMOOTH",
"331 242 OFFCURVE",
"367 230 OFFCURVE",
"357 180 CURVE SMOOTH",
"346 130 OFFCURVE",
"305 121 OFFCURVE",
"225 121 CURVE SMOOTH",
"161 121 OFFCURVE",
"89 138 OFFCURVE",
"35 164 CURVE",
"6 27 LINE",
"47 6 OFFCURVE",
"106 -5 OFFCURVE",
"175 -9 CURVE",
"130 -100 LINE",
"184 -100 LINE SMOOTH",
"223 -100 OFFCURVE",
"249 -103 OFFCURVE",
"242 -134 CURVE SMOOTH",
"236 -163 OFFCURVE",
"214 -169 OFFCURVE",
"159 -169 CURVE SMOOTH",
"139 -169 OFFCURVE",
"117 -166 OFFCURVE",
"100 -161 CURVE",
"85 -232 LINE",
"99 -236 OFFCURVE",
"139 -240 OFFCURVE",
"162 -240 CURVE SMOOTH"
);
}
);
width = 555;
}
);
leftKerningGroup = S;
note = Scedilla;
rightKerningGroup = S;
unicode = 015E;
},
{
glyphname = Scircumflex;
lastChange = "2015-10-24 10:08:12 +0000";
layers = (
{
layerId = "CD587521-C2B1-4DF5-9394-E26F9987D7DC";
name = "SemiBold Italic";
paths = (
{
closed = 1;
nodes = (
"394 -10 OFFCURVE",
"498 66 OFFCURVE",
"522 180 CURVE SMOOTH",
"542 276 OFFCURVE",
"519 342 OFFCURVE",
"370 385 CURVE SMOOTH",
"273 412 OFFCURVE",
"244 423 OFFCURVE",
"253 465 CURVE SMOOTH",
"264 513 OFFCURVE",
"314 521 OFFCURVE",
"386 521 CURVE SMOOTH",
"440 521 OFFCURVE",
"497 511 OFFCURVE",
"550 488 CURVE",
"580 626 LINE",
"539 641 OFFCURVE",
"465 654 OFFCURVE",
"391 654 CURVE SMOOTH",
"219 654 OFFCURVE",
"115 587 OFFCURVE",
"89 464 CURVE SMOOTH",
"67 362 OFFCURVE",
"103 313 OFFCURVE",
"227 274 CURVE SMOOTH",
"331 242 OFFCURVE",
"367 230 OFFCURVE",
"357 180 CURVE SMOOTH",
"346 130 OFFCURVE",
"305 121 OFFCURVE",
"225 121 CURVE SMOOTH",
"161 121 OFFCURVE",
"89 138 OFFCURVE",
"35 164 CURVE",
"6 27 LINE",
"54 3 OFFCURVE",
"128 -10 OFFCURVE",
"213 -10 CURVE SMOOTH"
);
},
{
closed = 1;
nodes = (
"306 689 LINE",
"400 793 LINE",
"453 689 LINE",
"567 689 LINE",
"462 876 LINE",
"362 876 LINE",
"178 689 LINE"
);
}
);
width = 555;
}
);
leftKerningGroup = S;
note = Scircumflex;
rightKerningGroup = S;
unicode = 015C;
},
{
glyphname = Scommaaccent;
lastChange = "2015-10-24 10:08:12 +0000";
layers = (
{
layerId = "CD587521-C2B1-4DF5-9394-E26F9987D7DC";
name = "SemiBold Italic";
paths = (
{
closed = 1;
nodes = (
"394 -10 OFFCURVE",
"498 66 OFFCURVE",
"522 180 CURVE SMOOTH",
"542 276 OFFCURVE",
"519 342 OFFCURVE",
"370 385 CURVE SMOOTH",
"273 412 OFFCURVE",
"244 423 OFFCURVE",
"253 465 CURVE SMOOTH",
"264 513 OFFCURVE",
"314 521 OFFCURVE",
"386 521 CURVE SMOOTH",
"440 521 OFFCURVE",
"497 511 OFFCURVE",
"550 488 CURVE",
"580 626 LINE",
"539 641 OFFCURVE",
"465 654 OFFCURVE",
"391 654 CURVE SMOOTH",
"219 654 OFFCURVE",
"115 587 OFFCURVE",
"89 464 CURVE SMOOTH",
"67 362 OFFCURVE",
"103 313 OFFCURVE",
"227 274 CURVE SMOOTH",
"331 242 OFFCURVE",
"367 230 OFFCURVE",
"357 180 CURVE SMOOTH",
"346 130 OFFCURVE",
"305 121 OFFCURVE",
"225 121 CURVE SMOOTH",
"161 121 OFFCURVE",
"89 138 OFFCURVE",
"35 164 CURVE",
"6 27 LINE",
"54 3 OFFCURVE",
"128 -10 OFFCURVE",
"213 -10 CURVE SMOOTH"
);
},
{
closed = 1;
nodes = (
"216 -231 LINE",
"300 -45 LINE",
"168 -45 LINE",
"98 -231 LINE"
);
}
);
width = 555;
}
);
leftKerningGroup = S;
note = Scommaaccent;
rightKerningGroup = S;
unicode = 0218;
},
{
glyphname = Sdotaccent;
lastChange = "2015-10-24 10:08:12 +0000";
layers = (
{
layerId = "CD587521-C2B1-4DF5-9394-E26F9987D7DC";
name = "SemiBold Italic";
paths = (
{
closed = 1;
nodes = (
"394 -10 OFFCURVE",
"498 66 OFFCURVE",
"522 180 CURVE SMOOTH",
"542 276 OFFCURVE",
"519 342 OFFCURVE",
"370 385 CURVE SMOOTH",
"273 412 OFFCURVE",
"244 423 OFFCURVE",
"253 465 CURVE SMOOTH",
"264 513 OFFCURVE",
"314 521 OFFCURVE",
"386 521 CURVE SMOOTH",
"440 521 OFFCURVE",
"497 511 OFFCURVE",
"550 488 CURVE",
"580 626 LINE",
"539 641 OFFCURVE",
"465 654 OFFCURVE",
"391 654 CURVE SMOOTH",
"219 654 OFFCURVE",
"115 587 OFFCURVE",
"89 464 CURVE SMOOTH",
"67 362 OFFCURVE",
"103 313 OFFCURVE",
"227 274 CURVE SMOOTH",
"331 242 OFFCURVE",
"367 230 OFFCURVE",
"357 180 CURVE SMOOTH",
"346 130 OFFCURVE",
"305 121 OFFCURVE",
"225 121 CURVE SMOOTH",
"161 121 OFFCURVE",
"89 138 OFFCURVE",
"35 164 CURVE",
"6 27 LINE",
"54 3 OFFCURVE",
"128 -10 OFFCURVE",
"213 -10 CURVE SMOOTH"
);
},
{
closed = 1;
nodes = (
"440 714 LINE",
"464 823 LINE",
"347 823 LINE",
"323 714 LINE"
);
}
);
width = 555;
}
);
leftKerningGroup = S;
note = Sdotaccent;
rightKerningGroup = S;
unicode = 1E60;
},
{
glyphname = Sdotbelow;
lastChange = "2015-10-24 10:08:12 +0000";
layers = (
{
layerId = "CD587521-C2B1-4DF5-9394-E26F9987D7DC";
name = "SemiBold Italic";
paths = (
{
closed = 1;
nodes = (
"394 -10 OFFCURVE",
"498 66 OFFCURVE",
"522 180 CURVE SMOOTH",
"542 276 OFFCURVE",
"519 342 OFFCURVE",
"370 385 CURVE SMOOTH",
"273 412 OFFCURVE",
"244 423 OFFCURVE",
"253 465 CURVE SMOOTH",
"264 513 OFFCURVE",
"314 521 OFFCURVE",
"386 521 CURVE SMOOTH",
"440 521 OFFCURVE",
"497 511 OFFCURVE",
"550 488 CURVE",
"580 626 LINE",
"539 641 OFFCURVE",
"465 654 OFFCURVE",
"391 654 CURVE SMOOTH",
"219 654 OFFCURVE",
"115 587 OFFCURVE",
"89 464 CURVE SMOOTH",
"67 362 OFFCURVE",
"103 313 OFFCURVE",
"227 274 CURVE SMOOTH",
"331 242 OFFCURVE",
"367 230 OFFCURVE",
"357 180 CURVE SMOOTH",
"346 130 OFFCURVE",
"305 121 OFFCURVE",
"225 121 CURVE SMOOTH",
"161 121 OFFCURVE",
"89 138 OFFCURVE",
"35 164 CURVE",
"6 27 LINE",
"54 3 OFFCURVE",
"128 -10 OFFCURVE",
"213 -10 CURVE SMOOTH"
);
},
{
closed = 1;
nodes = (
"253 -179 LINE",
"276 -70 LINE",
"158 -70 LINE",
"135 -179 LINE"
);
}
);
width = 555;
}
);
leftKerningGroup = S;
note = Sdotbelow;
rightKerningGroup = S;
unicode = 1E62;
},
{
glyphname = Germandbls;
lastChange = "2015-10-24 10:08:12 +0000";
layers = (
{
layerId = "CD587521-C2B1-4DF5-9394-E26F9987D7DC";
name = "SemiBold Italic";
paths = (
{
closed = 1;
nodes = (
"481 -10 OFFCURVE",
"575 67 OFFCURVE",
"600 180 CURVE SMOOTH",
"619 265 OFFCURVE",
"571 330 OFFCURVE",
"487 330 CURVE SMOOTH",
"465 330 LINE",
"630 427 LINE",
"657 551 OFFCURVE",
"601 654 OFFCURVE",
"415 654 CURVE SMOOTH",
"233 654 OFFCURVE",
"125 562 OFFCURVE",
"93 413 CURVE SMOOTH",
"6 0 LINE",
"158 0 LINE",
"245 412 LINE SMOOTH",
"260 481 OFFCURVE",
"293 518 OFFCURVE",
"386 518 CURVE SMOOTH",
"463 518 OFFCURVE",
"493 491 OFFCURVE",
"485 455 CURVE",
"314 354 LINE",
"291 245 LINE",
"374 245 LINE SMOOTH",
"425 245 OFFCURVE",
"451 229 OFFCURVE",
"442 186 CURVE SMOOTH",
"432 140 OFFCURVE",
"407 117 OFFCURVE",
"343 117 CURVE SMOOTH",
"309 117 OFFCURVE",
"271 124 OFFCURVE",
"245 136 CURVE",
"219 12 LINE",
"253 -2 OFFCURVE",
"300 -10 OFFCURVE",
"354 -10 CURVE SMOOTH"
);
}
);
width = 633;
}
);
note = uni1E9E;
unicode = 1E9E;
},
{
glyphname = Schwa;
lastChange = "2015-10-24 10:08:11 +0000";
layers = (
{
layerId = "CD587521-C2B1-4DF5-9394-E26F9987D7DC";
name = "SemiBold Italic";
paths = (
{
closed = 1;
nodes = (
"532 -10 OFFCURVE",
"637 115 OFFCURVE",
"679 313 CURVE SMOOTH",
"725 529 OFFCURVE",
"614 654 OFFCURVE",
"406 654 CURVE SMOOTH",
"315 654 OFFCURVE",
"221 634 OFFCURVE",
"155 611 CURVE",
"131 497 LINE",
"186 519 OFFCURVE",
"284 537 OFFCURVE",
"346 537 CURVE SMOOTH",
"516 537 OFFCURVE",
"559 504 OFFCURVE",
"544 389 CURVE",
"73 389 LINE",
"48 271 LINE SMOOTH",
"11 98 OFFCURVE",
"107 -10 OFFCURVE",
"290 -10 CURVE SMOOTH"
);
},
{
closed = 1;
nodes = (
"191 100 OFFCURVE",
"165 151 OFFCURVE",
"182 235 CURVE SMOOTH",
"191 275 LINE",
"520 275 LINE",
"495 159 OFFCURVE",
"431 100 OFFCURVE",
"314 100 CURVE SMOOTH"
);
}
);
width = 684;
}
);
note = uni018F;
unicode = 018F;
},
{
glyphname = T;
lastChange = "2015-10-24 10:08:11 +0000";
layers = (
{
layerId = "CD587521-C2B1-4DF5-9394-E26F9987D7DC";
name = "SemiBold Italic";
paths = (
{
closed = 1;
nodes = (
"321 0 LINE",
"431 520 LINE",
"620 520 LINE",
"646 644 LINE",
"107 644 LINE",
"81 520 LINE",
"270 520 LINE",
"160 0 LINE"
);
}
);
width = 561;
}
);
leftKerningGroup = T;
note = T;
rightKerningGroup = T;
unicode = 0054;
},
{
glyphname = Tbar;
lastChange = "2015-10-24 10:08:11 +0000";
layers = (
{
layerId = "CD587521-C2B1-4DF5-9394-E26F9987D7DC";
name = "SemiBold Italic";
paths = (
{
closed = 1;
nodes = (
"321 0 LINE",
"380 279 LINE",
"489 279 LINE",
"513 392 LINE",
"404 392 LINE",
"431 520 LINE",
"620 520 LINE",
"646 644 LINE",
"107 644 LINE",
"81 520 LINE",
"270 520 LINE",
"243 392 LINE",
"137 392 LINE",
"113 279 LINE",
"219 279 LINE",
"160 0 LINE"
);
}
);
width = 562;
}
);
leftKerningGroup = T;
note = Tbar;
rightKerningGroup = T;
unicode = 0166;
},
{
glyphname = Tcaron;
lastChange = "2015-10-24 10:08:12 +0000";
layers = (
{
layerId = "CD587521-C2B1-4DF5-9394-E26F9987D7DC";
name = "SemiBold Italic";
paths = (
{
closed = 1;
nodes = (
"322 0 LINE",
"432 520 LINE",
"621 520 LINE",
"647 644 LINE",
"108 644 LINE",
"82 520 LINE",
"271 520 LINE",
"161 0 LINE"
);
},
{
closed = 1;
nodes = (
"436 688 LINE",
"621 875 LINE",
"495 875 LINE",
"398 771 LINE",
"348 875 LINE",
"232 875 LINE",
"336 688 LINE"
);
}
);
width = 562;
}
);
leftKerningGroup = T;
note = Tcaron;
rightKerningGroup = T;
unicode = 0164;
},
{
glyphname = Tcedilla;
lastChange = "2015-10-24 10:08:12 +0000";
layers = (
{
layerId = "CD587521-C2B1-4DF5-9394-E26F9987D7DC";
name = "SemiBold Italic";
paths = (
{
closed = 1;
nodes = (
"280 -240 OFFCURVE",
"339 -202 OFFCURVE",
"353 -136 CURVE SMOOTH",
"364 -80 OFFCURVE",
"338 -43 OFFCURVE",
"263 -43 CURVE",
"288 0 LINE",
"322 0 LINE",
"432 520 LINE",
"621 520 LINE",
"647 644 LINE",
"108 644 LINE",
"82 520 LINE",
"271 520 LINE",
"161 0 LINE",
"192 0 LINE",
"142 -100 LINE",
"196 -100 LINE SMOOTH",
"235 -100 OFFCURVE",
"261 -103 OFFCURVE",
"254 -134 CURVE SMOOTH",
"248 -163 OFFCURVE",
"226 -169 OFFCURVE",
"171 -169 CURVE SMOOTH",
"151 -169 OFFCURVE",
"129 -166 OFFCURVE",
"112 -161 CURVE",
"97 -232 LINE",
"111 -236 OFFCURVE",
"151 -240 OFFCURVE",
"174 -240 CURVE SMOOTH"
);
}
);
width = 562;
}
);
leftKerningGroup = T;
note = Tcedilla;
rightKerningGroup = T;
unicode = 0162;
},
{
glyphname = Tcommaaccent;
lastChange = "2015-10-24 10:08:12 +0000";
layers = (
{
layerId = "CD587521-C2B1-4DF5-9394-E26F9987D7DC";
name = "SemiBold Italic";
paths = (
{
closed = 1;
nodes = (
"316 0 LINE",
"426 520 LINE",
"615 520 LINE",
"641 644 LINE",
"102 644 LINE",
"76 520 LINE",
"265 520 LINE",
"155 0 LINE"
);
},
{
closed = 1;
nodes = (
"195 -258 LINE",
"294 -45 LINE",
"165 -45 LINE",
"87 -258 LINE"
);
}
);
width = 556;
}
);
leftKerningGroup = T;
note = Tcommaaccent;
rightKerningGroup = T;
unicode = 021A;
},
{
glyphname = Tdotbelow;
lastChange = "2015-10-24 10:08:13 +0000";
layers = (
{
layerId = "CD587521-C2B1-4DF5-9394-E26F9987D7DC";
name = "SemiBold Italic";
paths = (
{
closed = 1;
nodes = (
"322 0 LINE",
"432 520 LINE",
"621 520 LINE",
"647 644 LINE",
"108 644 LINE",
"82 520 LINE",
"271 520 LINE",
"161 0 LINE"
);
},
{
closed = 1;
nodes = (
"261 -174 LINE",
"284 -65 LINE",
"166 -65 LINE",
"143 -174 LINE"
);
}
);
width = 562;
}
);
leftKerningGroup = T;
note = Tdotbelow;
rightKerningGroup = T;
unicode = 1E6C;
},
{
glyphname = Tlinebelow;
lastChange = "2015-10-24 10:08:12 +0000";
layers = (
{
layerId = "CD587521-C2B1-4DF5-9394-E26F9987D7DC";
name = "SemiBold Italic";
paths = (
{
closed = 1;
nodes = (
"322 0 LINE",
"432 520 LINE",
"621 520 LINE",
"647 644 LINE",
"108 644 LINE",
"82 520 LINE",
"271 520 LINE",
"161 0 LINE"
);
},
{
closed = 1;
nodes = (
"364 -161 LINE",
"385 -63 LINE",
"68 -63 LINE",
"47 -161 LINE"
);
}
);
width = 562;
}
);
leftKerningGroup = T;
note = Tlinebelow;
rightKerningGroup = T;
unicode = 1E6E;
},
{
glyphname = U;
lastChange = "2015-10-24 10:08:11 +0000";
layers = (
{
layerId = "CD587521-C2B1-4DF5-9394-E26F9987D7DC";
name = "SemiBold Italic";
paths = (
{
closed = 1;
nodes = (
"490 -10 OFFCURVE",
"613 71 OFFCURVE",
"650 245 CURVE SMOOTH",
"734 644 LINE",
"573 644 LINE",
"492 260 LINE SMOOTH",
"473 170 OFFCURVE",
"427 127 OFFCURVE",
"328 127 CURVE SMOOTH",
"230 127 OFFCURVE",
"203 170 OFFCURVE",
"222 260 CURVE SMOOTH",
"303 644 LINE",
"142 644 LINE",
"58 245 LINE SMOOTH",
"25 90 OFFCURVE",
"135 -10 OFFCURVE",
"299 -10 CURVE SMOOTH"
);
}
);
width = 684;
}
);
leftKerningGroup = U;
note = U;
rightKerningGroup = U;
unicode = 0055;
},
{
glyphname = Uacute;
lastChange = "2015-10-24 10:08:12 +0000";
layers = (
{
layerId = "CD587521-C2B1-4DF5-9394-E26F9987D7DC";
name = "SemiBold Italic";
paths = (
{
closed = 1;
nodes = (
"490 -10 OFFCURVE",
"613 71 OFFCURVE",
"650 245 CURVE SMOOTH",
"734 644 LINE",
"573 644 LINE",
"492 260 LINE SMOOTH",
"473 170 OFFCURVE",
"427 127 OFFCURVE",
"328 127 CURVE SMOOTH",
"230 127 OFFCURVE",
"203 170 OFFCURVE",
"222 260 CURVE SMOOTH",
"303 644 LINE",
"142 644 LINE",
"58 245 LINE SMOOTH",
"25 90 OFFCURVE",
"135 -10 OFFCURVE",
"299 -10 CURVE SMOOTH"
);
},
{
closed = 1;
nodes = (
"507 688 LINE",
"641 884 LINE",
"509 884 LINE",
"383 688 LINE"
);
}
);
width = 684;
}
);
leftKerningGroup = U;
note = Uacute;
rightKerningGroup = U;
unicode = 00DA;
},
{
glyphname = Ubreve;
lastChange = "2015-10-24 10:08:12 +0000";
layers = (
{
layerId = "CD587521-C2B1-4DF5-9394-E26F9987D7DC";
name = "SemiBold Italic";
paths = (
{
closed = 1;
nodes = (
"490 -10 OFFCURVE",
"613 71 OFFCURVE",
"650 245 CURVE SMOOTH",
"734 644 LINE",
"573 644 LINE",
"492 260 LINE SMOOTH",
"473 170 OFFCURVE",
"427 127 OFFCURVE",
"328 127 CURVE SMOOTH",
"230 127 OFFCURVE",
"203 170 OFFCURVE",
"222 260 CURVE SMOOTH",
"303 644 LINE",
"142 644 LINE",
"58 245 LINE SMOOTH",
"25 90 OFFCURVE",
"135 -10 OFFCURVE",
"299 -10 CURVE SMOOTH"
);
},
{
closed = 1;
nodes = (
"556 688 OFFCURVE",
"631 750 OFFCURVE",
"654 860 CURVE",
"542 860 LINE",
"533 814 OFFCURVE",
"505 778 OFFCURVE",
"456 778 CURVE SMOOTH",
"404 778 OFFCURVE",
"395 809 OFFCURVE",
"406 860 CURVE",
"307 860 LINE",
"284 750 OFFCURVE",
"341 688 OFFCURVE",
"443 688 CURVE SMOOTH"
);
}
);
width = 684;
}
);
leftKerningGroup = U;
note = Ubreve;
rightKerningGroup = U;
unicode = 016C;
},
{
glyphname = Ucaron;
lastChange = "2015-10-24 10:08:12 +0000";
layers = (
{
layerId = "CD587521-C2B1-4DF5-9394-E26F9987D7DC";
name = "SemiBold Italic";
paths = (
{
closed = 1;
nodes = (
"490 -10 OFFCURVE",
"613 71 OFFCURVE",
"650 245 CURVE SMOOTH",
"734 644 LINE",
"573 644 LINE",
"492 260 LINE SMOOTH",
"473 170 OFFCURVE",
"427 127 OFFCURVE",
"328 127 CURVE SMOOTH",
"230 127 OFFCURVE",
"203 170 OFFCURVE",
"222 260 CURVE SMOOTH",
"303 644 LINE",
"142 644 LINE",
"58 245 LINE SMOOTH",
"25 90 OFFCURVE",
"135 -10 OFFCURVE",
"299 -10 CURVE SMOOTH"
);
},
{
closed = 1;
nodes = (
"496 688 LINE",
"681 875 LINE",
"555 875 LINE",
"458 771 LINE",
"408 875 LINE",
"292 875 LINE",
"396 688 LINE"
);
}
);
width = 684;
}
);
leftKerningGroup = U;
note = Ucaron;
rightKerningGroup = U;
unicode = 01D3;
},
{
glyphname = Ucircumflex;
lastChange = "2015-10-24 10:08:12 +0000";
layers = (
{
layerId = "CD587521-C2B1-4DF5-9394-E26F9987D7DC";
name = "SemiBold Italic";
paths = (
{
closed = 1;
nodes = (
"490 -10 OFFCURVE",
"613 71 OFFCURVE",
"650 245 CURVE SMOOTH",
"734 644 LINE",
"573 644 LINE",
"492 260 LINE SMOOTH",
"473 170 OFFCURVE",
"427 127 OFFCURVE",
"328 127 CURVE SMOOTH",
"230 127 OFFCURVE",
"203 170 OFFCURVE",
"222 260 CURVE SMOOTH",
"303 644 LINE",
"142 644 LINE",
"58 245 LINE SMOOTH",
"25 90 OFFCURVE",
"135 -10 OFFCURVE",
"299 -10 CURVE SMOOTH"
);
},
{
closed = 1;
nodes = (
"381 687 LINE",
"475 791 LINE",
"528 687 LINE",
"642 687 LINE",
"537 874 LINE",
"437 874 LINE",
"253 687 LINE"
);
}
);
width = 684;
}
);
leftKerningGroup = U;
note = Ucircumflex;
rightKerningGroup = U;
unicode = 00DB;
},
{
glyphname = Udieresis;
lastChange = "2015-10-24 10:08:12 +0000";
layers = (
{
layerId = "CD587521-C2B1-4DF5-9394-E26F9987D7DC";
name = "SemiBold Italic";
paths = (
{
closed = 1;
nodes = (
"490 -10 OFFCURVE",
"613 71 OFFCURVE",
"650 245 CURVE SMOOTH",
"734 644 LINE",
"573 644 LINE",
"492 260 LINE SMOOTH",
"473 170 OFFCURVE",
"427 127 OFFCURVE",
"328 127 CURVE SMOOTH",
"230 127 OFFCURVE",
"203 170 OFFCURVE",
"222 260 CURVE SMOOTH",
"303 644 LINE",
"142 644 LINE",
"58 245 LINE SMOOTH",
"25 90 OFFCURVE",
"135 -10 OFFCURVE",
"299 -10 CURVE SMOOTH"
);
},
{
closed = 1;
nodes = (
"408 714 LINE",
"432 823 LINE",
"315 823 LINE",
"291 714 LINE"
);
},
{
closed = 1;
nodes = (
"614 714 LINE",
"638 823 LINE",
"520 823 LINE",
"496 714 LINE"
);
}
);
width = 684;
}
);
leftKerningGroup = U;
note = Udieresis;
rightKerningGroup = U;
unicode = 00DC;
},
{
glyphname = Udieresisacute;
lastChange = "2015-10-24 10:08:12 +0000";
layers = (
{
layerId = "CD587521-C2B1-4DF5-9394-E26F9987D7DC";
name = "SemiBold Italic";
paths = (
{
closed = 1;
nodes = (
"490 -10 OFFCURVE",
"613 71 OFFCURVE",
"650 245 CURVE SMOOTH",
"734 644 LINE",
"573 644 LINE",
"492 260 LINE SMOOTH",
"473 170 OFFCURVE",
"427 127 OFFCURVE",
"328 127 CURVE SMOOTH",
"230 127 OFFCURVE",
"203 170 OFFCURVE",
"222 260 CURVE SMOOTH",
"303 644 LINE",
"142 644 LINE",
"58 245 LINE SMOOTH",
"25 90 OFFCURVE",
"135 -10 OFFCURVE",
"299 -10 CURVE SMOOTH"
);
},
{
closed = 1;
nodes = (
"401 689 LINE",
"423 792 LINE",
"309 792 LINE",
"287 689 LINE"
);
},
{
closed = 1;
nodes = (
"609 689 LINE",
"631 792 LINE",
"517 792 LINE",
"495 689 LINE"
);
},
{
closed = 1;
nodes = (
"527 815 LINE",
"624 948 LINE",
"503 948 LINE",
"416 815 LINE"
);
}
);
width = 684;
}
);
leftKerningGroup = U;
note = Udieresisacute;
rightKerningGroup = U;
unicode = 01D7;
},
{
glyphname = Udieresiscaron;
lastChange = "2015-10-24 10:08:12 +0000";
layers = (
{
layerId = "CD587521-C2B1-4DF5-9394-E26F9987D7DC";
name = "SemiBold Italic";
paths = (
{
closed = 1;
nodes = (
"490 -10 OFFCURVE",
"613 71 OFFCURVE",
"650 245 CURVE SMOOTH",
"734 644 LINE",
"573 644 LINE",
"492 260 LINE SMOOTH",
"473 170 OFFCURVE",
"427 127 OFFCURVE",
"328 127 CURVE SMOOTH",
"230 127 OFFCURVE",
"203 170 OFFCURVE",
"222 260 CURVE SMOOTH",
"303 644 LINE",
"142 644 LINE",
"58 245 LINE SMOOTH",
"25 90 OFFCURVE",
"135 -10 OFFCURVE",
"299 -10 CURVE SMOOTH"
);
},
{
closed = 1;
nodes = (
"401 688 LINE",
"423 791 LINE",
"309 791 LINE",
"287 688 LINE"
);
},
{
closed = 1;
nodes = (
"608 688 LINE",
"630 791 LINE",
"517 791 LINE",
"495 688 LINE"
);
},
{
closed = 1;
nodes = (
"531 812 LINE",
"676 939 LINE",
"554 939 LINE",
"482 866 LINE",
"440 939 LINE",
"327 939 LINE",
"420 812 LINE"
);
}
);
width = 684;
}
);
leftKerningGroup = U;
note = Udieresiscaron;
rightKerningGroup = U;
unicode = 01D9;
},
{
glyphname = Udieresisgrave;
lastChange = "2015-10-24 10:08:12 +0000";
layers = (
{
layerId = "CD587521-C2B1-4DF5-9394-E26F9987D7DC";
name = "SemiBold Italic";
paths = (
{
closed = 1;
nodes = (
"490 -10 OFFCURVE",
"613 71 OFFCURVE",
"650 245 CURVE SMOOTH",
"734 644 LINE",
"573 644 LINE",
"492 260 LINE SMOOTH",
"473 170 OFFCURVE",
"427 127 OFFCURVE",
"328 127 CURVE SMOOTH",
"230 127 OFFCURVE",
"203 170 OFFCURVE",
"222 260 CURVE SMOOTH",
"303 644 LINE",
"142 644 LINE",
"58 245 LINE SMOOTH",
"25 90 OFFCURVE",
"135 -10 OFFCURVE",
"299 -10 CURVE SMOOTH"
);
},
{
closed = 1;
nodes = (
"401 688 LINE",
"423 791 LINE",
"309 791 LINE",
"287 688 LINE"
);
},
{
closed = 1;
nodes = (
"609 688 LINE",
"631 791 LINE",
"517 791 LINE",
"495 688 LINE"
);
},
{
closed = 1;
nodes = (
"532 814 LINE",
"503 947 LINE",
"382 947 LINE",
"421 814 LINE"
);
}
);
width = 684;
}
);
leftKerningGroup = U;
note = Udieresisgrave;
rightKerningGroup = U;
unicode = 01DB;
},
{
glyphname = Udieresismacron;
lastChange = "2015-10-24 10:08:11 +0000";
layers = (
{
layerId = "CD587521-C2B1-4DF5-9394-E26F9987D7DC";
name = "SemiBold Italic";
paths = (
{
closed = 1;
nodes = (
"490 -10 OFFCURVE",
"613 71 OFFCURVE",
"650 245 CURVE SMOOTH",
"734 644 LINE",
"573 644 LINE",
"492 260 LINE SMOOTH",
"473 170 OFFCURVE",
"427 127 OFFCURVE",
"328 127 CURVE SMOOTH",
"230 127 OFFCURVE",
"203 170 OFFCURVE",
"222 260 CURVE SMOOTH",
"303 644 LINE",
"142 644 LINE",
"58 245 LINE SMOOTH",
"25 90 OFFCURVE",
"135 -10 OFFCURVE",
"299 -10 CURVE SMOOTH"
);
},
{
closed = 1;
nodes = (
"403 688 LINE",
"427 797 LINE",
"310 797 LINE",
"286 688 LINE"
);
},
{
closed = 1;
nodes = (
"609 688 LINE",
"633 797 LINE",
"515 797 LINE",
"491 688 LINE"
);
},
{
closed = 1;
nodes = (
"640 854 LINE",
"661 951 LINE",
"344 951 LINE",
"323 854 LINE"
);
}
);
width = 684;
}
);
leftKerningGroup = U;
note = Udieresismacron;
rightKerningGroup = U;
unicode = 01D5;
},
{
glyphname = Udotbelow;
lastChange = "2015-10-24 10:08:12 +0000";
layers = (
{
layerId = "CD587521-C2B1-4DF5-9394-E26F9987D7DC";
name = "SemiBold Italic";
paths = (
{
closed = 1;
nodes = (
"490 -10 OFFCURVE",
"613 71 OFFCURVE",
"650 245 CURVE SMOOTH",
"734 644 LINE",
"573 644 LINE",
"492 260 LINE SMOOTH",
"473 170 OFFCURVE",
"427 127 OFFCURVE",
"328 127 CURVE SMOOTH",
"230 127 OFFCURVE",
"203 170 OFFCURVE",
"222 260 CURVE SMOOTH",
"303 644 LINE",
"142 644 LINE",
"58 245 LINE SMOOTH",
"25 90 OFFCURVE",
"135 -10 OFFCURVE",
"299 -10 CURVE SMOOTH"
);
},
{
closed = 1;
nodes = (
"322 -179 LINE",
"345 -70 LINE",
"227 -70 LINE",
"204 -179 LINE"
);
}
);
width = 684;
}
);
leftKerningGroup = U;
note = Udotbelow;
rightKerningGroup = U;
unicode = 1EE4;
},
{
glyphname = Ugrave;
lastChange = "2015-10-24 10:08:12 +0000";
layers = (
{
layerId = "CD587521-C2B1-4DF5-9394-E26F9987D7DC";
name = "SemiBold Italic";
paths = (
{
closed = 1;
nodes = (
"490 -10 OFFCURVE",
"613 71 OFFCURVE",
"650 245 CURVE SMOOTH",
"734 644 LINE",
"573 644 LINE",
"492 260 LINE SMOOTH",
"473 170 OFFCURVE",
"427 127 OFFCURVE",
"328 127 CURVE SMOOTH",
"230 127 OFFCURVE",
"203 170 OFFCURVE",
"222 260 CURVE SMOOTH",
"303 644 LINE",
"142 644 LINE",
"58 245 LINE SMOOTH",
"25 90 OFFCURVE",
"135 -10 OFFCURVE",
"299 -10 CURVE SMOOTH"
);
},
{
closed = 1;
nodes = (
"518 688 LINE",
"476 884 LINE",
"344 884 LINE",
"395 688 LINE"
);
}
);
width = 684;
}
);
leftKerningGroup = U;
note = Ugrave;
rightKerningGroup = U;
unicode = 00D9;
},
{
glyphname = Uhookabove;
lastChange = "2015-10-24 10:08:13 +0000";
layers = (
{
layerId = "CD587521-C2B1-4DF5-9394-E26F9987D7DC";
name = "SemiBold Italic";
paths = (
{
closed = 1;
nodes = (
"490 -10 OFFCURVE",
"613 71 OFFCURVE",
"650 245 CURVE SMOOTH",
"734 644 LINE",
"573 644 LINE",
"492 260 LINE SMOOTH",
"473 170 OFFCURVE",
"427 127 OFFCURVE",
"328 127 CURVE SMOOTH",
"230 127 OFFCURVE",
"203 170 OFFCURVE",
"222 260 CURVE SMOOTH",
"303 644 LINE",
"142 644 LINE",
"58 245 LINE SMOOTH",
"25 90 OFFCURVE",
"135 -10 OFFCURVE",
"299 -10 CURVE SMOOTH"
);
},
{
closed = 1;
nodes = (
"508 688 LINE",
"517 732 LINE",
"579 746 OFFCURVE",
"610 772 OFFCURVE",
"623 829 CURVE SMOOTH",
"635 888 OFFCURVE",
"596 928 OFFCURVE",
"508 928 CURVE SMOOTH",
"465 928 OFFCURVE",
"426 923 OFFCURVE",
"398 914 CURVE",
"382 842 LINE",
"399 847 OFFCURVE",
"425 851 OFFCURVE",
"444 851 CURVE SMOOTH",
"485 851 OFFCURVE",
"507 840 OFFCURVE",
"502 815 CURVE SMOOTH",
"496 788 OFFCURVE",
"475 773 OFFCURVE",
"403 769 CURVE",
"386 688 LINE"
);
}
);
width = 684;
}
);
leftKerningGroup = U;
note = Uhookabove;
rightKerningGroup = U;
unicode = 1EE6;
},
{
glyphname = Uhorn;
lastChange = "2015-10-24 10:08:12 +0000";
layers = (
{
layerId = "CD587521-C2B1-4DF5-9394-E26F9987D7DC";
name = "SemiBold Italic";
paths = (
{
closed = 1;
nodes = (
"490 -10 OFFCURVE",
"613 71 OFFCURVE",
"650 245 CURVE SMOOTH",
"699 479 LINE",
"846 481 OFFCURVE",
"916 532 OFFCURVE",
"949 688 CURVE",
"834 688 LINE",
"818 612 OFFCURVE",
"786 587 OFFCURVE",
"721 585 CURVE",
"734 644 LINE",
"573 644 LINE",
"492 260 LINE SMOOTH",
"473 170 OFFCURVE",
"427 127 OFFCURVE",
"328 127 CURVE SMOOTH",
"230 127 OFFCURVE",
"203 170 OFFCURVE",
"222 260 CURVE SMOOTH",
"303 644 LINE",
"142 644 LINE",
"58 245 LINE SMOOTH",
"25 90 OFFCURVE",
"135 -10 OFFCURVE",
"299 -10 CURVE SMOOTH"
);
}
);
width = 854;
}
);
leftKerningGroup = U;
note = Uhorn;
rightKerningGroup = U;
unicode = 01AF;
},
{
glyphname = Uhornacute;
lastChange = "2015-10-24 10:08:13 +0000";
layers = (
{
layerId = "CD587521-C2B1-4DF5-9394-E26F9987D7DC";
name = "SemiBold Italic";
paths = (
{
closed = 1;
nodes = (
"490 -10 OFFCURVE",
"613 71 OFFCURVE",
"650 245 CURVE SMOOTH",
"699 479 LINE",
"846 481 OFFCURVE",
"916 532 OFFCURVE",
"949 688 CURVE",
"834 688 LINE",
"818 612 OFFCURVE",
"786 587 OFFCURVE",
"721 585 CURVE",
"734 644 LINE",
"573 644 LINE",
"492 260 LINE SMOOTH",
"473 170 OFFCURVE",
"427 127 OFFCURVE",
"328 127 CURVE SMOOTH",
"230 127 OFFCURVE",
"203 170 OFFCURVE",
"222 260 CURVE SMOOTH",
"303 644 LINE",
"142 644 LINE",
"58 245 LINE SMOOTH",
"25 90 OFFCURVE",
"135 -10 OFFCURVE",
"299 -10 CURVE SMOOTH"
);
},
{
closed = 1;
nodes = (
"508 688 LINE",
"642 884 LINE",
"510 884 LINE",
"384 688 LINE"
);
}
);
width = 849;
}
);
leftKerningGroup = U;
note = Uhornacute;
rightKerningGroup = U;
unicode = 1EE8;
},
{
glyphname = Uhorndotbelow;
lastChange = "2015-10-24 10:08:13 +0000";
layers = (
{
layerId = "CD587521-C2B1-4DF5-9394-E26F9987D7DC";
name = "SemiBold Italic";
paths = (
{
closed = 1;
nodes = (
"490 -10 OFFCURVE",
"613 71 OFFCURVE",
"650 245 CURVE SMOOTH",
"699 479 LINE",
"846 481 OFFCURVE",
"916 532 OFFCURVE",
"949 688 CURVE",
"834 688 LINE",
"818 612 OFFCURVE",
"786 587 OFFCURVE",
"721 585 CURVE",
"734 644 LINE",
"573 644 LINE",
"492 260 LINE SMOOTH",
"473 170 OFFCURVE",
"427 127 OFFCURVE",
"328 127 CURVE SMOOTH",
"230 127 OFFCURVE",
"203 170 OFFCURVE",
"222 260 CURVE SMOOTH",
"303 644 LINE",
"142 644 LINE",
"58 245 LINE SMOOTH",
"25 90 OFFCURVE",
"135 -10 OFFCURVE",
"299 -10 CURVE SMOOTH"
);
},
{
closed = 1;
nodes = (
"324 -179 LINE",
"347 -70 LINE",
"229 -70 LINE",
"206 -179 LINE"
);
}
);
width = 854;
}
);
leftKerningGroup = U;
note = Uhorndotbelow;
rightKerningGroup = U;
unicode = 1EF0;
},
{
glyphname = Uhorngrave;
lastChange = "2015-10-24 10:08:12 +0000";
layers = (
{
layerId = "CD587521-C2B1-4DF5-9394-E26F9987D7DC";
name = "SemiBold Italic";
paths = (
{
closed = 1;
nodes = (
"490 -10 OFFCURVE",
"613 71 OFFCURVE",
"650 245 CURVE SMOOTH",
"699 479 LINE",
"846 481 OFFCURVE",
"916 532 OFFCURVE",
"949 688 CURVE",
"834 688 LINE",
"818 612 OFFCURVE",
"786 587 OFFCURVE",
"721 585 CURVE",
"734 644 LINE",
"573 644 LINE",
"492 260 LINE SMOOTH",
"473 170 OFFCURVE",
"427 127 OFFCURVE",
"328 127 CURVE SMOOTH",
"230 127 OFFCURVE",
"203 170 OFFCURVE",
"222 260 CURVE SMOOTH",
"303 644 LINE",
"142 644 LINE",
"58 245 LINE SMOOTH",
"25 90 OFFCURVE",
"135 -10 OFFCURVE",
"299 -10 CURVE SMOOTH"
);
},
{
closed = 1;
nodes = (
"517 688 LINE",
"475 884 LINE",
"343 884 LINE",
"394 688 LINE"
);
}
);
width = 849;
}
);
leftKerningGroup = U;
note = Uhorngrave;
rightKerningGroup = U;
unicode = 1EEA;
},
{
glyphname = Uhornhookabove;
lastChange = "2015-10-24 10:08:13 +0000";
layers = (
{
layerId = "CD587521-C2B1-4DF5-9394-E26F9987D7DC";
name = "SemiBold Italic";
paths = (
{
closed = 1;
nodes = (
"490 -10 OFFCURVE",
"613 71 OFFCURVE",
"650 245 CURVE SMOOTH",
"699 479 LINE",
"846 481 OFFCURVE",
"916 532 OFFCURVE",
"949 688 CURVE",
"834 688 LINE",
"818 612 OFFCURVE",
"786 587 OFFCURVE",
"721 585 CURVE",
"734 644 LINE",
"573 644 LINE",
"492 260 LINE SMOOTH",
"473 170 OFFCURVE",
"427 127 OFFCURVE",
"328 127 CURVE SMOOTH",
"230 127 OFFCURVE",
"203 170 OFFCURVE",
"222 260 CURVE SMOOTH",
"303 644 LINE",
"142 644 LINE",
"58 245 LINE SMOOTH",
"25 90 OFFCURVE",
"135 -10 OFFCURVE",
"299 -10 CURVE SMOOTH"
);
},
{
closed = 1;
nodes = (
"497 688 LINE",
"506 732 LINE",
"568 746 OFFCURVE",
"599 772 OFFCURVE",
"612 829 CURVE SMOOTH",
"624 888 OFFCURVE",
"585 928 OFFCURVE",
"497 928 CURVE SMOOTH",
"454 928 OFFCURVE",
"415 923 OFFCURVE",
"387 914 CURVE",
"371 842 LINE",
"388 847 OFFCURVE",
"414 851 OFFCURVE",
"433 851 CURVE SMOOTH",
"474 851 OFFCURVE",
"496 840 OFFCURVE",
"491 815 CURVE SMOOTH",
"485 788 OFFCURVE",
"464 773 OFFCURVE",
"392 769 CURVE",
"375 688 LINE"
);
}
);
width = 849;
}
);
leftKerningGroup = U;
note = Uhornhookabove;
rightKerningGroup = U;
unicode = 1EEC;
},
{
glyphname = Uhorntilde;
lastChange = "2015-10-24 10:08:12 +0000";
layers = (
{
layerId = "CD587521-C2B1-4DF5-9394-E26F9987D7DC";
name = "SemiBold Italic";
paths = (
{
closed = 1;
nodes = (
"490 -10 OFFCURVE",
"613 71 OFFCURVE",
"650 245 CURVE SMOOTH",
"699 479 LINE",
"846 481 OFFCURVE",
"916 532 OFFCURVE",
"949 688 CURVE",
"834 688 LINE",
"818 612 OFFCURVE",
"786 587 OFFCURVE",
"721 585 CURVE",
"734 644 LINE",
"573 644 LINE",
"492 260 LINE SMOOTH",
"473 170 OFFCURVE",
"427 127 OFFCURVE",
"328 127 CURVE SMOOTH",
"230 127 OFFCURVE",
"203 170 OFFCURVE",
"222 260 CURVE SMOOTH",
"303 644 LINE",
"142 644 LINE",
"58 245 LINE SMOOTH",
"25 90 OFFCURVE",
"135 -10 OFFCURVE",
"299 -10 CURVE SMOOTH"
);
},
{
closed = 1;
nodes = (
"580 694 OFFCURVE",
"616 708 OFFCURVE",
"633 726 CURVE",
"656 834 LINE",
"634 810 OFFCURVE",
"601 795 OFFCURVE",
"561 795 CURVE SMOOTH",
"502 795 OFFCURVE",
"463 836 OFFCURVE",
"399 836 CURVE SMOOTH",
"362 836 OFFCURVE",
"324 822 OFFCURVE",
"301 804 CURVE",
"278 697 LINE",
"307 721 OFFCURVE",
"341 735 OFFCURVE",
"380 735 CURVE SMOOTH",
"432 735 OFFCURVE",
"480 694 OFFCURVE",
"542 694 CURVE SMOOTH"
);
}
);
width = 854;
}
);
leftKerningGroup = U;
note = Uhorntilde;
rightKerningGroup = U;
unicode = 1EEE;
},
{
glyphname = Uhungarumlaut;
lastChange = "2015-10-24 10:08:11 +0000";
layers = (
{
layerId = "CD587521-C2B1-4DF5-9394-E26F9987D7DC";
name = "SemiBold Italic";
paths = (
{
closed = 1;
nodes = (
"490 -10 OFFCURVE",
"613 71 OFFCURVE",
"650 245 CURVE SMOOTH",
"734 644 LINE",
"573 644 LINE",
"492 260 LINE SMOOTH",
"473 170 OFFCURVE",
"427 127 OFFCURVE",
"328 127 CURVE SMOOTH",
"230 127 OFFCURVE",
"203 170 OFFCURVE",
"222 260 CURVE SMOOTH",
"303 644 LINE",
"142 644 LINE",
"58 245 LINE SMOOTH",
"25 90 OFFCURVE",
"135 -10 OFFCURVE",
"299 -10 CURVE SMOOTH"
);
},
{
closed = 1;
nodes = (
"372 687 LINE",
"506 867 LINE",
"368 867 LINE",
"248 687 LINE"
);
},
{
closed = 1;
nodes = (
"602 687 LINE",
"737 867 LINE",
"598 867 LINE",
"478 687 LINE"
);
}
);
width = 684;
}
);
leftKerningGroup = U;
note = Uhungarumlaut;
rightKerningGroup = U;
unicode = 0170;
},
{
glyphname = Umacron;
lastChange = "2015-10-24 10:08:12 +0000";
layers = (
{
layerId = "CD587521-C2B1-4DF5-9394-E26F9987D7DC";
name = "SemiBold Italic";
paths = (
{
closed = 1;
nodes = (
"490 -10 OFFCURVE",
"613 71 OFFCURVE",
"650 245 CURVE SMOOTH",
"734 644 LINE",
"573 644 LINE",
"492 260 LINE SMOOTH",
"473 170 OFFCURVE",
"427 127 OFFCURVE",
"328 127 CURVE SMOOTH",
"230 127 OFFCURVE",
"203 170 OFFCURVE",
"222 260 CURVE SMOOTH",
"303 644 LINE",
"142 644 LINE",
"58 245 LINE SMOOTH",
"25 90 OFFCURVE",
"135 -10 OFFCURVE",
"299 -10 CURVE SMOOTH"
);
},
{
closed = 1;
nodes = (
"612 723 LINE",
"633 820 LINE",
"316 820 LINE",
"295 723 LINE"
);
}
);
width = 684;
}
);
leftKerningGroup = U;
note = Umacron;
rightKerningGroup = U;
unicode = 016A;
},
{
glyphname = Uogonek;
lastChange = "2015-10-24 10:08:12 +0000";
layers = (
{
layerId = "CD587521-C2B1-4DF5-9394-E26F9987D7DC";
name = "SemiBold Italic";
paths = (
{
closed = 1;
nodes = (
"316 -220 OFFCURVE",
"354 -213 OFFCURVE",
"375 -205 CURVE",
"392 -124 LINE",
"379 -131 OFFCURVE",
"357 -135 OFFCURVE",
"340 -135 CURVE SMOOTH",
"314 -135 OFFCURVE",
"299 -124 OFFCURVE",
"305 -97 CURVE SMOOTH",
"312 -63 OFFCURVE",
"341 -31 OFFCURVE",
"381 -4 CURVE",
"525 16 OFFCURVE",
"618 97 OFFCURVE",
"650 245 CURVE SMOOTH",
"734 644 LINE",
"573 644 LINE",
"492 260 LINE SMOOTH",
"473 170 OFFCURVE",
"427 127 OFFCURVE",
"328 127 CURVE SMOOTH",
"230 127 OFFCURVE",
"203 170 OFFCURVE",
"222 260 CURVE SMOOTH",
"303 644 LINE",
"142 644 LINE",
"58 245 LINE SMOOTH",
"27 102 OFFCURVE",
"118 5 OFFCURVE",
"261 -8 CURVE",
"217 -38 OFFCURVE",
"185 -80 OFFCURVE",
"176 -126 CURVE SMOOTH",
"162 -191 OFFCURVE",
"211 -220 OFFCURVE",
"279 -220 CURVE SMOOTH"
);
}
);
width = 684;
}
);
leftKerningGroup = U;
note = Uogonek;
rightKerningGroup = U;
unicode = 0172;
},
{
glyphname = Uring;
lastChange = "2015-10-24 10:08:12 +0000";
layers = (
{
layerId = "CD587521-C2B1-4DF5-9394-E26F9987D7DC";
name = "SemiBold Italic";
paths = (
{
closed = 1;
nodes = (
"490 -10 OFFCURVE",
"613 71 OFFCURVE",
"650 245 CURVE SMOOTH",
"734 644 LINE",
"573 644 LINE",
"492 260 LINE SMOOTH",
"473 170 OFFCURVE",
"427 127 OFFCURVE",
"328 127 CURVE SMOOTH",
"230 127 OFFCURVE",
"203 170 OFFCURVE",
"222 260 CURVE SMOOTH",
"303 644 LINE",
"142 644 LINE",
"58 245 LINE SMOOTH",
"25 90 OFFCURVE",
"135 -10 OFFCURVE",
"299 -10 CURVE SMOOTH"
);
},
{
closed = 1;
nodes = (
"535 687 OFFCURVE",
"589 742 OFFCURVE",
"604 812 CURVE SMOOTH",
"619 883 OFFCURVE",
"583 938 OFFCURVE",
"499 938 CURVE SMOOTH",
"413 938 OFFCURVE",
"357 883 OFFCURVE",
"342 812 CURVE SMOOTH",
"327 742 OFFCURVE",
"365 687 OFFCURVE",
"446 687 CURVE SMOOTH"
);
},
{
closed = 1;
nodes = (
"420 757 OFFCURVE",
"409 781 OFFCURVE",
"415 812 CURVE SMOOTH",
"422 843 OFFCURVE",
"449 868 OFFCURVE",
"484 868 CURVE SMOOTH",
"528 868 OFFCURVE",
"537 843 OFFCURVE",
"530 812 CURVE SMOOTH",
"524 781 OFFCURVE",
"498 757 OFFCURVE",
"461 757 CURVE SMOOTH"
);
}
);
width = 684;
}
);
leftKerningGroup = U;
note = Uring;
rightKerningGroup = U;
unicode = 016E;
},
{
glyphname = Utilde;
lastChange = "2015-10-24 10:08:13 +0000";
layers = (
{
layerId = "CD587521-C2B1-4DF5-9394-E26F9987D7DC";
name = "SemiBold Italic";
paths = (
{
closed = 1;
nodes = (
"490 -10 OFFCURVE",
"613 71 OFFCURVE",
"650 245 CURVE SMOOTH",
"734 644 LINE",
"573 644 LINE",
"492 260 LINE SMOOTH",
"473 170 OFFCURVE",
"427 127 OFFCURVE",
"328 127 CURVE SMOOTH",
"230 127 OFFCURVE",
"203 170 OFFCURVE",
"222 260 CURVE SMOOTH",
"303 644 LINE",
"142 644 LINE",
"58 245 LINE SMOOTH",
"25 90 OFFCURVE",
"135 -10 OFFCURVE",
"299 -10 CURVE SMOOTH"
);
},
{
closed = 1;
nodes = (
"578 698 OFFCURVE",
"614 712 OFFCURVE",
"631 730 CURVE",
"654 838 LINE",
"632 814 OFFCURVE",
"599 799 OFFCURVE",
"559 799 CURVE SMOOTH",
"500 799 OFFCURVE",
"461 840 OFFCURVE",
"397 840 CURVE SMOOTH",
"360 840 OFFCURVE",
"322 826 OFFCURVE",
"299 808 CURVE",
"276 701 LINE",
"305 725 OFFCURVE",
"339 739 OFFCURVE",
"378 739 CURVE SMOOTH",
"430 739 OFFCURVE",
"478 698 OFFCURVE",
"540 698 CURVE SMOOTH"
);
}
);
width = 684;
}
);
leftKerningGroup = U;
note = Utilde;
rightKerningGroup = U;
unicode = 0168;
},
{
glyphname = V;
lastChange = "2015-10-24 10:08:12 +0000";
layers = (
{
layerId = "CD587521-C2B1-4DF5-9394-E26F9987D7DC";
name = "SemiBold Italic";
paths = (
{
closed = 1;
nodes = (
"411 0 LINE",
"793 644 LINE",
"618 644 LINE",
"356 184 LINE",
"289 644 LINE",
"127 644 LINE",
"237 0 LINE"
);
}
);
width = 728;
}
);
note = V;
unicode = 0056;
},
{
glyphname = W;
lastChange = "2015-10-24 10:08:12 +0000";
layers = (
{
layerId = "CD587521-C2B1-4DF5-9394-E26F9987D7DC";
name = "SemiBold Italic";
paths = (
{
closed = 1;
nodes = (
"294 0 LINE",
"489 372 LINE",
"518 0 LINE",
"663 0 LINE",
"948 644 LINE",
"790 644 LINE",
"619 255 LINE",
"590 644 LINE",
"458 644 LINE",
"439 553 LINE",
"288 256 LINE",
"285 644 LINE",
"127 644 LINE",
"141 0 LINE"
);
}
);
width = 883;
}
);
leftKerningGroup = W;
note = W;
rightKerningGroup = W;
unicode = 0057;
},
{
glyphname = Wacute;
lastChange = "2015-10-24 10:08:12 +0000";
layers = (
{
layerId = "CD587521-C2B1-4DF5-9394-E26F9987D7DC";
name = "SemiBold Italic";
paths = (
{
closed = 1;
nodes = (
"294 0 LINE",
"489 372 LINE",
"518 0 LINE",
"663 0 LINE",
"948 644 LINE",
"790 644 LINE",
"619 255 LINE",
"590 644 LINE",
"458 644 LINE",
"439 553 LINE",
"288 256 LINE",
"285 644 LINE",
"127 644 LINE",
"141 0 LINE"
);
},
{
closed = 1;
nodes = (
"595 688 LINE",
"729 884 LINE",
"597 884 LINE",
"471 688 LINE"
);
}
);
width = 883;
}
);
leftKerningGroup = W;
note = Wacute;
rightKerningGroup = W;
unicode = 1E82;
},
{
glyphname = Wcircumflex;
lastChange = "2015-10-24 10:08:12 +0000";
layers = (
{
layerId = "CD587521-C2B1-4DF5-9394-E26F9987D7DC";
name = "SemiBold Italic";
paths = (
{
closed = 1;
nodes = (
"294 0 LINE",
"489 372 LINE",
"518 0 LINE",
"663 0 LINE",
"948 644 LINE",
"790 644 LINE",
"619 255 LINE",
"590 644 LINE",
"458 644 LINE",
"439 553 LINE",
"288 256 LINE",
"285 644 LINE",
"127 644 LINE",
"141 0 LINE"
);
},
{
closed = 1;
nodes = (
"485 688 LINE",
"579 792 LINE",
"632 688 LINE",
"746 688 LINE",
"641 875 LINE",
"541 875 LINE",
"357 688 LINE"
);
}
);
width = 883;
}
);
leftKerningGroup = W;
note = Wcircumflex;
rightKerningGroup = W;
unicode = 0174;
},
{
glyphname = Wdieresis;
lastChange = "2015-10-24 10:08:13 +0000";
layers = (
{
layerId = "CD587521-C2B1-4DF5-9394-E26F9987D7DC";
name = "SemiBold Italic";
paths = (
{
closed = 1;
nodes = (
"294 0 LINE",
"489 372 LINE",
"518 0 LINE",
"663 0 LINE",
"948 644 LINE",
"790 644 LINE",
"619 255 LINE",
"590 644 LINE",
"458 644 LINE",
"439 553 LINE",
"288 256 LINE",
"285 644 LINE",
"127 644 LINE",
"141 0 LINE"
);
},
{
closed = 1;
nodes = (
"512 714 LINE",
"536 823 LINE",
"419 823 LINE",
"395 714 LINE"
);
},
{
closed = 1;
nodes = (
"718 714 LINE",
"742 823 LINE",
"624 823 LINE",
"600 714 LINE"
);
}
);
width = 883;
}
);
leftKerningGroup = W;
note = Wdieresis;
rightKerningGroup = W;
unicode = 1E84;
},
{
glyphname = Wgrave;
lastChange = "2015-10-24 10:08:11 +0000";
layers = (
{
layerId = "CD587521-C2B1-4DF5-9394-E26F9987D7DC";
name = "SemiBold Italic";
paths = (
{
closed = 1;
nodes = (
"294 0 LINE",
"489 372 LINE",
"518 0 LINE",
"663 0 LINE",
"948 644 LINE",
"790 644 LINE",
"619 255 LINE",
"590 644 LINE",
"458 644 LINE",
"439 553 LINE",
"288 256 LINE",
"285 644 LINE",
"127 644 LINE",
"141 0 LINE"
);
},
{
closed = 1;
nodes = (
"599 688 LINE",
"557 884 LINE",
"425 884 LINE",
"476 688 LINE"
);
}
);
width = 883;
}
);
leftKerningGroup = W;
note = Wgrave;
rightKerningGroup = W;
unicode = 1E80;
},
{
glyphname = X;
lastChange = "2015-10-24 10:08:11 +0000";
layers = (
{
layerId = "CD587521-C2B1-4DF5-9394-E26F9987D7DC";
name = "SemiBold Italic";
paths = (
{
closed = 1;
nodes = (
"185 0 LINE",
"364 195 LINE",
"462 0 LINE",
"656 0 LINE",
"489 324 LINE",
"785 644 LINE",
"593 644 LINE",
"419 452 LINE",
"326 644 LINE",
"134 644 LINE",
"294 324 LINE",
"-9 0 LINE"
);
}
);
width = 727;
}
);
note = X;
unicode = 0058;
},
{
glyphname = Y;
lastChange = "2015-10-24 10:08:13 +0000";
layers = (
{
layerId = "CD587521-C2B1-4DF5-9394-E26F9987D7DC";
name = "SemiBold Italic";
paths = (
{
closed = 1;
nodes = (
"384 0 LINE",
"434 237 LINE",
"751 644 LINE",
"577 644 LINE",
"377 377 LINE",
"289 644 LINE",
"127 644 LINE",
"272 237 LINE",
"222 0 LINE"
);
}
);
width = 686;
}
);
leftKerningGroup = Y;
note = Y;
rightKerningGroup = Y;
unicode = 0059;
},
{
glyphname = Yacute;
lastChange = "2015-10-24 10:08:12 +0000";
layers = (
{
layerId = "CD587521-C2B1-4DF5-9394-E26F9987D7DC";
name = "SemiBold Italic";
paths = (
{
closed = 1;
nodes = (
"384 0 LINE",
"434 237 LINE",
"751 644 LINE",
"577 644 LINE",
"377 377 LINE",
"289 644 LINE",
"127 644 LINE",
"272 237 LINE",
"222 0 LINE"
);
},
{
closed = 1;
nodes = (
"505 688 LINE",
"639 884 LINE",
"507 884 LINE",
"381 688 LINE"
);
}
);
width = 686;
}
);
leftKerningGroup = Y;
note = Yacute;
rightKerningGroup = Y;
unicode = 00DD;
},
{
glyphname = Ycircumflex;
lastChange = "2015-10-24 10:08:13 +0000";
layers = (
{
layerId = "CD587521-C2B1-4DF5-9394-E26F9987D7DC";
name = "SemiBold Italic";
paths = (
{
closed = 1;
nodes = (
"384 0 LINE",
"434 237 LINE",
"751 644 LINE",
"577 644 LINE",
"377 377 LINE",
"289 644 LINE",
"127 644 LINE",
"272 237 LINE",
"222 0 LINE"
);
},
{
closed = 1;
nodes = (
"382 688 LINE",
"476 792 LINE",
"529 688 LINE",
"643 688 LINE",
"538 875 LINE",
"438 875 LINE",
"254 688 LINE"
);
}
);
width = 686;
}
);
leftKerningGroup = Y;
note = Ycircumflex;
rightKerningGroup = Y;
unicode = 0176;
},
{
glyphname = Ydieresis;
lastChange = "2015-10-24 10:08:12 +0000";
layers = (
{
layerId = "CD587521-C2B1-4DF5-9394-E26F9987D7DC";
name = "SemiBold Italic";
paths = (
{
closed = 1;
nodes = (
"384 0 LINE",
"434 237 LINE",
"751 644 LINE",
"577 644 LINE",
"377 377 LINE",
"289 644 LINE",
"127 644 LINE",
"272 237 LINE",
"222 0 LINE"
);
},
{
closed = 1;
nodes = (
"410 714 LINE",
"434 823 LINE",
"317 823 LINE",
"293 714 LINE"
);
},
{
closed = 1;
nodes = (
"616 714 LINE",
"640 823 LINE",
"522 823 LINE",
"498 714 LINE"
);
}
);
width = 686;
}
);
leftKerningGroup = Y;
note = Ydieresis;
rightKerningGroup = Y;
unicode = 0178;
},
{
glyphname = Ydotaccent;
lastChange = "2015-10-24 10:08:12 +0000";
layers = (
{
layerId = "CD587521-C2B1-4DF5-9394-E26F9987D7DC";
name = "SemiBold Italic";
paths = (
{
closed = 1;
nodes = (
"384 0 LINE",
"434 237 LINE",
"751 644 LINE",
"577 644 LINE",
"377 377 LINE",
"289 644 LINE",
"127 644 LINE",
"272 237 LINE",
"222 0 LINE"
);
},
{
closed = 1;
nodes = (
"511 714 LINE",
"535 823 LINE",
"418 823 LINE",
"394 714 LINE"
);
}
);
width = 686;
}
);
leftKerningGroup = Y;
note = Ydotaccent;
rightKerningGroup = Y;
unicode = 1E8E;
},
{
glyphname = Ydotbelow;
lastChange = "2015-10-24 10:08:11 +0000";
layers = (
{
layerId = "CD587521-C2B1-4DF5-9394-E26F9987D7DC";
name = "SemiBold Italic";
paths = (
{
closed = 1;
nodes = (
"384 0 LINE",
"434 237 LINE",
"751 644 LINE",
"577 644 LINE",
"377 377 LINE",
"289 644 LINE",
"127 644 LINE",
"272 237 LINE",
"222 0 LINE"
);
},
{
closed = 1;
nodes = (
"325 -173 LINE",
"348 -64 LINE",
"230 -64 LINE",
"207 -173 LINE"
);
}
);
width = 686;
}
);
leftKerningGroup = Y;
note = Ydotbelow;
rightKerningGroup = Y;
unicode = 1EF4;
},
{
glyphname = Ygrave;
lastChange = "2015-10-24 10:08:12 +0000";
layers = (
{
layerId = "CD587521-C2B1-4DF5-9394-E26F9987D7DC";
name = "SemiBold Italic";
paths = (
{
closed = 1;
nodes = (
"384 0 LINE",
"434 237 LINE",
"751 644 LINE",
"577 644 LINE",
"377 377 LINE",
"289 644 LINE",
"127 644 LINE",
"272 237 LINE",
"222 0 LINE"
);
},
{
closed = 1;
nodes = (
"512 688 LINE",
"470 884 LINE",
"338 884 LINE",
"389 688 LINE"
);
}
);
width = 686;
}
);
leftKerningGroup = Y;
note = Ygrave;
rightKerningGroup = Y;
unicode = 1EF2;
},
{
glyphname = Yhookabove;
lastChange = "2015-10-24 10:08:12 +0000";
layers = (
{
layerId = "CD587521-C2B1-4DF5-9394-E26F9987D7DC";
name = "SemiBold Italic";
paths = (
{
closed = 1;
nodes = (
"384 0 LINE",
"434 237 LINE",
"751 644 LINE",
"577 644 LINE",
"377 377 LINE",
"289 644 LINE",
"127 644 LINE",
"272 237 LINE",
"222 0 LINE"
);
},
{
closed = 1;
nodes = (
"506 688 LINE",
"515 732 LINE",
"577 746 OFFCURVE",
"608 772 OFFCURVE",
"621 829 CURVE SMOOTH",
"633 888 OFFCURVE",
"594 928 OFFCURVE",
"506 928 CURVE SMOOTH",
"463 928 OFFCURVE",
"424 923 OFFCURVE",
"396 914 CURVE",
"380 842 LINE",
"397 847 OFFCURVE",
"423 851 OFFCURVE",
"442 851 CURVE SMOOTH",
"483 851 OFFCURVE",
"505 840 OFFCURVE",
"500 815 CURVE SMOOTH",
"494 788 OFFCURVE",
"473 773 OFFCURVE",
"401 769 CURVE",
"384 688 LINE"
);
}
);
width = 686;
}
);
leftKerningGroup = Y;
note = Yhookabove;
rightKerningGroup = Y;
unicode = 1EF6;
},
{
glyphname = Ytilde;
lastChange = "2015-10-24 10:08:12 +0000";
layers = (
{
layerId = "CD587521-C2B1-4DF5-9394-E26F9987D7DC";
name = "SemiBold Italic";
paths = (
{
closed = 1;
nodes = (
"384 0 LINE",
"434 237 LINE",
"751 644 LINE",
"577 644 LINE",
"377 377 LINE",
"289 644 LINE",
"127 644 LINE",
"272 237 LINE",
"222 0 LINE"
);
},
{
closed = 1;
nodes = (
"579 698 OFFCURVE",
"615 712 OFFCURVE",
"632 730 CURVE",
"655 838 LINE",
"633 814 OFFCURVE",
"600 799 OFFCURVE",
"560 799 CURVE SMOOTH",
"501 799 OFFCURVE",
"462 840 OFFCURVE",
"398 840 CURVE SMOOTH",
"361 840 OFFCURVE",
"323 826 OFFCURVE",
"300 808 CURVE",
"277 701 LINE",
"306 725 OFFCURVE",
"340 739 OFFCURVE",
"379 739 CURVE SMOOTH",
"431 739 OFFCURVE",
"479 698 OFFCURVE",
"541 698 CURVE SMOOTH"
);
}
);
width = 686;
}
);
leftKerningGroup = Y;
note = Ytilde;
rightKerningGroup = Y;
unicode = 1EF8;
},
{
glyphname = Z;
lastChange = "2015-10-24 10:08:13 +0000";
layers = (
{
layerId = "CD587521-C2B1-4DF5-9394-E26F9987D7DC";
name = "SemiBold Italic";
paths = (
{
closed = 1;
nodes = (
"510 0 LINE",
"536 124 LINE",
"231 124 LINE",
"621 554 LINE",
"640 644 LINE",
"142 644 LINE",
"115 516 LINE",
"402 516 LINE",
"8 82 LINE",
"-9 0 LINE"
);
}
);
width = 578;
}
);
leftKerningGroup = Z;
note = Z;
rightKerningGroup = Z;
unicode = 005A;
},
{
glyphname = Zacute;
lastChange = "2015-10-24 10:08:12 +0000";
layers = (
{
layerId = "CD587521-C2B1-4DF5-9394-E26F9987D7DC";
name = "SemiBold Italic";
paths = (
{
closed = 1;
nodes = (
"510 0 LINE",
"536 124 LINE",
"231 124 LINE",
"621 554 LINE",
"640 644 LINE",
"142 644 LINE",
"115 516 LINE",
"402 516 LINE",
"8 82 LINE",
"-9 0 LINE"
);
},
{
closed = 1;
nodes = (
"454 688 LINE",
"588 884 LINE",
"456 884 LINE",
"330 688 LINE"
);
}
);
width = 578;
}
);
leftKerningGroup = Z;
note = Zacute;
rightKerningGroup = Z;
unicode = 0179;
},
{
glyphname = Zcaron;
lastChange = "2015-10-24 10:08:12 +0000";
layers = (
{
layerId = "CD587521-C2B1-4DF5-9394-E26F9987D7DC";
name = "SemiBold Italic";
paths = (
{
closed = 1;
nodes = (
"510 0 LINE",
"536 124 LINE",
"231 124 LINE",
"621 554 LINE",
"640 644 LINE",
"142 644 LINE",
"115 516 LINE",
"402 516 LINE",
"8 82 LINE",
"-9 0 LINE"
);
},
{
closed = 1;
nodes = (
"462 688 LINE",
"647 875 LINE",
"521 875 LINE",
"424 771 LINE",
"374 875 LINE",
"258 875 LINE",
"362 688 LINE"
);
}
);
width = 581;
}
);
leftKerningGroup = Z;
note = Zcaron;
rightKerningGroup = Z;
unicode = 017D;
},
{
glyphname = Zdotaccent;
lastChange = "2015-10-24 10:08:12 +0000";
layers = (
{
layerId = "CD587521-C2B1-4DF5-9394-E26F9987D7DC";
name = "SemiBold Italic";
paths = (
{
closed = 1;
nodes = (
"510 0 LINE",
"536 124 LINE",
"231 124 LINE",
"621 554 LINE",
"640 644 LINE",
"142 644 LINE",
"115 516 LINE",
"402 516 LINE",
"8 82 LINE",
"-9 0 LINE"
);
},
{
closed = 1;
nodes = (
"467 714 LINE",
"491 823 LINE",
"374 823 LINE",
"350 714 LINE"
);
}
);
width = 581;
}
);
leftKerningGroup = Z;
note = Zdotaccent;
rightKerningGroup = Z;
unicode = 017B;
},
{
glyphname = Zdotbelow;
lastChange = "2015-10-24 10:08:12 +0000";
layers = (
{
layerId = "CD587521-C2B1-4DF5-9394-E26F9987D7DC";
name = "SemiBold Italic";
paths = (
{
closed = 1;
nodes = (
"510 0 LINE",
"536 124 LINE",
"231 124 LINE",
"621 554 LINE",
"640 644 LINE",
"142 644 LINE",
"115 516 LINE",
"402 516 LINE",
"8 82 LINE",
"-9 0 LINE"
);
},
{
closed = 1;
nodes = (
"279 -179 LINE",
"302 -70 LINE",
"184 -70 LINE",
"161 -179 LINE"
);
}
);
width = 578;
}
);
leftKerningGroup = Z;
note = Zdotbelow;
rightKerningGroup = Z;
unicode = 1E92;
},
{
glyphname = a;
lastChange = "2015-10-24 10:08:12 +0000";
layers = (
{
layerId = "CD587521-C2B1-4DF5-9394-E26F9987D7DC";
name = "SemiBold Italic";
paths = (
{
closed = 1;
nodes = (
"265 -10 OFFCURVE",
"321 7 OFFCURVE",
"367 40 CURVE",
"368 0 LINE",
"507 0 LINE",
"607 474 LINE",
"446 474 LINE",
"441 447 LINE",
"411 471 OFFCURVE",
"382 484 OFFCURVE",
"328 484 CURVE SMOOTH",
"170 484 OFFCURVE",
"70 375 OFFCURVE",
"37 218 CURVE SMOOTH",
"5 66 OFFCURVE",
"70 -10 OFFCURVE",
"201 -10 CURVE SMOOTH"
);
},
{
closed = 1;
nodes = (
"205 107 OFFCURVE",
"183 134 OFFCURVE",
"201 218 CURVE SMOOTH",
"223 320 OFFCURVE",
"269 366 OFFCURVE",
"345 366 CURVE SMOOTH",
"380 366 OFFCURVE",
"403 354 OFFCURVE",
"416 333 CURVE",
"376 143 LINE",
"346 119 OFFCURVE",
"314 107 OFFCURVE",
"278 107 CURVE SMOOTH"
);
}
);
width = 599;
}
);
leftKerningGroup = a;
note = a;
rightKerningGroup = a;
unicode = 0061;
},
{
glyphname = aacute;
lastChange = "2015-10-24 10:08:13 +0000";
layers = (
{
layerId = "CD587521-C2B1-4DF5-9394-E26F9987D7DC";
name = "SemiBold Italic";
paths = (
{
closed = 1;
nodes = (
"265 -10 OFFCURVE",
"321 7 OFFCURVE",
"367 40 CURVE",
"368 0 LINE",
"507 0 LINE",
"607 474 LINE",
"446 474 LINE",
"441 447 LINE",
"411 471 OFFCURVE",
"382 484 OFFCURVE",
"328 484 CURVE SMOOTH",
"170 484 OFFCURVE",
"70 375 OFFCURVE",
"37 218 CURVE SMOOTH",
"5 66 OFFCURVE",
"70 -10 OFFCURVE",
"201 -10 CURVE SMOOTH"
);
},
{
closed = 1;
nodes = (
"205 107 OFFCURVE",
"183 134 OFFCURVE",
"201 218 CURVE SMOOTH",
"223 320 OFFCURVE",
"269 366 OFFCURVE",
"345 366 CURVE SMOOTH",
"380 366 OFFCURVE",
"403 354 OFFCURVE",
"416 333 CURVE",
"376 143 LINE",
"346 119 OFFCURVE",
"314 107 OFFCURVE",
"278 107 CURVE SMOOTH"
);
},
{
closed = 1;
nodes = (
"416 522 LINE",
"550 718 LINE",
"418 718 LINE",
"292 522 LINE"
);
}
);
width = 599;
}
);
leftKerningGroup = a;
note = aacute;
rightKerningGroup = a;
unicode = 00E1;
},
{
glyphname = abreve;
lastChange = "2015-10-24 10:08:12 +0000";
layers = (
{
layerId = "CD587521-C2B1-4DF5-9394-E26F9987D7DC";
name = "SemiBold Italic";
paths = (
{
closed = 1;
nodes = (
"265 -10 OFFCURVE",
"321 7 OFFCURVE",
"367 40 CURVE",
"368 0 LINE",
"507 0 LINE",
"607 474 LINE",
"446 474 LINE",
"441 447 LINE",
"411 471 OFFCURVE",
"382 484 OFFCURVE",
"328 484 CURVE SMOOTH",
"170 484 OFFCURVE",
"70 375 OFFCURVE",
"37 218 CURVE SMOOTH",
"5 66 OFFCURVE",
"70 -10 OFFCURVE",
"201 -10 CURVE SMOOTH"
);
},
{
closed = 1;
nodes = (
"205 107 OFFCURVE",
"183 134 OFFCURVE",
"201 218 CURVE SMOOTH",
"223 320 OFFCURVE",
"269 366 OFFCURVE",
"345 366 CURVE SMOOTH",
"380 366 OFFCURVE",
"403 354 OFFCURVE",
"416 333 CURVE",
"376 143 LINE",
"346 119 OFFCURVE",
"314 107 OFFCURVE",
"278 107 CURVE SMOOTH"
);
},
{
closed = 1;
nodes = (
"485 522 OFFCURVE",
"560 584 OFFCURVE",
"583 694 CURVE",
"471 694 LINE",
"462 648 OFFCURVE",
"434 612 OFFCURVE",
"385 612 CURVE SMOOTH",
"333 612 OFFCURVE",
"324 643 OFFCURVE",
"335 694 CURVE",
"236 694 LINE",
"213 584 OFFCURVE",
"270 522 OFFCURVE",
"372 522 CURVE SMOOTH"
);
}
);
width = 599;
}
);
leftKerningGroup = a;
note = abreve;
rightKerningGroup = a;
unicode = 0103;
},
{
glyphname = abreveacute;
lastChange = "2015-10-24 10:08:12 +0000";
layers = (
{
layerId = "CD587521-C2B1-4DF5-9394-E26F9987D7DC";
name = "SemiBold Italic";
paths = (
{
closed = 1;
nodes = (
"265 -10 OFFCURVE",
"321 7 OFFCURVE",
"367 40 CURVE",
"368 0 LINE",
"507 0 LINE",
"607 474 LINE",
"446 474 LINE",
"441 447 LINE",
"411 471 OFFCURVE",
"382 484 OFFCURVE",
"328 484 CURVE SMOOTH",
"170 484 OFFCURVE",
"70 375 OFFCURVE",
"37 218 CURVE SMOOTH",
"5 66 OFFCURVE",
"70 -10 OFFCURVE",
"201 -10 CURVE SMOOTH"
);
},
{
closed = 1;
nodes = (
"205 107 OFFCURVE",
"183 134 OFFCURVE",
"201 218 CURVE SMOOTH",
"223 320 OFFCURVE",
"269 366 OFFCURVE",
"345 366 CURVE SMOOTH",
"380 366 OFFCURVE",
"403 354 OFFCURVE",
"416 333 CURVE",
"376 143 LINE",
"346 119 OFFCURVE",
"314 107 OFFCURVE",
"278 107 CURVE SMOOTH"
);
},
{
closed = 1;
nodes = (
"472 522 OFFCURVE",
"545 570 OFFCURVE",
"569 686 CURVE",
"473 686 LINE",
"462 634 OFFCURVE",
"427 603 OFFCURVE",
"376 603 CURVE SMOOTH",
"313 603 OFFCURVE",
"301 629 OFFCURVE",
"312 686 CURVE",
"223 686 LINE",
"199 570 OFFCURVE",
"261 522 OFFCURVE",
"362 522 CURVE SMOOTH"
);
},
{
closed = 1;
nodes = (
"440 671 LINE",
"550 820 LINE",
"437 820 LINE",
"339 671 LINE"
);
}
);
width = 599;
}
);
leftKerningGroup = a;
note = abreveacute;
rightKerningGroup = a;
unicode = 1EAF;
},
{
glyphname = abrevedotbelow;
lastChange = "2015-10-24 10:08:12 +0000";
layers = (
{
layerId = "CD587521-C2B1-4DF5-9394-E26F9987D7DC";
name = "SemiBold Italic";
paths = (
{
closed = 1;
nodes = (
"265 -10 OFFCURVE",
"321 7 OFFCURVE",
"367 40 CURVE",
"368 0 LINE",
"507 0 LINE",
"607 474 LINE",
"446 474 LINE",
"441 447 LINE",
"411 471 OFFCURVE",
"382 484 OFFCURVE",
"328 484 CURVE SMOOTH",
"170 484 OFFCURVE",
"70 375 OFFCURVE",
"37 218 CURVE SMOOTH",
"5 66 OFFCURVE",
"70 -10 OFFCURVE",
"201 -10 CURVE SMOOTH"
);
},
{
closed = 1;
nodes = (
"284 -179 LINE",
"307 -70 LINE",
"189 -70 LINE",
"166 -179 LINE"
);
},
{
closed = 1;
nodes = (
"205 107 OFFCURVE",
"183 134 OFFCURVE",
"201 218 CURVE SMOOTH",
"223 320 OFFCURVE",
"269 366 OFFCURVE",
"345 366 CURVE SMOOTH",
"380 366 OFFCURVE",
"403 354 OFFCURVE",
"416 333 CURVE",
"376 143 LINE",
"346 119 OFFCURVE",
"314 107 OFFCURVE",
"278 107 CURVE SMOOTH"
);
},
{
closed = 1;
nodes = (
"482 522 OFFCURVE",
"557 584 OFFCURVE",
"580 694 CURVE",
"468 694 LINE",
"459 648 OFFCURVE",
"431 612 OFFCURVE",
"382 612 CURVE SMOOTH",
"330 612 OFFCURVE",
"321 643 OFFCURVE",
"332 694 CURVE",
"233 694 LINE",
"210 584 OFFCURVE",
"267 522 OFFCURVE",
"369 522 CURVE SMOOTH"
);
}
);
width = 599;
}
);
leftKerningGroup = a;
note = abrevedotbelow;
rightKerningGroup = a;
unicode = 1EB7;
},
{
glyphname = abrevegrave;
lastChange = "2015-10-24 10:08:12 +0000";
layers = (
{
layerId = "CD587521-C2B1-4DF5-9394-E26F9987D7DC";
name = "SemiBold Italic";
paths = (
{
closed = 1;
nodes = (
"265 -10 OFFCURVE",
"321 7 OFFCURVE",
"367 40 CURVE",
"368 0 LINE",
"507 0 LINE",
"607 474 LINE",
"446 474 LINE",
"441 447 LINE",
"411 471 OFFCURVE",
"382 484 OFFCURVE",
"328 484 CURVE SMOOTH",
"170 484 OFFCURVE",
"70 375 OFFCURVE",
"37 218 CURVE SMOOTH",
"5 66 OFFCURVE",
"70 -10 OFFCURVE",
"201 -10 CURVE SMOOTH"
);
},
{
closed = 1;
nodes = (
"205 107 OFFCURVE",
"183 134 OFFCURVE",
"201 218 CURVE SMOOTH",
"223 320 OFFCURVE",
"269 366 OFFCURVE",
"345 366 CURVE SMOOTH",
"380 366 OFFCURVE",
"403 354 OFFCURVE",
"416 333 CURVE",
"376 143 LINE",
"346 119 OFFCURVE",
"314 107 OFFCURVE",
"278 107 CURVE SMOOTH"
);
},
{
closed = 1;
nodes = (
"474 522 OFFCURVE",
"547 570 OFFCURVE",
"571 686 CURVE",
"475 686 LINE",
"464 634 OFFCURVE",
"429 603 OFFCURVE",
"378 603 CURVE SMOOTH",
"315 603 OFFCURVE",
"303 629 OFFCURVE",
"314 686 CURVE",
"225 686 LINE",
"201 570 OFFCURVE",
"263 522 OFFCURVE",
"364 522 CURVE SMOOTH"
);
},
{
closed = 1;
nodes = (
"450 671 LINE",
"416 820 LINE",
"302 820 LINE",
"348 671 LINE"
);
}
);
width = 599;
}
);
leftKerningGroup = a;
note = abrevegrave;
rightKerningGroup = a;
unicode = 1EB1;
},
{
glyphname = abrevehookabove;
lastChange = "2015-10-24 10:08:12 +0000";
layers = (
{
layerId = "CD587521-C2B1-4DF5-9394-E26F9987D7DC";
name = "SemiBold Italic";
paths = (
{
closed = 1;
nodes = (
"265 -10 OFFCURVE",
"321 7 OFFCURVE",
"367 40 CURVE",
"368 0 LINE",
"507 0 LINE",
"607 474 LINE",
"446 474 LINE",
"441 447 LINE",
"411 471 OFFCURVE",
"382 484 OFFCURVE",
"328 484 CURVE SMOOTH",
"170 484 OFFCURVE",
"70 375 OFFCURVE",
"37 218 CURVE SMOOTH",
"5 66 OFFCURVE",
"70 -10 OFFCURVE",
"201 -10 CURVE SMOOTH"
);
},
{
closed = 1;
nodes = (
"205 107 OFFCURVE",
"183 134 OFFCURVE",
"201 218 CURVE SMOOTH",
"223 320 OFFCURVE",
"269 366 OFFCURVE",
"345 366 CURVE SMOOTH",
"380 366 OFFCURVE",
"403 354 OFFCURVE",
"416 333 CURVE",
"376 143 LINE",
"346 119 OFFCURVE",
"314 107 OFFCURVE",
"278 107 CURVE SMOOTH"
);
},
{
closed = 1;
nodes = (
"477 522 OFFCURVE",
"550 570 OFFCURVE",
"574 686 CURVE",
"478 686 LINE",
"467 634 OFFCURVE",
"432 603 OFFCURVE",
"381 603 CURVE SMOOTH",
"318 603 OFFCURVE",
"306 629 OFFCURVE",
"317 686 CURVE",
"228 686 LINE",
"204 570 OFFCURVE",
"266 522 OFFCURVE",
"367 522 CURVE SMOOTH"
);
},
{
closed = 1;
nodes = (
"451 678 LINE",
"457 709 LINE",
"514 721 OFFCURVE",
"541 744 OFFCURVE",
"550 789 CURVE SMOOTH",
"560 837 OFFCURVE",
"528 872 OFFCURVE",
"457 872 CURVE SMOOTH",
"420 872 OFFCURVE",
"384 867 OFFCURVE",
"359 859 CURVE",
"346 797 LINE",
"361 803 OFFCURVE",
"381 808 OFFCURVE",
"400 808 CURVE SMOOTH",
"433 808 OFFCURVE",
"448 801 OFFCURVE",
"443 778 CURVE SMOOTH",
"438 755 OFFCURVE",
"416 741 OFFCURVE",
"358 739 CURVE",
"345 678 LINE"
);
}
);
width = 599;
}
);
leftKerningGroup = a;
note = abrevehookabove;
rightKerningGroup = a;
unicode = 1EB3;
},
{
glyphname = abrevetilde;
lastChange = "2015-10-24 10:08:13 +0000";
layers = (
{
layerId = "CD587521-C2B1-4DF5-9394-E26F9987D7DC";
name = "SemiBold Italic";
paths = (
{
closed = 1;
nodes = (
"265 -10 OFFCURVE",
"321 7 OFFCURVE",
"367 40 CURVE",
"368 0 LINE",
"507 0 LINE",
"607 474 LINE",
"446 474 LINE",
"441 447 LINE",
"411 471 OFFCURVE",
"382 484 OFFCURVE",
"328 484 CURVE SMOOTH",
"170 484 OFFCURVE",
"70 375 OFFCURVE",
"37 218 CURVE SMOOTH",
"5 66 OFFCURVE",
"70 -10 OFFCURVE",
"201 -10 CURVE SMOOTH"
);
},
{
closed = 1;
nodes = (
"205 107 OFFCURVE",
"183 134 OFFCURVE",
"201 218 CURVE SMOOTH",
"223 320 OFFCURVE",
"269 366 OFFCURVE",
"345 366 CURVE SMOOTH",
"380 366 OFFCURVE",
"403 354 OFFCURVE",
"416 333 CURVE",
"376 143 LINE",
"346 119 OFFCURVE",
"314 107 OFFCURVE",
"278 107 CURVE SMOOTH"
);
},
{
closed = 1;
nodes = (
"481 522 OFFCURVE",
"554 570 OFFCURVE",
"578 686 CURVE",
"482 686 LINE",
"471 634 OFFCURVE",
"436 603 OFFCURVE",
"385 603 CURVE SMOOTH",
"322 603 OFFCURVE",
"310 629 OFFCURVE",
"321 686 CURVE",
"232 686 LINE",
"208 570 OFFCURVE",
"270 522 OFFCURVE",
"371 522 CURVE SMOOTH"
);
},
{
closed = 1;
nodes = (
"537 704 OFFCURVE",
"572 718 OFFCURVE",
"589 736 CURVE",
"607 828 LINE",
"586 804 OFFCURVE",
"553 789 OFFCURVE",
"514 789 CURVE SMOOTH",
"456 789 OFFCURVE",
"417 830 OFFCURVE",
"354 830 CURVE SMOOTH",
"318 830 OFFCURVE",
"280 816 OFFCURVE",
"258 798 CURVE",
"239 707 LINE",
"267 731 OFFCURVE",
"300 744 OFFCURVE",
"339 744 CURVE SMOOTH",
"391 744 OFFCURVE",
"438 704 OFFCURVE",
"499 704 CURVE SMOOTH"
);
}
);
width = 599;
}
);
leftKerningGroup = a;
note = abrevetilde;
rightKerningGroup = a;
unicode = 1EB5;
},
{
glyphname = acaron;
lastChange = "2015-10-24 10:08:13 +0000";
layers = (
{
layerId = "CD587521-C2B1-4DF5-9394-E26F9987D7DC";
name = "SemiBold Italic";
paths = (
{
closed = 1;
nodes = (
"265 -10 OFFCURVE",
"321 7 OFFCURVE",
"367 40 CURVE",
"368 0 LINE",
"507 0 LINE",
"607 474 LINE",
"446 474 LINE",
"441 447 LINE",
"411 471 OFFCURVE",
"382 484 OFFCURVE",
"328 484 CURVE SMOOTH",
"170 484 OFFCURVE",
"70 375 OFFCURVE",
"37 218 CURVE SMOOTH",
"5 66 OFFCURVE",
"70 -10 OFFCURVE",
"201 -10 CURVE SMOOTH"
);
},
{
closed = 1;
nodes = (
"205 107 OFFCURVE",
"183 134 OFFCURVE",
"201 218 CURVE SMOOTH",
"223 320 OFFCURVE",
"269 366 OFFCURVE",
"345 366 CURVE SMOOTH",
"380 366 OFFCURVE",
"403 354 OFFCURVE",
"416 333 CURVE",
"376 143 LINE",
"346 119 OFFCURVE",
"314 107 OFFCURVE",
"278 107 CURVE SMOOTH"
);
},
{
closed = 1;
nodes = (
"407 521 LINE",
"592 708 LINE",
"466 708 LINE",
"369 604 LINE",
"319 708 LINE",
"203 708 LINE",
"307 521 LINE"
);
}
);
width = 599;
}
);
leftKerningGroup = a;
note = acaron;
rightKerningGroup = a;
unicode = 01CE;
},
{
glyphname = acircumflex;
lastChange = "2015-10-24 10:08:12 +0000";
layers = (
{
layerId = "CD587521-C2B1-4DF5-9394-E26F9987D7DC";
name = "SemiBold Italic";
paths = (
{
closed = 1;
nodes = (
"265 -10 OFFCURVE",
"321 7 OFFCURVE",
"367 40 CURVE",
"368 0 LINE",
"507 0 LINE",
"607 474 LINE",
"446 474 LINE",
"441 447 LINE",
"411 471 OFFCURVE",
"382 484 OFFCURVE",
"328 484 CURVE SMOOTH",
"170 484 OFFCURVE",
"70 375 OFFCURVE",
"37 218 CURVE SMOOTH",
"5 66 OFFCURVE",
"70 -10 OFFCURVE",
"201 -10 CURVE SMOOTH"
);
},
{
closed = 1;
nodes = (
"205 107 OFFCURVE",
"183 134 OFFCURVE",
"201 218 CURVE SMOOTH",
"223 320 OFFCURVE",
"269 366 OFFCURVE",
"345 366 CURVE SMOOTH",
"380 366 OFFCURVE",
"403 354 OFFCURVE",
"416 333 CURVE",
"376 143 LINE",
"346 119 OFFCURVE",
"314 107 OFFCURVE",
"278 107 CURVE SMOOTH"
);
},
{
closed = 1;
nodes = (
"297 521 LINE",
"391 625 LINE",
"444 521 LINE",
"558 521 LINE",
"453 708 LINE",
"353 708 LINE",
"169 521 LINE"
);
}
);
width = 599;
}
);
leftKerningGroup = a;
note = acircumflex;
rightKerningGroup = a;
unicode = 00E2;
},
{
glyphname = acircumflexacute;
lastChange = "2015-10-24 10:08:11 +0000";
layers = (
{
layerId = "CD587521-C2B1-4DF5-9394-E26F9987D7DC";
name = "SemiBold Italic";
paths = (
{
closed = 1;
nodes = (
"265 -10 OFFCURVE",
"321 7 OFFCURVE",
"367 40 CURVE",
"368 0 LINE",
"507 0 LINE",
"607 474 LINE",
"446 474 LINE",
"441 447 LINE",
"411 471 OFFCURVE",
"382 484 OFFCURVE",
"328 484 CURVE SMOOTH",
"170 484 OFFCURVE",
"70 375 OFFCURVE",
"37 218 CURVE SMOOTH",
"5 66 OFFCURVE",
"70 -10 OFFCURVE",
"201 -10 CURVE SMOOTH"
);
},
{
closed = 1;
nodes = (
"205 107 OFFCURVE",
"183 134 OFFCURVE",
"201 218 CURVE SMOOTH",
"223 320 OFFCURVE",
"269 366 OFFCURVE",
"345 366 CURVE SMOOTH",
"380 366 OFFCURVE",
"403 354 OFFCURVE",
"416 333 CURVE",
"376 143 LINE",
"346 119 OFFCURVE",
"314 107 OFFCURVE",
"278 107 CURVE SMOOTH"
);
},
{
closed = 1;
nodes = (
"303 521 LINE",
"385 601 LINE",
"433 521 LINE",
"557 521 LINE",
"453 665 LINE",
"332 665 LINE",
"168 521 LINE"
);
},
{
closed = 1;
nodes = (
"613 642 LINE",
"719 791 LINE",
"599 791 LINE",
"500 642 LINE"
);
}
);
width = 639;
}
);
leftKerningGroup = a;
note = acircumflexacute;
rightKerningGroup = a;
unicode = 1EA5;
},
{
glyphname = acircumflexdotbelow;
lastChange = "2015-10-24 10:08:11 +0000";
layers = (
{
layerId = "CD587521-C2B1-4DF5-9394-E26F9987D7DC";
name = "SemiBold Italic";
paths = (
{
closed = 1;
nodes = (
"265 -10 OFFCURVE",
"321 7 OFFCURVE",
"367 40 CURVE",
"368 0 LINE",
"507 0 LINE",
"607 474 LINE",
"446 474 LINE",
"441 447 LINE",
"411 471 OFFCURVE",
"382 484 OFFCURVE",
"328 484 CURVE SMOOTH",
"170 484 OFFCURVE",
"70 375 OFFCURVE",
"37 218 CURVE SMOOTH",
"5 66 OFFCURVE",
"70 -10 OFFCURVE",
"201 -10 CURVE SMOOTH"
);
},
{
closed = 1;
nodes = (
"275 -179 LINE",
"298 -70 LINE",
"180 -70 LINE",
"157 -179 LINE"
);
},
{
closed = 1;
nodes = (
"205 107 OFFCURVE",
"183 134 OFFCURVE",
"201 218 CURVE SMOOTH",
"223 320 OFFCURVE",
"269 366 OFFCURVE",
"345 366 CURVE SMOOTH",
"380 366 OFFCURVE",
"403 354 OFFCURVE",
"416 333 CURVE",
"376 143 LINE",
"346 119 OFFCURVE",
"314 107 OFFCURVE",
"278 107 CURVE SMOOTH"
);
},
{
closed = 1;
nodes = (
"297 521 LINE",
"391 625 LINE",
"444 521 LINE",
"558 521 LINE",
"453 708 LINE",
"353 708 LINE",
"169 521 LINE"
);
}
);
width = 599;
}
);
leftKerningGroup = a;
note = acircumflexdotbelow;
rightKerningGroup = a;
unicode = 1EAD;
},
{
glyphname = acircumflexgrave;
lastChange = "2015-10-24 10:08:13 +0000";
layers = (
{
layerId = "CD587521-C2B1-4DF5-9394-E26F9987D7DC";
name = "SemiBold Italic";
paths = (
{
closed = 1;
nodes = (
"265 -10 OFFCURVE",
"321 7 OFFCURVE",
"367 40 CURVE",
"368 0 LINE",
"507 0 LINE",
"607 474 LINE",
"446 474 LINE",
"441 447 LINE",
"411 471 OFFCURVE",
"382 484 OFFCURVE",
"328 484 CURVE SMOOTH",
"170 484 OFFCURVE",
"70 375 OFFCURVE",
"37 218 CURVE SMOOTH",
"5 66 OFFCURVE",
"70 -10 OFFCURVE",
"201 -10 CURVE SMOOTH"
);
},
{
closed = 1;
nodes = (
"205 107 OFFCURVE",
"183 134 OFFCURVE",
"201 218 CURVE SMOOTH",
"223 320 OFFCURVE",
"269 366 OFFCURVE",
"345 366 CURVE SMOOTH",
"380 366 OFFCURVE",
"403 354 OFFCURVE",
"416 333 CURVE",
"376 143 LINE",
"346 119 OFFCURVE",
"314 107 OFFCURVE",
"278 107 CURVE SMOOTH"
);
},
{
closed = 1;
nodes = (
"280 642 LINE",
"242 791 LINE",
"122 791 LINE",
"166 642 LINE"
);
},
{
closed = 1;
nodes = (
"305 521 LINE",
"387 601 LINE",
"435 521 LINE",
"559 521 LINE",
"455 665 LINE",
"334 665 LINE",
"170 521 LINE"
);
}
);
width = 599;
}
);
leftKerningGroup = a;
note = acircumflexgrave;
rightKerningGroup = a;
unicode = 1EA7;
},
{
glyphname = acircumflexhookabove;
lastChange = "2015-10-24 10:08:12 +0000";
layers = (
{
layerId = "CD587521-C2B1-4DF5-9394-E26F9987D7DC";
name = "SemiBold Italic";
paths = (
{
closed = 1;
nodes = (
"265 -10 OFFCURVE",
"321 7 OFFCURVE",
"367 40 CURVE",
"368 0 LINE",
"507 0 LINE",
"607 474 LINE",
"446 474 LINE",
"441 447 LINE",
"411 471 OFFCURVE",
"382 484 OFFCURVE",
"328 484 CURVE SMOOTH",
"170 484 OFFCURVE",
"70 375 OFFCURVE",
"37 218 CURVE SMOOTH",
"5 66 OFFCURVE",
"70 -10 OFFCURVE",
"201 -10 CURVE SMOOTH"
);
},
{
closed = 1;
nodes = (
"205 107 OFFCURVE",
"183 134 OFFCURVE",
"201 218 CURVE SMOOTH",
"223 320 OFFCURVE",
"269 366 OFFCURVE",
"345 366 CURVE SMOOTH",
"380 366 OFFCURVE",
"403 354 OFFCURVE",
"416 333 CURVE",
"376 143 LINE",
"346 119 OFFCURVE",
"314 107 OFFCURVE",
"278 107 CURVE SMOOTH"
);
},
{
closed = 1;
nodes = (
"299 521 LINE",
"381 601 LINE",
"429 521 LINE",
"553 521 LINE",
"449 665 LINE",
"328 665 LINE",
"164 521 LINE"
);
},
{
closed = 1;
nodes = (
"609 620 LINE",
"616 653 LINE",
"669 661 OFFCURVE",
"698 690 OFFCURVE",
"707 735 CURVE SMOOTH",
"718 785 OFFCURVE",
"686 818 OFFCURVE",
"610 818 CURVE SMOOTH",
"572 818 OFFCURVE",
"542 813 OFFCURVE",
"517 806 CURVE",
"503 739 LINE",
"519 745 OFFCURVE",
"538 749 OFFCURVE",
"557 749 CURVE SMOOTH",
"585 749 OFFCURVE",
"599 742 OFFCURVE",
"595 724 CURVE SMOOTH",
"591 705 OFFCURVE",
"575 693 OFFCURVE",
"516 691 CURVE",
"501 620 LINE"
);
}
);
width = 630;
}
);
leftKerningGroup = a;
note = acircumflexhookabove;
rightKerningGroup = a;
unicode = 1EA9;
},
{
glyphname = acircumflextilde;
lastChange = "2015-10-24 10:08:12 +0000";
layers = (
{
layerId = "CD587521-C2B1-4DF5-9394-E26F9987D7DC";
name = "SemiBold Italic";
paths = (
{
closed = 1;
nodes = (
"265 -10 OFFCURVE",
"321 7 OFFCURVE",
"367 40 CURVE",
"368 0 LINE",
"507 0 LINE",
"607 474 LINE",
"446 474 LINE",
"441 447 LINE",
"411 471 OFFCURVE",
"382 484 OFFCURVE",
"328 484 CURVE SMOOTH",
"170 484 OFFCURVE",
"70 375 OFFCURVE",
"37 218 CURVE SMOOTH",
"5 66 OFFCURVE",
"70 -10 OFFCURVE",
"201 -10 CURVE SMOOTH"
);
},
{
closed = 1;
nodes = (
"205 107 OFFCURVE",
"183 134 OFFCURVE",
"201 218 CURVE SMOOTH",
"223 320 OFFCURVE",
"269 366 OFFCURVE",
"345 366 CURVE SMOOTH",
"380 366 OFFCURVE",
"403 354 OFFCURVE",
"416 333 CURVE",
"376 143 LINE",
"346 119 OFFCURVE",
"314 107 OFFCURVE",
"278 107 CURVE SMOOTH"
);
},
{
closed = 1;
nodes = (
"300 521 LINE",
"382 601 LINE",
"430 521 LINE",
"554 521 LINE",
"450 665 LINE",
"329 665 LINE",
"165 521 LINE"
);
},
{
closed = 1;
nodes = (
"529 680 OFFCURVE",
"563 694 OFFCURVE",
"579 712 CURVE",
"599 804 LINE",
"577 780 OFFCURVE",
"545 765 OFFCURVE",
"506 765 CURVE SMOOTH",
"448 765 OFFCURVE",
"408 806 OFFCURVE",
"345 806 CURVE SMOOTH",
"309 806 OFFCURVE",
"271 792 OFFCURVE",
"250 774 CURVE",
"230 683 LINE",
"258 707 OFFCURVE",
"291 720 OFFCURVE",
"330 720 CURVE SMOOTH",
"382 720 OFFCURVE",
"430 680 OFFCURVE",
"491 680 CURVE SMOOTH"
);
}
);
width = 599;
}
);
leftKerningGroup = a;
note = acircumflextilde;
rightKerningGroup = a;
unicode = 1EAB;
},
{
glyphname = adieresis;
lastChange = "2015-10-24 10:08:12 +0000";
layers = (
{
layerId = "CD587521-C2B1-4DF5-9394-E26F9987D7DC";
name = "SemiBold Italic";
paths = (
{
closed = 1;
nodes = (
"265 -10 OFFCURVE",
"321 7 OFFCURVE",
"367 40 CURVE",
"368 0 LINE",
"507 0 LINE",
"607 474 LINE",
"446 474 LINE",
"441 447 LINE",
"411 471 OFFCURVE",
"382 484 OFFCURVE",
"328 484 CURVE SMOOTH",
"170 484 OFFCURVE",
"70 375 OFFCURVE",
"37 218 CURVE SMOOTH",
"5 66 OFFCURVE",
"70 -10 OFFCURVE",
"201 -10 CURVE SMOOTH"
);
},
{
closed = 1;
nodes = (
"205 107 OFFCURVE",
"183 134 OFFCURVE",
"201 218 CURVE SMOOTH",
"223 320 OFFCURVE",
"269 366 OFFCURVE",
"345 366 CURVE SMOOTH",
"380 366 OFFCURVE",
"403 354 OFFCURVE",
"416 333 CURVE",
"376 143 LINE",
"346 119 OFFCURVE",
"314 107 OFFCURVE",
"278 107 CURVE SMOOTH"
);
},
{
closed = 1;
nodes = (
"330 548 LINE",
"354 657 LINE",
"237 657 LINE",
"213 548 LINE"
);
},
{
closed = 1;
nodes = (
"536 548 LINE",
"560 657 LINE",
"442 657 LINE",
"418 548 LINE"
);
}
);
width = 599;
}
);
leftKerningGroup = a;
note = adieresis;
rightKerningGroup = a;
unicode = 00E4;
},
{
glyphname = adotbelow;
lastChange = "2015-10-24 10:08:11 +0000";
layers = (
{
layerId = "CD587521-C2B1-4DF5-9394-E26F9987D7DC";
name = "SemiBold Italic";
paths = (
{
closed = 1;
nodes = (
"265 -10 OFFCURVE",
"321 7 OFFCURVE",
"367 40 CURVE",
"368 0 LINE",
"507 0 LINE",
"607 474 LINE",
"446 474 LINE",
"441 447 LINE",
"411 471 OFFCURVE",
"382 484 OFFCURVE",
"328 484 CURVE SMOOTH",
"170 484 OFFCURVE",
"70 375 OFFCURVE",
"37 218 CURVE SMOOTH",
"5 66 OFFCURVE",
"70 -10 OFFCURVE",
"201 -10 CURVE SMOOTH"
);
},
{
closed = 1;
nodes = (
"272 -179 LINE",
"295 -70 LINE",
"177 -70 LINE",
"154 -179 LINE"
);
},
{
closed = 1;
nodes = (
"205 107 OFFCURVE",
"183 134 OFFCURVE",
"201 218 CURVE SMOOTH",
"223 320 OFFCURVE",
"269 366 OFFCURVE",
"345 366 CURVE SMOOTH",
"380 366 OFFCURVE",
"403 354 OFFCURVE",
"416 333 CURVE",
"376 143 LINE",
"346 119 OFFCURVE",
"314 107 OFFCURVE",
"278 107 CURVE SMOOTH"
);
}
);
width = 599;
}
);
leftKerningGroup = a;
note = adotbelow;
rightKerningGroup = a;
unicode = 1EA1;
},
{
glyphname = agrave;
lastChange = "2015-10-24 10:08:12 +0000";
layers = (
{
layerId = "CD587521-C2B1-4DF5-9394-E26F9987D7DC";
name = "SemiBold Italic";
paths = (
{
closed = 1;
nodes = (
"265 -10 OFFCURVE",
"321 7 OFFCURVE",
"367 40 CURVE",
"368 0 LINE",
"507 0 LINE",
"607 474 LINE",
"446 474 LINE",
"441 447 LINE",
"411 471 OFFCURVE",
"382 484 OFFCURVE",
"328 484 CURVE SMOOTH",
"170 484 OFFCURVE",
"70 375 OFFCURVE",
"37 218 CURVE SMOOTH",
"5 66 OFFCURVE",
"70 -10 OFFCURVE",
"201 -10 CURVE SMOOTH"
);
},
{
closed = 1;
nodes = (
"205 107 OFFCURVE",
"183 134 OFFCURVE",
"201 218 CURVE SMOOTH",
"223 320 OFFCURVE",
"269 366 OFFCURVE",
"345 366 CURVE SMOOTH",
"380 366 OFFCURVE",
"403 354 OFFCURVE",
"416 333 CURVE",
"376 143 LINE",
"346 119 OFFCURVE",
"314 107 OFFCURVE",
"278 107 CURVE SMOOTH"
);
},
{
closed = 1;
nodes = (
"428 522 LINE",
"386 718 LINE",
"254 718 LINE",
"305 522 LINE"
);
}
);
width = 599;
}
);
leftKerningGroup = a;
note = agrave;
rightKerningGroup = a;
unicode = 00E0;
},
{
glyphname = ahookabove;
lastChange = "2015-10-24 10:08:11 +0000";
layers = (
{
layerId = "CD587521-C2B1-4DF5-9394-E26F9987D7DC";
name = "SemiBold Italic";
paths = (
{
closed = 1;
nodes = (
"265 -10 OFFCURVE",
"321 7 OFFCURVE",
"367 40 CURVE",
"368 0 LINE",
"507 0 LINE",
"607 474 LINE",
"446 474 LINE",
"441 447 LINE",
"411 471 OFFCURVE",
"382 484 OFFCURVE",
"328 484 CURVE SMOOTH",
"170 484 OFFCURVE",
"70 375 OFFCURVE",
"37 218 CURVE SMOOTH",
"5 66 OFFCURVE",
"70 -10 OFFCURVE",
"201 -10 CURVE SMOOTH"
);
},
{
closed = 1;
nodes = (
"205 107 OFFCURVE",
"183 134 OFFCURVE",
"201 218 CURVE SMOOTH",
"223 320 OFFCURVE",
"269 366 OFFCURVE",
"345 366 CURVE SMOOTH",
"380 366 OFFCURVE",
"403 354 OFFCURVE",
"416 333 CURVE",
"376 143 LINE",
"346 119 OFFCURVE",
"314 107 OFFCURVE",
"278 107 CURVE SMOOTH"
);
},
{
closed = 1;
nodes = (
"415 521 LINE",
"424 565 LINE",
"486 579 OFFCURVE",
"517 605 OFFCURVE",
"530 662 CURVE SMOOTH",
"542 721 OFFCURVE",
"503 761 OFFCURVE",
"415 761 CURVE SMOOTH",
"372 761 OFFCURVE",
"333 756 OFFCURVE",
"305 747 CURVE",
"289 675 LINE",
"306 680 OFFCURVE",
"332 684 OFFCURVE",
"351 684 CURVE SMOOTH",
"392 684 OFFCURVE",
"414 673 OFFCURVE",
"409 648 CURVE SMOOTH",
"403 621 OFFCURVE",
"382 606 OFFCURVE",
"310 602 CURVE",
"293 521 LINE"
);
}
);
width = 599;
}
);
leftKerningGroup = a;
note = ahookabove;
rightKerningGroup = a;
unicode = 1EA3;
},
{
glyphname = "alpha-latin";
lastChange = "2015-10-24 10:08:11 +0000";
layers = (
{
layerId = "CD587521-C2B1-4DF5-9394-E26F9987D7DC";
name = "SemiBold Italic";
paths = (
{
closed = 1;
nodes = (
"265 -10 OFFCURVE",
"321 7 OFFCURVE",
"367 40 CURVE",
"368 0 LINE",
"507 0 LINE",
"607 474 LINE",
"446 474 LINE",
"441 447 LINE",
"411 471 OFFCURVE",
"382 484 OFFCURVE",
"328 484 CURVE SMOOTH",
"170 484 OFFCURVE",
"70 375 OFFCURVE",
"37 218 CURVE SMOOTH",
"5 66 OFFCURVE",
"70 -10 OFFCURVE",
"201 -10 CURVE SMOOTH"
);
},
{
closed = 1;
nodes = (
"205 107 OFFCURVE",
"183 134 OFFCURVE",
"201 218 CURVE SMOOTH",
"223 320 OFFCURVE",
"269 366 OFFCURVE",
"345 366 CURVE SMOOTH",
"380 366 OFFCURVE",
"403 354 OFFCURVE",
"416 333 CURVE",
"376 143 LINE",
"346 119 OFFCURVE",
"314 107 OFFCURVE",
"278 107 CURVE SMOOTH"
);
}
);
width = 599;
}
);
leftKerningGroup = a;
note = ascript;
rightKerningGroup = a;
unicode = 0251;
},
{
glyphname = amacron;
lastChange = "2015-10-24 10:08:12 +0000";
layers = (
{
layerId = "CD587521-C2B1-4DF5-9394-E26F9987D7DC";
name = "SemiBold Italic";
paths = (
{
closed = 1;
nodes = (
"265 -10 OFFCURVE",
"321 7 OFFCURVE",
"367 40 CURVE",
"368 0 LINE",
"507 0 LINE",
"607 474 LINE",
"446 474 LINE",
"441 447 LINE",
"411 471 OFFCURVE",
"382 484 OFFCURVE",
"328 484 CURVE SMOOTH",
"170 484 OFFCURVE",
"70 375 OFFCURVE",
"37 218 CURVE SMOOTH",
"5 66 OFFCURVE",
"70 -10 OFFCURVE",
"201 -10 CURVE SMOOTH"
);
},
{
closed = 1;
nodes = (
"205 107 OFFCURVE",
"183 134 OFFCURVE",
"201 218 CURVE SMOOTH",
"223 320 OFFCURVE",
"269 366 OFFCURVE",
"345 366 CURVE SMOOTH",
"380 366 OFFCURVE",
"403 354 OFFCURVE",
"416 333 CURVE",
"376 143 LINE",
"346 119 OFFCURVE",
"314 107 OFFCURVE",
"278 107 CURVE SMOOTH"
);
},
{
closed = 1;
nodes = (
"536 538 LINE",
"557 635 LINE",
"240 635 LINE",
"219 538 LINE"
);
}
);
width = 599;
}
);
leftKerningGroup = a;
note = amacron;
rightKerningGroup = a;
unicode = 0101;
},
{
glyphname = aogonek;
lastChange = "2015-10-24 10:08:12 +0000";
layers = (
{
layerId = "CD587521-C2B1-4DF5-9394-E26F9987D7DC";
name = "SemiBold Italic";
paths = (
{
closed = 1;
nodes = (
"435 -220 OFFCURVE",
"473 -213 OFFCURVE",
"494 -205 CURVE",
"511 -124 LINE",
"498 -131 OFFCURVE",
"476 -135 OFFCURVE",
"459 -135 CURVE SMOOTH",
"433 -135 OFFCURVE",
"418 -124 OFFCURVE",
"424 -97 CURVE SMOOTH",
"432 -61 OFFCURVE",
"462 -24 OFFCURVE",
"507 0 CURVE",
"607 474 LINE",
"446 474 LINE",
"441 447 LINE",
"411 471 OFFCURVE",
"382 484 OFFCURVE",
"328 484 CURVE SMOOTH",
"170 484 OFFCURVE",
"70 375 OFFCURVE",
"37 218 CURVE SMOOTH",
"5 66 OFFCURVE",
"70 -10 OFFCURVE",
"201 -10 CURVE SMOOTH",
"265 -10 OFFCURVE",
"321 7 OFFCURVE",
"367 40 CURVE",
"368 0 LINE",
"337 -29 OFFCURVE",
"305 -76 OFFCURVE",
"295 -126 CURVE SMOOTH",
"281 -191 OFFCURVE",
"330 -220 OFFCURVE",
"398 -220 CURVE SMOOTH"
);
},
{
closed = 1;
nodes = (
"205 107 OFFCURVE",
"183 134 OFFCURVE",
"201 218 CURVE SMOOTH",
"223 320 OFFCURVE",
"269 366 OFFCURVE",
"345 366 CURVE SMOOTH",
"380 366 OFFCURVE",
"403 354 OFFCURVE",
"416 333 CURVE",
"376 143 LINE",
"346 119 OFFCURVE",
"314 107 OFFCURVE",
"278 107 CURVE SMOOTH"
);
}
);
width = 599;
}
);
leftKerningGroup = a;
note = aogonek;
rightKerningGroup = a;
unicode = 0105;
},
{
glyphname = aring;
lastChange = "2015-10-24 10:08:12 +0000";
layers = (
{
layerId = "CD587521-C2B1-4DF5-9394-E26F9987D7DC";
name = "SemiBold Italic";
paths = (
{
closed = 1;
nodes = (
"265 -10 OFFCURVE",
"321 7 OFFCURVE",
"367 40 CURVE",
"368 0 LINE",
"507 0 LINE",
"607 474 LINE",
"446 474 LINE",
"441 447 LINE",
"411 471 OFFCURVE",
"382 484 OFFCURVE",
"328 484 CURVE SMOOTH",
"170 484 OFFCURVE",
"70 375 OFFCURVE",
"37 218 CURVE SMOOTH",
"5 66 OFFCURVE",
"70 -10 OFFCURVE",
"201 -10 CURVE SMOOTH"
);
},
{
closed = 1;
nodes = (
"205 107 OFFCURVE",
"183 134 OFFCURVE",
"201 218 CURVE SMOOTH",
"223 320 OFFCURVE",
"269 366 OFFCURVE",
"345 366 CURVE SMOOTH",
"380 366 OFFCURVE",
"403 354 OFFCURVE",
"416 333 CURVE",
"376 143 LINE",
"346 119 OFFCURVE",
"314 107 OFFCURVE",
"278 107 CURVE SMOOTH"
);
},
{
closed = 1;
nodes = (
"459 521 OFFCURVE",
"513 576 OFFCURVE",
"528 646 CURVE SMOOTH",
"543 717 OFFCURVE",
"507 772 OFFCURVE",
"423 772 CURVE SMOOTH",
"337 772 OFFCURVE",
"281 717 OFFCURVE",
"266 646 CURVE SMOOTH",
"251 576 OFFCURVE",
"289 521 OFFCURVE",
"370 521 CURVE SMOOTH"
);
},
{
closed = 1;
nodes = (
"344 591 OFFCURVE",
"333 615 OFFCURVE",
"339 646 CURVE SMOOTH",
"346 677 OFFCURVE",
"373 702 OFFCURVE",
"408 702 CURVE SMOOTH",
"452 702 OFFCURVE",
"461 677 OFFCURVE",
"454 646 CURVE SMOOTH",
"448 615 OFFCURVE",
"422 591 OFFCURVE",
"385 591 CURVE SMOOTH"
);
}
);
width = 599;
}
);
leftKerningGroup = a;
note = aring;
rightKerningGroup = a;
unicode = 00E5;
},
{
glyphname = aringacute;
lastChange = "2015-10-24 10:08:12 +0000";
layers = (
{
layerId = "CD587521-C2B1-4DF5-9394-E26F9987D7DC";
name = "SemiBold Italic";
paths = (
{
closed = 1;
nodes = (
"265 -10 OFFCURVE",
"321 7 OFFCURVE",
"367 40 CURVE",
"368 0 LINE",
"507 0 LINE",
"607 474 LINE",
"446 474 LINE",
"441 447 LINE",
"411 471 OFFCURVE",
"382 484 OFFCURVE",
"328 484 CURVE SMOOTH",
"170 484 OFFCURVE",
"70 375 OFFCURVE",
"37 218 CURVE SMOOTH",
"5 66 OFFCURVE",
"70 -10 OFFCURVE",
"201 -10 CURVE SMOOTH"
);
},
{
closed = 1;
nodes = (
"205 107 OFFCURVE",
"183 134 OFFCURVE",
"201 218 CURVE SMOOTH",
"223 320 OFFCURVE",
"269 366 OFFCURVE",
"345 366 CURVE SMOOTH",
"380 366 OFFCURVE",
"403 354 OFFCURVE",
"416 333 CURVE",
"376 143 LINE",
"346 119 OFFCURVE",
"314 107 OFFCURVE",
"278 107 CURVE SMOOTH"
);
},
{
closed = 1;
nodes = (
"449 515 OFFCURVE",
"503 570 OFFCURVE",
"518 640 CURVE SMOOTH",
"533 711 OFFCURVE",
"497 766 OFFCURVE",
"413 766 CURVE SMOOTH",
"327 766 OFFCURVE",
"271 711 OFFCURVE",
"256 640 CURVE SMOOTH",
"241 570 OFFCURVE",
"279 515 OFFCURVE",
"360 515 CURVE SMOOTH"
);
},
{
closed = 1;
nodes = (
"334 585 OFFCURVE",
"323 609 OFFCURVE",
"329 640 CURVE SMOOTH",
"336 671 OFFCURVE",
"363 696 OFFCURVE",
"398 696 CURVE SMOOTH",
"442 696 OFFCURVE",
"451 671 OFFCURVE",
"444 640 CURVE SMOOTH",
"438 609 OFFCURVE",
"412 585 OFFCURVE",
"375 585 CURVE SMOOTH"
);
},
{
closed = 1;
nodes = (
"499 795 LINE",
"633 951 LINE",
"501 951 LINE",
"375 795 LINE"
);
}
);
width = 625;
}
);
leftKerningGroup = a;
note = aringacute;
rightKerningGroup = a;
unicode = 01FB;
},
{
glyphname = atilde;
lastChange = "2015-10-24 10:08:12 +0000";
layers = (
{
layerId = "CD587521-C2B1-4DF5-9394-E26F9987D7DC";
name = "SemiBold Italic";
paths = (
{
closed = 1;
nodes = (
"265 -10 OFFCURVE",
"321 7 OFFCURVE",
"367 40 CURVE",
"368 0 LINE",
"507 0 LINE",
"607 474 LINE",
"446 474 LINE",
"441 447 LINE",
"411 471 OFFCURVE",
"382 484 OFFCURVE",
"328 484 CURVE SMOOTH",
"170 484 OFFCURVE",
"70 375 OFFCURVE",
"37 218 CURVE SMOOTH",
"5 66 OFFCURVE",
"70 -10 OFFCURVE",
"201 -10 CURVE SMOOTH"
);
},
{
closed = 1;
nodes = (
"205 107 OFFCURVE",
"183 134 OFFCURVE",
"201 218 CURVE SMOOTH",
"223 320 OFFCURVE",
"269 366 OFFCURVE",
"345 366 CURVE SMOOTH",
"380 366 OFFCURVE",
"403 354 OFFCURVE",
"416 333 CURVE",
"376 143 LINE",
"346 119 OFFCURVE",
"314 107 OFFCURVE",
"278 107 CURVE SMOOTH"
);
},
{
closed = 1;
nodes = (
"501 532 OFFCURVE",
"537 546 OFFCURVE",
"554 564 CURVE",
"577 672 LINE",
"555 648 OFFCURVE",
"522 633 OFFCURVE",
"482 633 CURVE SMOOTH",
"423 633 OFFCURVE",
"384 674 OFFCURVE",
"320 674 CURVE SMOOTH",
"283 674 OFFCURVE",
"245 660 OFFCURVE",
"222 642 CURVE",
"199 535 LINE",
"228 559 OFFCURVE",
"262 573 OFFCURVE",
"301 573 CURVE SMOOTH",
"353 573 OFFCURVE",
"401 532 OFFCURVE",
"463 532 CURVE SMOOTH"
);
}
);
width = 599;
}
);
leftKerningGroup = a;
note = atilde;
rightKerningGroup = a;
unicode = 00E3;
},
{
glyphname = ae;
lastChange = "2015-10-24 10:08:12 +0000";
layers = (
{
layerId = "CD587521-C2B1-4DF5-9394-E26F9987D7DC";
name = "SemiBold Italic";
paths = (
{
closed = 1;
nodes = (
"291 -10 OFFCURVE",
"357 20 OFFCURVE",
"420 63 CURVE",
"452 16 OFFCURVE",
"521 -10 OFFCURVE",
"597 -10 CURVE SMOOTH",
"672 -10 OFFCURVE",
"738 0 OFFCURVE",
"788 21 CURVE",
"810 124 LINE",
"771 110 OFFCURVE",
"710 99 OFFCURVE",
"658 99 CURVE SMOOTH",
"557 99 OFFCURVE",
"515 122 OFFCURVE",
"514 185 CURVE",
"850 185 LINE",
"868 270 LINE SMOOTH",
"893 388 OFFCURVE",
"820 484 OFFCURVE",
"676 484 CURVE SMOOTH",
"608 484 OFFCURVE",
"541 468 OFFCURVE",
"495 438 CURVE",
"461 469 OFFCURVE",
"416 484 OFFCURVE",
"342 484 CURVE SMOOTH",
"267 484 OFFCURVE",
"193 470 OFFCURVE",
"144 452 CURVE",
"121 348 LINE",
"175 364 OFFCURVE",
"234 373 OFFCURVE",
"286 373 CURVE SMOOTH",
"378 373 OFFCURVE",
"399 353 OFFCURVE",
"386 306 CURVE SMOOTH",
"383 295 LINE",
"251 295 LINE SMOOTH",
"119 295 OFFCURVE",
"41 236 OFFCURVE",
"20 139 CURVE SMOOTH",
"-1 38 OFFCURVE",
"76 -10 OFFCURVE",
"169 -10 CURVE SMOOTH"
);
},
{
closed = 1;
nodes = (
"169 89 OFFCURVE",
"159 110 OFFCURVE",
"166 145 CURVE SMOOTH",
"175 184 OFFCURVE",
"201 202 OFFCURVE",
"249 202 CURVE SMOOTH",
"363 202 LINE",
"348 131 LINE",
"318 106 OFFCURVE",
"279 89 OFFCURVE",
"228 89 CURVE SMOOTH"
);
},
{
closed = 1;
nodes = (
"548 344 OFFCURVE",
"577 375 OFFCURVE",
"658 375 CURVE SMOOTH",
"725 375 OFFCURVE",
"744 345 OFFCURVE",
"734 299 CURVE SMOOTH",
"730 278 LINE",
"534 278 LINE"
);
}
);
width = 882;
}
);
leftKerningGroup = a;
note = ae;
rightKerningGroup = e;
unicode = 00E6;
},
{
glyphname = aeacute;
lastChange = "2015-10-24 10:08:12 +0000";
layers = (
{
layerId = "CD587521-C2B1-4DF5-9394-E26F9987D7DC";
name = "SemiBold Italic";
paths = (
{
closed = 1;
nodes = (
"291 -10 OFFCURVE",
"357 20 OFFCURVE",
"420 63 CURVE",
"452 16 OFFCURVE",
"521 -10 OFFCURVE",
"597 -10 CURVE SMOOTH",
"672 -10 OFFCURVE",
"738 0 OFFCURVE",
"788 21 CURVE",
"810 124 LINE",
"771 110 OFFCURVE",
"710 99 OFFCURVE",
"658 99 CURVE SMOOTH",
"557 99 OFFCURVE",
"515 122 OFFCURVE",
"514 185 CURVE",
"850 185 LINE",
"868 270 LINE SMOOTH",
"893 388 OFFCURVE",
"820 484 OFFCURVE",
"676 484 CURVE SMOOTH",
"608 484 OFFCURVE",
"541 468 OFFCURVE",
"495 438 CURVE",
"461 469 OFFCURVE",
"416 484 OFFCURVE",
"342 484 CURVE SMOOTH",
"267 484 OFFCURVE",
"193 470 OFFCURVE",
"144 452 CURVE",
"121 348 LINE",
"175 364 OFFCURVE",
"234 373 OFFCURVE",
"286 373 CURVE SMOOTH",
"378 373 OFFCURVE",
"399 353 OFFCURVE",
"386 306 CURVE SMOOTH",
"383 295 LINE",
"251 295 LINE SMOOTH",
"119 295 OFFCURVE",
"41 236 OFFCURVE",
"20 139 CURVE SMOOTH",
"-1 38 OFFCURVE",
"76 -10 OFFCURVE",
"169 -10 CURVE SMOOTH"
);
},
{
closed = 1;
nodes = (
"169 89 OFFCURVE",
"159 110 OFFCURVE",
"166 145 CURVE SMOOTH",
"175 184 OFFCURVE",
"201 202 OFFCURVE",
"249 202 CURVE SMOOTH",
"363 202 LINE",
"348 131 LINE",
"318 106 OFFCURVE",
"279 89 OFFCURVE",
"228 89 CURVE SMOOTH"
);
},
{
closed = 1;
nodes = (
"548 344 OFFCURVE",
"577 375 OFFCURVE",
"658 375 CURVE SMOOTH",
"725 375 OFFCURVE",
"744 345 OFFCURVE",
"734 299 CURVE SMOOTH",
"730 278 LINE",
"534 278 LINE"
);
},
{
closed = 1;
nodes = (
"566 522 LINE",
"700 718 LINE",
"568 718 LINE",
"442 522 LINE"
);
}
);
width = 882;
}
);
leftKerningGroup = a;
note = aeacute;
rightKerningGroup = e;
unicode = 01FD;
},
{
glyphname = b;
lastChange = "2015-10-24 10:08:11 +0000";
layers = (
{
layerId = "CD587521-C2B1-4DF5-9394-E26F9987D7DC";
name = "SemiBold Italic";
paths = (
{
closed = 1;
nodes = (
"454 -10 OFFCURVE",
"542 70 OFFCURVE",
"578 241 CURVE SMOOTH",
"612 405 OFFCURVE",
"535 484 OFFCURVE",
"405 484 CURVE SMOOTH",
"357 484 OFFCURVE",
"308 473 OFFCURVE",
"268 452 CURVE",
"315 674 LINE",
"154 674 LINE",
"11 0 LINE",
"151 0 LINE",
"167 40 LINE",
"199 7 OFFCURVE",
"241 -10 OFFCURVE",
"305 -10 CURVE SMOOTH"
);
},
{
closed = 1;
nodes = (
"249 107 OFFCURVE",
"219 119 OFFCURVE",
"202 143 CURVE",
"243 336 LINE",
"269 356 OFFCURVE",
"303 366 OFFCURVE",
"339 366 CURVE SMOOTH",
"414 366 OFFCURVE",
"433 333 OFFCURVE",
"414 240 CURVE SMOOTH",
"394 149 OFFCURVE",
"356 107 OFFCURVE",
"284 107 CURVE SMOOTH"
);
}
);
width = 598;
}
);
note = b;
unicode = 0062;
},
{
glyphname = c;
lastChange = "2015-10-24 10:08:12 +0000";
layers = (
{
layerId = "CD587521-C2B1-4DF5-9394-E26F9987D7DC";
name = "SemiBold Italic";
paths = (
{
closed = 1;
nodes = (
"324 -10 OFFCURVE",
"381 -1 OFFCURVE",
"434 20 CURVE",
"459 139 LINE",
"415 119 OFFCURVE",
"367 109 OFFCURVE",
"320 109 CURVE SMOOTH",
"211 109 OFFCURVE",
"186 147 OFFCURVE",
"205 237 CURVE SMOOTH",
"225 333 OFFCURVE",
"282 365 OFFCURVE",
"375 365 CURVE SMOOTH",
"424 365 OFFCURVE",
"469 355 OFFCURVE",
"500 338 CURVE",
"525 452 LINE",
"481 475 OFFCURVE",
"435 484 OFFCURVE",
"366 484 CURVE SMOOTH",
"186 484 OFFCURVE",
"76 404 OFFCURVE",
"41 237 CURVE SMOOTH",
"6 73 OFFCURVE",
"105 -10 OFFCURVE",
"258 -10 CURVE SMOOTH"
);
}
);
width = 501;
}
);
leftKerningGroup = c;
note = c;
rightKerningGroup = c;
unicode = 0063;
},
